M48
; DRILL file {KiCad (6.0.8)} date Wed Oct 18 15:34:41 2023
; FORMAT={-:-/ absolute / metric / decimal}
; #@! TF.CreationDate,2023-10-18T15:34:41+09:00
; #@! TF.GenerationSoftware,Kicad,Pcbnew,(6.0.8)
; #@! TF.FileFunction,MixedPlating,1,2
FMAT,2
METRIC
; #@! TA.AperFunction,Plated,PTH,ViaDrill
T1C0.400
; #@! TA.AperFunction,Plated,PTH,ComponentDrill
T2C0.800
; #@! TA.AperFunction,Plated,PTH,ComponentDrill
T3C0.900
; #@! TA.AperFunction,Plated,PTH,ComponentDrill
T4C1.000
; #@! TA.AperFunction,Plated,PTH,ComponentDrill
T5C1.100
%
G90
G05
T1
X5.08Y55.88
X25.4Y33.02
X25.4Y26.67
X30.48Y15.24
X33.02Y55.88
X45.72Y15.18
X59.69Y30.48
X66.04Y24.13
X78.74Y45.72
X78.74Y12.7
T2
X10.16Y44.45
X10.16Y40.64
X15.24Y58.42
X15.24Y48.26
X20.32Y44.45
X20.32Y40.64
X25.41Y52.075
X25.41Y49.535
X25.41Y46.995
X25.41Y44.455
X25.41Y41.915
X25.41Y39.375
X25.41Y36.835
X33.03Y52.075
X33.03Y49.535
X33.03Y46.995
X33.03Y44.455
X33.03Y41.915
X33.03Y39.375
X33.03Y36.835
X39.37Y50.8
X39.37Y45.72
X39.37Y40.64
X39.37Y35.56
X49.53Y50.8
X49.53Y45.72
X49.53Y40.64
X49.53Y35.56
X52.08Y50.79
X52.08Y48.25
X52.08Y45.71
X52.08Y43.17
X52.08Y40.63
X52.08Y38.09
X52.08Y35.55
X52.08Y33.01
X59.7Y50.79
X59.7Y48.25
X59.7Y45.71
X59.7Y43.17
X59.7Y40.63
X59.7Y38.09
X59.7Y35.55
X59.7Y33.01
X65.715Y36.83
X65.715Y31.75
X66.04Y67.31
X66.04Y62.23
X66.04Y52.07
X66.04Y46.99
X66.04Y21.59
X66.04Y16.51
X75.875Y36.83
X75.875Y31.75
X76.2Y67.31
X76.2Y62.23
X76.2Y52.07
X76.2Y46.99
X76.2Y21.59
X76.2Y16.51
T3
X6.35Y67.31
X6.35Y64.77
X12.7Y67.31
X12.7Y64.77
X19.05Y67.31
X19.05Y64.77
T4
X7.62Y12.7
X7.62Y10.16
X10.16Y12.7
X10.16Y10.16
X12.7Y12.7
X12.7Y10.16
X15.24Y12.7
X15.24Y10.16
X17.78Y12.7
X17.78Y10.16
X20.32Y12.7
X20.32Y10.16
X22.86Y12.7
X22.86Y10.16
X25.4Y12.7
X25.4Y10.16
X27.94Y12.7
X27.94Y10.16
X30.48Y12.7
X30.48Y10.16
X33.02Y12.7
X33.02Y10.16
X35.56Y12.7
X35.56Y10.16
X38.1Y12.7
X38.1Y10.16
X40.64Y12.7
X40.64Y10.16
X43.18Y12.7
X43.18Y10.16
X45.72Y12.7
X45.72Y10.16
X48.26Y12.7
X48.26Y10.16
X50.8Y12.7
X50.8Y10.16
X53.34Y12.7
X53.34Y10.16
X55.88Y12.7
X55.88Y10.16
T5
X81.28Y71.12
X81.28Y60.96
X81.28Y55.88
X81.28Y45.72
X81.28Y40.64
X81.28Y30.48
X81.28Y25.4
X81.28Y15.24
X86.36Y67.31
X86.36Y64.77
X86.36Y62.23
X86.36Y52.07
X86.36Y49.53
X86.36Y46.99
X86.36Y36.83
X86.36Y34.29
X86.36Y31.75
X86.36Y21.59
X86.36Y19.05
X86.36Y16.51
T0
M30
