%TF.GenerationSoftware,KiCad,Pcbnew,(6.0.8)*%
%TF.CreationDate,2023-10-18T15:34:39+09:00*%
%TF.ProjectId,AltairMD_V5,416c7461-6972-44d4-945f-56352e6b6963,rev?*%
%TF.SameCoordinates,PX463f660PY93c3260*%
%TF.FileFunction,Copper,L2,Bot*%
%TF.FilePolarity,Positive*%
%FSLAX46Y46*%
G04 Gerber Fmt 4.6, Leading zero omitted, Abs format (unit mm)*
G04 Created by KiCad (PCBNEW (6.0.8)) date 2023-10-18 15:34:39*
%MOMM*%
%LPD*%
G01*
G04 APERTURE LIST*
%TA.AperFunction,ComponentPad*%
%ADD10R,2.200000X2.200000*%
%TD*%
%TA.AperFunction,ComponentPad*%
%ADD11O,2.200000X2.200000*%
%TD*%
%TA.AperFunction,ComponentPad*%
%ADD12C,1.600000*%
%TD*%
%TA.AperFunction,ComponentPad*%
%ADD13O,1.600000X1.600000*%
%TD*%
%TA.AperFunction,ComponentPad*%
%ADD14R,1.800000X1.800000*%
%TD*%
%TA.AperFunction,ComponentPad*%
%ADD15C,1.800000*%
%TD*%
%TA.AperFunction,ComponentPad*%
%ADD16R,1.600000X1.600000*%
%TD*%
%TA.AperFunction,ComponentPad*%
%ADD17R,2.000000X1.905000*%
%TD*%
%TA.AperFunction,ComponentPad*%
%ADD18O,2.000000X1.905000*%
%TD*%
%TA.AperFunction,ComponentPad*%
%ADD19R,1.700000X1.700000*%
%TD*%
%TA.AperFunction,ComponentPad*%
%ADD20O,1.700000X1.700000*%
%TD*%
%TA.AperFunction,ViaPad*%
%ADD21C,0.800000*%
%TD*%
%TA.AperFunction,Conductor*%
%ADD22C,1.800000*%
%TD*%
%TA.AperFunction,Conductor*%
%ADD23C,3.000000*%
%TD*%
%TA.AperFunction,Conductor*%
%ADD24C,2.000000*%
%TD*%
G04 APERTURE END LIST*
D10*
%TO.P,D7,1,K*%
%TO.N,M+*%
X81280000Y55880000D03*
D11*
%TO.P,D7,2,A*%
%TO.N,GND1*%
X81280000Y45720000D03*
%TD*%
D12*
%TO.P,R8,1*%
%TO.N,1'*%
X65715000Y31750000D03*
D13*
%TO.P,R8,2*%
%TO.N,+24V*%
X75875000Y31750000D03*
%TD*%
D12*
%TO.P,R10,1*%
%TO.N,2'*%
X66040000Y16510000D03*
D13*
%TO.P,R10,2*%
%TO.N,GND1*%
X76200000Y16510000D03*
%TD*%
D12*
%TO.P,R3,1*%
%TO.N,4*%
X15240000Y48260000D03*
D13*
%TO.P,R3,2*%
%TO.N,Net-(D3-Pad2)*%
X15240000Y58420000D03*
%TD*%
D14*
%TO.P,D3,1,K*%
%TO.N,GND*%
X19050000Y67310000D03*
D15*
%TO.P,D3,2,A*%
%TO.N,Net-(D3-Pad2)*%
X19050000Y64770000D03*
%TD*%
D16*
%TO.P,U2,1*%
%TO.N,Net-(R4-Pad2)*%
X52080000Y40630000D03*
D13*
%TO.P,U2,2*%
%TO.N,GND*%
X52080000Y38090000D03*
%TO.P,U2,3*%
%TO.N,Net-(R5-Pad2)*%
X52080000Y35550000D03*
%TO.P,U2,4*%
%TO.N,GND*%
X52080000Y33010000D03*
%TO.P,U2,5*%
%TO.N,2'*%
X59700000Y33010000D03*
%TO.P,U2,6*%
%TO.N,+12V*%
X59700000Y35550000D03*
%TO.P,U2,7*%
%TO.N,1'*%
X59700000Y38090000D03*
%TO.P,U2,8*%
%TO.N,+12V*%
X59700000Y40630000D03*
%TD*%
D10*
%TO.P,D6,1,K*%
%TO.N,M-*%
X81280000Y25400000D03*
D11*
%TO.P,D6,2,A*%
%TO.N,GND1*%
X81280000Y15240000D03*
%TD*%
D12*
%TO.P,R14,1*%
%TO.N,2'*%
X66040000Y21590000D03*
D13*
%TO.P,R14,2*%
%TO.N,Net-(Q3-Pad1)*%
X76200000Y21590000D03*
%TD*%
D14*
%TO.P,D2,1,K*%
%TO.N,GND*%
X12700000Y67310000D03*
D15*
%TO.P,D2,2,A*%
%TO.N,Net-(D2-Pad2)*%
X12700000Y64770000D03*
%TD*%
D12*
%TO.P,R11,1*%
%TO.N,GND1*%
X76200000Y46990000D03*
D13*
%TO.P,R11,2*%
%TO.N,3'*%
X66040000Y46990000D03*
%TD*%
D12*
%TO.P,R7,1*%
%TO.N,4*%
X39370000Y50800000D03*
D13*
%TO.P,R7,2*%
%TO.N,Net-(R7-Pad2)*%
X49530000Y50800000D03*
%TD*%
D10*
%TO.P,D4,1,K*%
%TO.N,+24V*%
X81280000Y30480000D03*
D11*
%TO.P,D4,2,A*%
%TO.N,M-*%
X81280000Y40640000D03*
%TD*%
D12*
%TO.P,R5,1*%
%TO.N,2*%
X39370000Y35560000D03*
D13*
%TO.P,R5,2*%
%TO.N,Net-(R5-Pad2)*%
X49530000Y35560000D03*
%TD*%
D12*
%TO.P,R4,1*%
%TO.N,1*%
X39370000Y40640000D03*
D13*
%TO.P,R4,2*%
%TO.N,Net-(R4-Pad2)*%
X49530000Y40640000D03*
%TD*%
D14*
%TO.P,D1,1,K*%
%TO.N,GND*%
X6350000Y67310000D03*
D15*
%TO.P,D1,2,A*%
%TO.N,Net-(D1-Pad2)*%
X6350000Y64770000D03*
%TD*%
D17*
%TO.P,Q3,1,G*%
%TO.N,Net-(Q3-Pad1)*%
X86360000Y21590000D03*
D18*
%TO.P,Q3,2,D*%
%TO.N,M-*%
X86360000Y19050000D03*
%TO.P,Q3,3,S*%
%TO.N,GND1*%
X86360000Y16510000D03*
%TD*%
D12*
%TO.P,R15,1*%
%TO.N,Net-(Q4-Pad1)*%
X76200000Y52070000D03*
D13*
%TO.P,R15,2*%
%TO.N,3'*%
X66040000Y52070000D03*
%TD*%
D10*
%TO.P,D5,1,K*%
%TO.N,+24V*%
X81280000Y60960000D03*
D11*
%TO.P,D5,2,A*%
%TO.N,M+*%
X81280000Y71120000D03*
%TD*%
D12*
%TO.P,R2,1*%
%TO.N,PWM*%
X20320000Y44450000D03*
D13*
%TO.P,R2,2*%
%TO.N,Net-(D2-Pad2)*%
X10160000Y44450000D03*
%TD*%
D17*
%TO.P,Q1,1,G*%
%TO.N,Net-(Q1-Pad1)*%
X86360000Y36830000D03*
D18*
%TO.P,Q1,2,D*%
%TO.N,M-*%
X86360000Y34290000D03*
%TO.P,Q1,3,S*%
%TO.N,+24V*%
X86360000Y31750000D03*
%TD*%
D12*
%TO.P,R1,1*%
%TO.N,1*%
X20320000Y40640000D03*
D13*
%TO.P,R1,2*%
%TO.N,Net-(D1-Pad2)*%
X10160000Y40640000D03*
%TD*%
D12*
%TO.P,R9,1*%
%TO.N,+24V*%
X76200000Y62230000D03*
D13*
%TO.P,R9,2*%
%TO.N,4'*%
X66040000Y62230000D03*
%TD*%
D17*
%TO.P,Q2,1,G*%
%TO.N,Net-(Q2-Pad1)*%
X86360000Y67310000D03*
D18*
%TO.P,Q2,2,D*%
%TO.N,M+*%
X86360000Y64770000D03*
%TO.P,Q2,3,S*%
%TO.N,+24V*%
X86360000Y62230000D03*
%TD*%
D12*
%TO.P,R6,1*%
%TO.N,3*%
X39370000Y45720000D03*
D13*
%TO.P,R6,2*%
%TO.N,Net-(R6-Pad2)*%
X49530000Y45720000D03*
%TD*%
D12*
%TO.P,R13,1*%
%TO.N,Net-(Q2-Pad1)*%
X76200000Y67310000D03*
D13*
%TO.P,R13,2*%
%TO.N,4'*%
X66040000Y67310000D03*
%TD*%
D17*
%TO.P,Q4,1,G*%
%TO.N,Net-(Q4-Pad1)*%
X86360000Y52070000D03*
D18*
%TO.P,Q4,2,D*%
%TO.N,M+*%
X86360000Y49530000D03*
%TO.P,Q4,3,S*%
%TO.N,GND1*%
X86360000Y46990000D03*
%TD*%
D16*
%TO.P,U3,1*%
%TO.N,Net-(R7-Pad2)*%
X52080000Y50790000D03*
D13*
%TO.P,U3,2*%
%TO.N,GND*%
X52080000Y48250000D03*
%TO.P,U3,3*%
%TO.N,Net-(R6-Pad2)*%
X52080000Y45710000D03*
%TO.P,U3,4*%
%TO.N,GND*%
X52080000Y43170000D03*
%TO.P,U3,5*%
%TO.N,3'*%
X59700000Y43170000D03*
%TO.P,U3,6*%
%TO.N,+12V*%
X59700000Y45710000D03*
%TO.P,U3,7*%
%TO.N,4'*%
X59700000Y48250000D03*
%TO.P,U3,8*%
%TO.N,+12V*%
X59700000Y50790000D03*
%TD*%
D12*
%TO.P,R12,1*%
%TO.N,1'*%
X65715000Y36830000D03*
D13*
%TO.P,R12,2*%
%TO.N,Net-(Q1-Pad1)*%
X75875000Y36830000D03*
%TD*%
D16*
%TO.P,U1,1*%
%TO.N,4*%
X25410000Y52075000D03*
D13*
%TO.P,U1,2*%
%TO.N,PWM*%
X25410000Y49535000D03*
%TO.P,U1,3*%
%TO.N,3*%
X25410000Y46995000D03*
%TO.P,U1,4*%
%TO.N,PWM*%
X25410000Y44455000D03*
%TO.P,U1,5*%
%TO.N,1*%
X25410000Y41915000D03*
%TO.P,U1,6*%
%TO.N,2*%
X25410000Y39375000D03*
%TO.P,U1,7,GND*%
%TO.N,GND*%
X25410000Y36835000D03*
%TO.P,U1,8*%
%TO.N,unconnected-(U1-Pad8)*%
X33030000Y36835000D03*
%TO.P,U1,9*%
%TO.N,unconnected-(U1-Pad9)*%
X33030000Y39375000D03*
%TO.P,U1,10*%
%TO.N,unconnected-(U1-Pad10)*%
X33030000Y41915000D03*
%TO.P,U1,11*%
%TO.N,unconnected-(U1-Pad11)*%
X33030000Y44455000D03*
%TO.P,U1,12*%
%TO.N,unconnected-(U1-Pad12)*%
X33030000Y46995000D03*
%TO.P,U1,13*%
%TO.N,unconnected-(U1-Pad13)*%
X33030000Y49535000D03*
%TO.P,U1,14,VCC*%
%TO.N,+5V*%
X33030000Y52075000D03*
%TD*%
D19*
%TO.P,J1,1,Pin_1*%
%TO.N,M-*%
X55880000Y12700000D03*
D20*
%TO.P,J1,2,Pin_2*%
X55880000Y10160000D03*
%TO.P,J1,3,Pin_3*%
X53340000Y12700000D03*
%TO.P,J1,4,Pin_4*%
X53340000Y10160000D03*
%TO.P,J1,5,Pin_5*%
X50800000Y12700000D03*
%TO.P,J1,6,Pin_6*%
X50800000Y10160000D03*
%TO.P,J1,7,Pin_7*%
%TO.N,M+*%
X48260000Y12700000D03*
%TO.P,J1,8,Pin_8*%
X48260000Y10160000D03*
%TO.P,J1,9,Pin_9*%
X45720000Y12700000D03*
%TO.P,J1,10,Pin_10*%
X45720000Y10160000D03*
%TO.P,J1,11,Pin_11*%
X43180000Y12700000D03*
%TO.P,J1,12,Pin_12*%
X43180000Y10160000D03*
%TO.P,J1,13,Pin_13*%
%TO.N,+24V*%
X40640000Y12700000D03*
%TO.P,J1,14,Pin_14*%
X40640000Y10160000D03*
%TO.P,J1,15,Pin_15*%
X38100000Y12700000D03*
%TO.P,J1,16,Pin_16*%
X38100000Y10160000D03*
%TO.P,J1,17,Pin_17*%
X35560000Y12700000D03*
%TO.P,J1,18,Pin_18*%
X35560000Y10160000D03*
%TO.P,J1,19,Pin_19*%
%TO.N,GND1*%
X33020000Y12700000D03*
%TO.P,J1,20,Pin_20*%
X33020000Y10160000D03*
%TO.P,J1,21,Pin_21*%
X30480000Y12700000D03*
%TO.P,J1,22,Pin_22*%
X30480000Y10160000D03*
%TO.P,J1,23,Pin_23*%
X27940000Y12700000D03*
%TO.P,J1,24,Pin_24*%
X27940000Y10160000D03*
%TO.P,J1,25,Pin_25*%
%TO.N,+12V*%
X25400000Y12700000D03*
%TO.P,J1,26,Pin_26*%
X25400000Y10160000D03*
%TO.P,J1,27,Pin_27*%
X22860000Y12700000D03*
%TO.P,J1,28,Pin_28*%
X22860000Y10160000D03*
%TO.P,J1,29,Pin_29*%
X20320000Y12700000D03*
%TO.P,J1,30,Pin_30*%
X20320000Y10160000D03*
%TO.P,J1,31,Pin_31*%
%TO.N,+5V*%
X17780000Y12700000D03*
%TO.P,J1,32,Pin_32*%
X17780000Y10160000D03*
%TO.P,J1,33,Pin_33*%
%TO.N,GND*%
X15240000Y12700000D03*
%TO.P,J1,34,Pin_34*%
X15240000Y10160000D03*
%TO.P,J1,35,Pin_35*%
%TO.N,1*%
X12700000Y12700000D03*
%TO.P,J1,36,Pin_36*%
X12700000Y10160000D03*
%TO.P,J1,37,Pin_37*%
%TO.N,PWM*%
X10160000Y12700000D03*
%TO.P,J1,38,Pin_38*%
X10160000Y10160000D03*
%TO.P,J1,39,Pin_39*%
%TO.N,4*%
X7620000Y12700000D03*
%TO.P,J1,40,Pin_40*%
X7620000Y10160000D03*
%TD*%
D21*
%TO.N,GND1*%
X78740000Y45720000D03*
X30480000Y15240000D03*
X78740000Y12700000D03*
X45720000Y15180000D03*
%TO.N,+5V*%
X33020000Y55880000D03*
X5080000Y55880000D03*
%TO.N,GND*%
X25400000Y33020000D03*
X25400000Y26670000D03*
%TO.N,2'*%
X66040000Y24130000D03*
X59690000Y30480000D03*
%TD*%
D22*
%TO.N,PWM*%
X20320000Y46990000D02*
X22860000Y49530000D01*
X22860000Y49530000D02*
X22860000Y49535000D01*
X20320000Y48260000D02*
X20320000Y46990000D01*
X21585000Y49525000D02*
X20320000Y48260000D01*
X20320000Y46990000D02*
X19055000Y48255000D01*
X22855000Y44455000D02*
X20320000Y46990000D01*
X17780000Y46990000D02*
X17780000Y44450000D01*
X20325000Y49535000D02*
X17780000Y46990000D01*
X22860000Y49535000D02*
X20325000Y49535000D01*
%TO.N,4*%
X36830000Y60960000D02*
X26670000Y60960000D01*
X26670000Y60960000D02*
X21585000Y55875000D01*
X39370000Y58420000D02*
X36830000Y60960000D01*
X39370000Y50800000D02*
X39370000Y58420000D01*
%TO.N,GND*%
X44450000Y57150000D02*
X44450000Y55880000D01*
X34290000Y67310000D02*
X44450000Y57150000D01*
X19050000Y67310000D02*
X34290000Y67310000D01*
%TO.N,1*%
X21738630Y41915000D02*
X22865000Y41915000D01*
X22865000Y41915000D02*
X20320000Y39370000D01*
X35560000Y39370000D02*
X35560000Y36677994D01*
X12695000Y10165000D02*
X12700000Y10160000D01*
X20320000Y36830000D02*
X20320000Y40640000D01*
X29210000Y40640000D02*
X29210000Y34290000D01*
X20320000Y34290000D02*
X12695000Y26665000D01*
X33172006Y34290000D02*
X35560000Y36677994D01*
X27935000Y41915000D02*
X29210000Y40640000D01*
X36830000Y40640000D02*
X35560000Y39370000D01*
X20320000Y36830000D02*
X20320000Y34290000D01*
X22865000Y41915000D02*
X25410000Y41915000D01*
X29210000Y34290000D02*
X33172006Y34290000D01*
X20320000Y39370000D02*
X20320000Y36830000D01*
X39370000Y40640000D02*
X36830000Y40640000D01*
X20320000Y40496370D02*
X21738630Y41915000D01*
X25410000Y41915000D02*
X27935000Y41915000D01*
X12695000Y26665000D02*
X12695000Y10165000D01*
%TO.N,M+*%
X65965000Y2065000D02*
X66760000Y1270000D01*
X60075000Y3175000D02*
X62825000Y3175000D01*
X53105000Y3175000D02*
X55105000Y3175000D01*
X43180000Y10160000D02*
X43180000Y8890000D01*
X50165000Y3115000D02*
X52010000Y1270000D01*
X54670000Y1270000D02*
X54170000Y1270000D01*
X62825000Y2705000D02*
X63465000Y2065000D01*
X62825000Y3175000D02*
X62825000Y2705000D01*
X50165000Y3175000D02*
X49530000Y3810000D01*
X91440000Y64770000D02*
X89535000Y66675000D01*
X56105000Y3175000D02*
X57170000Y2110000D01*
X52010000Y1270000D02*
X46990000Y1270000D01*
X43180000Y3810000D02*
X43180000Y2540000D01*
X43180000Y3810000D02*
X43180000Y8890000D01*
X54170000Y2110000D02*
X54170000Y1270000D01*
X95250000Y55880000D02*
X95250000Y49530000D01*
X95250000Y3810000D02*
X95250000Y1270000D01*
X46990000Y8890000D02*
X48260000Y7620000D01*
X43180000Y2540000D02*
X44450000Y1270000D01*
X81280000Y55880000D02*
X95250000Y55880000D01*
X45085000Y4445000D02*
X44450000Y5080000D01*
X45720000Y12700000D02*
X48260000Y10160000D01*
X89535000Y67945000D02*
X92710000Y64770000D01*
X86360000Y64770000D02*
X88900000Y64770000D01*
X60075000Y3085000D02*
X58260000Y1270000D01*
X43180000Y8890000D02*
X44450000Y7620000D01*
X55105000Y3175000D02*
X56105000Y3175000D01*
X45720000Y2540000D02*
X45720000Y10160000D01*
X89535000Y67945000D02*
X89535000Y70485000D01*
X48260000Y10160000D02*
X48260000Y12700000D01*
X95250000Y5080000D02*
X95250000Y3810000D01*
X46990000Y8890000D02*
X46990000Y1270000D01*
X45720000Y5080000D02*
X45720000Y2540000D01*
X48260000Y2540000D02*
X49660000Y3940000D01*
X88900000Y71120000D02*
X88900000Y64770000D01*
X57855000Y3175000D02*
X60075000Y3175000D01*
X88900000Y71120000D02*
X89535000Y70485000D01*
X48260000Y5080000D02*
X50165000Y3175000D01*
X43180000Y10160000D02*
X48260000Y10160000D01*
X89535000Y66675000D02*
X89535000Y67945000D01*
X48260000Y10160000D02*
X48260000Y5080000D01*
X45720000Y3810000D02*
X45085000Y3175000D01*
X54170000Y1270000D02*
X52010000Y1270000D01*
X94455000Y2065000D02*
X95250000Y1270000D01*
X49660000Y3940000D02*
X94110000Y3940000D01*
X43180000Y10160000D02*
X45720000Y7620000D01*
X43180000Y10160000D02*
X45720000Y12700000D01*
X55105000Y1705000D02*
X55105000Y3175000D01*
X58260000Y1270000D02*
X57170000Y1270000D01*
X60515000Y3175000D02*
X62420000Y1270000D01*
X48260000Y2540000D02*
X48260000Y1270000D01*
X63465000Y2065000D02*
X65965000Y2065000D01*
X54670000Y1270000D02*
X55105000Y1705000D01*
X43180000Y12700000D02*
X43180000Y10160000D01*
X48260000Y3810000D02*
X48260000Y1270000D01*
X81280000Y71120000D02*
X88900000Y71120000D01*
X91440000Y64770000D02*
X92710000Y64770000D01*
X92710000Y64770000D02*
X95250000Y64770000D01*
X45720000Y12700000D02*
X45720000Y10160000D01*
X62420000Y1270000D02*
X58260000Y1270000D01*
X57170000Y1270000D02*
X57170000Y2490000D01*
X44450000Y1270000D02*
X46990000Y1270000D01*
X92710000Y2540000D02*
X95250000Y5080000D01*
X64260000Y1270000D02*
X62420000Y1270000D01*
X92710000Y2540000D02*
X92710000Y1270000D01*
X44450000Y2540000D02*
X45720000Y1270000D01*
X62825000Y3175000D02*
X94615000Y3175000D01*
X57170000Y2490000D02*
X57855000Y3175000D01*
X94615000Y3175000D02*
X95250000Y3810000D01*
X56105000Y3175000D02*
X57855000Y3175000D01*
X53105000Y3175000D02*
X54170000Y2110000D01*
X60075000Y3175000D02*
X60075000Y3085000D01*
X91440000Y68580000D02*
X95250000Y64770000D01*
X44450000Y7620000D02*
X44450000Y5080000D01*
X94110000Y3940000D02*
X95250000Y5080000D01*
X91440000Y68580000D02*
X89535000Y66675000D01*
X65965000Y2065000D02*
X94455000Y2065000D01*
X89535000Y70485000D02*
X91440000Y68580000D01*
X44450000Y5080000D02*
X45720000Y3810000D01*
X43180000Y12700000D02*
X48260000Y12700000D01*
X60075000Y3175000D02*
X60515000Y3175000D01*
X43180000Y12700000D02*
X45720000Y12700000D01*
X45085000Y3175000D02*
X44450000Y2540000D01*
X48260000Y1270000D02*
X50165000Y3175000D01*
X52010000Y1270000D02*
X52010000Y2080000D01*
X57170000Y1270000D02*
X54670000Y1270000D01*
X44450000Y5080000D02*
X43180000Y3810000D01*
X45720000Y10160000D02*
X46990000Y8890000D01*
X95250000Y1270000D02*
X66760000Y1270000D01*
X95250000Y49530000D02*
X95250000Y3810000D01*
X45085000Y3175000D02*
X45085000Y4445000D01*
X50165000Y3175000D02*
X50165000Y3115000D01*
X49530000Y3810000D02*
X48260000Y3810000D01*
X88900000Y64770000D02*
X91440000Y64770000D01*
X50165000Y3175000D02*
X53105000Y3175000D01*
X57170000Y2110000D02*
X57170000Y1270000D01*
X66760000Y1270000D02*
X64260000Y1270000D01*
X86360000Y49530000D02*
X95250000Y49530000D01*
X52010000Y2080000D02*
X53105000Y3175000D01*
X95250000Y64770000D02*
X95250000Y55880000D01*
X43180000Y3810000D02*
X44450000Y2540000D01*
X45720000Y3810000D02*
X45720000Y2540000D01*
X48260000Y5080000D02*
X48260000Y3810000D01*
X63465000Y2065000D02*
X64260000Y1270000D01*
%TO.N,4*%
X7615000Y13975000D02*
X7615000Y13270000D01*
X7615000Y15810000D02*
X7615000Y33015000D01*
X7615000Y15810000D02*
X7615000Y13975000D01*
X21610000Y55875000D02*
X25410000Y52075000D01*
X21585000Y52075000D02*
X22865000Y52075000D01*
X18766573Y52075000D02*
X21585000Y52075000D01*
X22865000Y52075000D02*
X25410000Y52075000D01*
X21585000Y55875000D02*
X21610000Y55875000D01*
X18766573Y52075000D02*
X18766573Y53056573D01*
X7620000Y13970000D02*
X7620000Y10160000D01*
X21610000Y55875000D02*
X22865000Y54620000D01*
X20320000Y53340000D02*
X21585000Y52075000D01*
X18766573Y53056573D02*
X22860000Y57150000D01*
X7615000Y13975000D02*
X7620000Y13970000D01*
X15240000Y48548427D02*
X18766573Y52075000D01*
X21585000Y55875000D02*
X21585000Y52075000D01*
X22865000Y54620000D02*
X22865000Y52075000D01*
X7615000Y33015000D02*
X15240000Y40640000D01*
X15240000Y40640000D02*
X15240000Y48260000D01*
X20320000Y54610000D02*
X21585000Y55875000D01*
X20320000Y54610000D02*
X20320000Y53340000D01*
%TO.N,M-*%
X90170000Y9210000D02*
X90170000Y7940000D01*
X90170000Y19050000D02*
X88900000Y19050000D01*
X88265000Y12065000D02*
X90170000Y13970000D01*
X50800000Y7940000D02*
X50800000Y6670000D01*
X59860000Y9210000D02*
X84770000Y9210000D01*
X90170000Y17780000D02*
X90170000Y15240000D01*
X90170000Y39370000D02*
X90170000Y36830000D01*
X88900000Y19050000D02*
X90170000Y17780000D01*
X88265000Y12065000D02*
X90170000Y10160000D01*
X86360000Y34290000D02*
X88900000Y34290000D01*
X88265000Y12065000D02*
X87365000Y11165000D01*
X81280000Y25400000D02*
X87630000Y25400000D01*
X86360000Y10160000D02*
X85410000Y9210000D01*
X91440000Y41910000D02*
X91440000Y39370000D01*
X88110000Y10420000D02*
X88110000Y9210000D01*
X88900000Y19050000D02*
X90170000Y20320000D01*
X56750000Y11030000D02*
X57340000Y10440000D01*
X58610000Y9210000D02*
X59860000Y9210000D01*
X57340000Y10440000D02*
X57340000Y10190000D01*
X53340000Y12700000D02*
X53340000Y9210000D01*
X92710000Y6670000D02*
X92710000Y40640000D01*
X90170000Y35560000D02*
X90170000Y36830000D01*
X81280000Y39370000D02*
X90170000Y39370000D01*
X56750000Y11030000D02*
X57055000Y11335000D01*
X87365000Y11165000D02*
X86360000Y10160000D01*
X86360000Y10160000D02*
X86360000Y9210000D01*
X90170000Y40640000D02*
X91440000Y39370000D01*
X92710000Y40640000D02*
X91440000Y41910000D01*
X53340000Y12700000D02*
X53340000Y10160000D01*
X86360000Y9210000D02*
X88110000Y9210000D01*
X50800000Y12700000D02*
X55880000Y12700000D01*
X88900000Y34290000D02*
X90170000Y34290000D01*
X87365000Y11165000D02*
X88110000Y10420000D01*
X81280000Y40640000D02*
X90170000Y40640000D01*
X90170000Y33020000D02*
X90170000Y31750000D01*
X55880000Y12700000D02*
X56370000Y12700000D01*
X85090000Y7940000D02*
X90170000Y7940000D01*
X90170000Y6670000D02*
X90170000Y7940000D01*
X57055000Y11335000D02*
X57735000Y11335000D01*
X55880000Y12700000D02*
X55880000Y10160000D01*
X81280000Y41910000D02*
X81280000Y40640000D01*
X84770000Y9210000D02*
X87630000Y9210000D01*
X90170000Y25400000D02*
X90170000Y22860000D01*
X90170000Y13970000D02*
X90170000Y8890000D01*
X50800000Y12700000D02*
X53340000Y10160000D01*
X88900000Y34290000D02*
X90170000Y35560000D01*
X88900000Y34290000D02*
X90170000Y33020000D01*
X50800000Y12700000D02*
X50800000Y6670000D01*
X85410000Y9210000D02*
X84770000Y9210000D01*
X91440000Y39370000D02*
X91440000Y7620000D01*
X91440000Y41910000D02*
X81280000Y41910000D01*
X56370000Y12700000D02*
X57735000Y11335000D01*
X88900000Y19050000D02*
X86360000Y19050000D01*
X90170000Y22860000D02*
X90170000Y20320000D01*
X87630000Y25400000D02*
X90170000Y22860000D01*
X90170000Y31750000D02*
X90170000Y27940000D01*
X53340000Y12700000D02*
X55880000Y10160000D01*
X50800000Y7940000D02*
X85090000Y7940000D01*
X87630000Y25400000D02*
X90170000Y25400000D01*
X90170000Y20320000D02*
X90170000Y19050000D01*
X90170000Y19050000D02*
X90170000Y15240000D01*
X50800000Y12700000D02*
X50800000Y10160000D01*
X55880000Y9210000D02*
X55880000Y6670000D01*
X58320000Y9210000D02*
X58610000Y9210000D01*
X55880000Y10160000D02*
X56750000Y11030000D01*
X88110000Y9210000D02*
X90170000Y9210000D01*
X57340000Y10190000D02*
X58320000Y9210000D01*
X90170000Y34290000D02*
X90170000Y31750000D01*
X81280000Y40640000D02*
X81280000Y39370000D01*
X50800000Y9210000D02*
X50800000Y7940000D01*
X90170000Y6670000D02*
X92710000Y6670000D01*
X90170000Y27940000D02*
X90170000Y25400000D01*
X90170000Y36830000D02*
X90170000Y34290000D01*
X50800000Y9210000D02*
X58610000Y9210000D01*
X86360000Y9210000D02*
X85090000Y7940000D01*
X90170000Y15240000D02*
X90170000Y13970000D01*
X87630000Y25400000D02*
X90170000Y27940000D01*
X50800000Y6670000D02*
X90170000Y6670000D01*
X57735000Y11335000D02*
X59860000Y9210000D01*
X50800000Y10160000D02*
X55880000Y10160000D01*
%TO.N,Net-(Q1-Pad1)*%
X75875000Y36830000D02*
X86360000Y36830000D01*
%TO.N,Net-(Q2-Pad1)*%
X76200000Y67310000D02*
X86360000Y67310000D01*
%TO.N,+12V*%
X20315000Y18350000D02*
X21585000Y19620000D01*
X22855000Y21595000D02*
X22855000Y15810000D01*
X22290000Y19620000D02*
X22290000Y18350000D01*
X21302500Y14257500D02*
X22572500Y14257500D01*
X22860000Y24130000D02*
X22855000Y24125000D01*
X24135000Y21585000D02*
X23495000Y22225000D01*
X22855000Y13975000D02*
X22855000Y13270000D01*
X59700000Y50790000D02*
X57140000Y50790000D01*
X20315000Y15810000D02*
X20315000Y20315000D01*
X20315000Y15810000D02*
X23495000Y18990000D01*
X25395000Y22865000D02*
X25405000Y22865000D01*
X22860000Y24130000D02*
X20315000Y21585000D01*
X22855000Y24125000D02*
X22855000Y22865000D01*
X25395000Y21585000D02*
X24135000Y21585000D01*
X20315000Y15810000D02*
X20315000Y13270000D01*
X59700000Y35550000D02*
X55890000Y35550000D01*
X20315000Y13270000D02*
X25395000Y13270000D01*
X23495000Y20955000D02*
X22855000Y21595000D01*
X24130000Y24130000D02*
X24130000Y22860000D01*
X55880000Y30480000D02*
X54610000Y29210000D01*
X25400000Y10160000D02*
X22860000Y12700000D01*
X20315000Y15810000D02*
X25395000Y15810000D01*
X21585000Y19620000D02*
X22290000Y19620000D01*
X22572500Y14257500D02*
X25400000Y11430000D01*
X25395000Y19055000D02*
X23495000Y20955000D01*
X21302500Y14257500D02*
X22855000Y15810000D01*
X22855000Y13975000D02*
X22860000Y13970000D01*
X54610000Y29210000D02*
X50800000Y29210000D01*
X20955000Y20955000D02*
X22290000Y19620000D01*
X22860000Y13970000D02*
X22860000Y10160000D01*
X22855000Y15810000D02*
X22855000Y13975000D01*
X55890000Y40630000D02*
X55880000Y40640000D01*
X25395000Y15810000D02*
X22855000Y18350000D01*
X23495000Y22225000D02*
X23495000Y20955000D01*
X20320000Y10160000D02*
X24412500Y14252500D01*
X25395000Y17775000D02*
X25395000Y21585000D01*
X25395000Y21585000D02*
X25395000Y22865000D01*
X20955000Y20955000D02*
X22855000Y22855000D01*
X22855000Y15810000D02*
X24412500Y14252500D01*
X59700000Y45710000D02*
X55890000Y45710000D01*
X25395000Y13270000D02*
X25395000Y15810000D01*
X55880000Y45720000D02*
X55880000Y40640000D01*
X22290000Y18350000D02*
X25395000Y18350000D01*
X55880000Y49530000D02*
X55880000Y45720000D01*
X20315000Y15810000D02*
X20320000Y15805000D01*
X20320000Y12700000D02*
X22860000Y10160000D01*
X20315000Y21585000D02*
X20315000Y20315000D01*
X25395000Y17775000D02*
X25395000Y19055000D01*
X20315000Y13270000D02*
X21302500Y14257500D01*
X20320000Y10160000D02*
X25400000Y10160000D01*
X59700000Y40630000D02*
X55890000Y40630000D01*
X55880000Y40640000D02*
X55880000Y35560000D01*
X25395000Y15810000D02*
X25395000Y17775000D01*
X55890000Y35550000D02*
X55880000Y35560000D01*
X25405000Y22865000D02*
X26670000Y24130000D01*
X25395000Y15810000D02*
X25400000Y15805000D01*
X45720000Y24130000D02*
X26670000Y24130000D01*
X55880000Y35560000D02*
X55880000Y30480000D01*
X22855000Y22865000D02*
X23495000Y22225000D01*
X20320000Y15805000D02*
X20320000Y10160000D01*
X55890000Y45710000D02*
X55880000Y45720000D01*
X24130000Y24130000D02*
X22860000Y24130000D01*
X20315000Y20315000D02*
X20955000Y20955000D01*
X20315000Y18350000D02*
X22290000Y18350000D01*
X24130000Y22860000D02*
X23495000Y22225000D01*
X50800000Y29210000D02*
X45720000Y24130000D01*
X24130000Y24130000D02*
X25395000Y22865000D01*
X25400000Y15805000D02*
X25400000Y11430000D01*
X24412500Y14252500D02*
X25395000Y13270000D01*
X26670000Y24130000D02*
X24130000Y24130000D01*
X23495000Y18990000D02*
X23495000Y20955000D01*
X57140000Y50790000D02*
X55880000Y49530000D01*
X25400000Y11430000D02*
X25400000Y10160000D01*
D23*
%TO.N,+24V*%
X38100000Y19050000D02*
X40005000Y17145000D01*
X40640000Y20320000D02*
X38100000Y20320000D01*
D22*
X40640000Y17780000D02*
X36680000Y17780000D01*
X40640000Y12700000D02*
X40640000Y17780000D01*
D23*
X53340000Y20320000D02*
X40640000Y20320000D01*
D22*
X75875000Y31750000D02*
X86360000Y31750000D01*
X38100000Y12700000D02*
X38100000Y15240000D01*
D23*
X75184000Y30480000D02*
X81280000Y30480000D01*
D22*
X81280000Y30480000D02*
X85090000Y30480000D01*
D23*
X71120000Y27940000D02*
X71120000Y31750000D01*
D22*
X71120000Y31750000D02*
X75875000Y31750000D01*
X71755000Y60525000D02*
X71755000Y61595000D01*
X36980000Y15240000D02*
X38100000Y15240000D01*
D23*
X72390000Y30480000D02*
X75184000Y30480000D01*
D22*
X77145000Y30480000D02*
X75875000Y31750000D01*
D23*
X70485000Y27305000D02*
X71120000Y27940000D01*
X71120000Y31750000D02*
X71120000Y34910000D01*
D22*
X35560000Y16660000D02*
X36980000Y15240000D01*
D23*
X38100000Y20320000D02*
X38100000Y19050000D01*
D22*
X81280000Y60960000D02*
X85090000Y60960000D01*
D23*
X67945000Y27305000D02*
X66675000Y27305000D01*
X40005000Y17145000D02*
X40640000Y17780000D01*
X71120000Y31750000D02*
X71755000Y31115000D01*
X38100000Y20320000D02*
X36980000Y19200000D01*
X71120000Y60960000D02*
X71755000Y61595000D01*
D22*
X38100000Y15240000D02*
X40640000Y12700000D01*
X74530000Y31750000D02*
X71370000Y34910000D01*
D23*
X66675000Y27305000D02*
X72009000Y27305000D01*
X70485000Y27305000D02*
X67945000Y27305000D01*
D22*
X85090000Y30480000D02*
X86360000Y31750000D01*
D23*
X36980000Y19200000D02*
X36980000Y15240000D01*
D22*
X35560000Y12700000D02*
X35560000Y16660000D01*
X38100000Y12700000D02*
X40640000Y10160000D01*
X76200000Y62230000D02*
X73125000Y59155000D01*
D23*
X71120000Y35660000D02*
X71120000Y56410000D01*
D22*
X40640000Y12700000D02*
X40640000Y10160000D01*
X73125000Y59155000D02*
X71755000Y60525000D01*
D23*
X74168000Y29464000D02*
X75184000Y30480000D01*
D22*
X35560000Y10160000D02*
X40640000Y10160000D01*
X36680000Y17780000D02*
X36680000Y16660000D01*
X75875000Y31750000D02*
X74530000Y31750000D01*
D23*
X71755000Y61595000D02*
X76835000Y61595000D01*
D22*
X35560000Y12700000D02*
X40640000Y12700000D01*
X73125000Y59155000D02*
X71120000Y57150000D01*
X38100000Y10160000D02*
X40640000Y12700000D01*
X81280000Y30480000D02*
X77145000Y30480000D01*
D23*
X71120000Y27940000D02*
X72644000Y27940000D01*
D22*
X36680000Y17780000D02*
X35560000Y16660000D01*
X71965000Y35660000D02*
X71120000Y35660000D01*
D23*
X72009000Y27305000D02*
X74168000Y29464000D01*
X71755000Y31115000D02*
X72390000Y30480000D01*
X72644000Y27940000D02*
X74168000Y29464000D01*
D22*
X75875000Y31750000D02*
X71965000Y35660000D01*
X76835000Y61595000D02*
X76200000Y62230000D01*
D23*
X71120000Y56410000D02*
X71120000Y60960000D01*
D22*
X81280000Y60960000D02*
X77470000Y60960000D01*
D23*
X66675000Y27305000D02*
X60325000Y27305000D01*
D22*
X38100000Y15240000D02*
X35560000Y12700000D01*
D23*
X67945000Y27305000D02*
X71755000Y31115000D01*
D22*
X35560000Y10160000D02*
X38100000Y10160000D01*
X36680000Y16660000D02*
X38100000Y15240000D01*
D23*
X40640000Y20320000D02*
X40640000Y17780000D01*
D22*
X85090000Y60960000D02*
X86360000Y62230000D01*
X35560000Y10160000D02*
X35560000Y12700000D01*
X77470000Y60960000D02*
X76835000Y61595000D01*
X71120000Y57150000D02*
X71120000Y56410000D01*
X35560000Y12700000D02*
X38100000Y12700000D01*
D23*
X71120000Y34910000D02*
X71120000Y35660000D01*
X38100000Y15240000D02*
X40005000Y17145000D01*
D22*
X38100000Y10160000D02*
X35560000Y12700000D01*
X76200000Y62230000D02*
X86360000Y62230000D01*
D23*
X60325000Y27305000D02*
X53340000Y20320000D01*
D22*
X71370000Y34910000D02*
X71120000Y34910000D01*
D24*
%TO.N,GND1*%
X27940000Y10160000D02*
X31750000Y10160000D01*
D22*
X74930000Y12700000D02*
X76200000Y13970000D01*
X77470000Y12700000D02*
X76200000Y13970000D01*
X82550000Y15240000D02*
X83820000Y15240000D01*
X81280000Y15240000D02*
X82550000Y15240000D01*
X81280000Y15240000D02*
X80010000Y13970000D01*
D24*
X33020000Y10160000D02*
X30480000Y12700000D01*
D22*
X78740000Y12700000D02*
X82550000Y12700000D01*
X83820000Y12700000D02*
X85090000Y12700000D01*
X63500000Y12700000D02*
X74930000Y12700000D01*
X85090000Y13970000D02*
X85090000Y12700000D01*
X78740000Y12700000D02*
X77470000Y12700000D01*
D24*
X27940000Y12700000D02*
X30480000Y10160000D01*
D22*
X80010000Y13970000D02*
X82550000Y13970000D01*
X80010000Y13970000D02*
X78740000Y12700000D01*
X77470000Y45720000D02*
X76200000Y46990000D01*
X81280000Y45720000D02*
X78740000Y45720000D01*
X81280000Y45720000D02*
X85090000Y45720000D01*
X77470000Y16510000D02*
X86360000Y16510000D01*
X82550000Y15240000D02*
X82550000Y12700000D01*
X86360000Y13970000D02*
X86360000Y16510000D01*
X83820000Y15240000D02*
X85090000Y13970000D01*
D24*
X33020000Y12700000D02*
X33020000Y10160000D01*
D22*
X83820000Y12700000D02*
X83820000Y15240000D01*
X85090000Y45720000D02*
X86360000Y46990000D01*
X77470000Y13970000D02*
X78105000Y13335000D01*
X83820000Y15240000D02*
X85090000Y15240000D01*
X45720000Y15180000D02*
X61020000Y15180000D01*
X80010000Y13970000D02*
X78740000Y13970000D01*
X82550000Y12700000D02*
X83820000Y12700000D01*
X76200000Y13970000D02*
X76200000Y16510000D01*
X77470000Y12700000D02*
X74930000Y12700000D01*
X85090000Y15240000D02*
X86360000Y16510000D01*
X77470000Y15240000D02*
X77470000Y13970000D01*
X81280000Y45720000D02*
X83820000Y45720000D01*
D24*
X27940000Y12700000D02*
X33020000Y12700000D01*
X30480000Y12700000D02*
X27940000Y10160000D01*
D22*
X61020000Y15180000D02*
X63500000Y12700000D01*
X83820000Y45720000D02*
X85090000Y46990000D01*
X77470000Y15240000D02*
X81280000Y15240000D01*
X85090000Y46990000D02*
X86360000Y46990000D01*
X76200000Y46990000D02*
X85090000Y46990000D01*
D24*
X30480000Y10160000D02*
X31750000Y10160000D01*
D22*
X81280000Y15240000D02*
X78740000Y12700000D01*
D24*
X27940000Y12700000D02*
X27940000Y10160000D01*
D22*
X78105000Y13335000D02*
X78740000Y12700000D01*
X78740000Y45720000D02*
X77470000Y45720000D01*
X82550000Y12700000D02*
X82550000Y13970000D01*
X76200000Y16510000D02*
X77470000Y16510000D01*
X78740000Y13970000D02*
X78105000Y13335000D01*
X82550000Y13970000D02*
X81280000Y15240000D01*
X77470000Y16510000D02*
X77470000Y15240000D01*
D24*
X31750000Y10160000D02*
X33020000Y10160000D01*
D22*
X85090000Y12700000D02*
X86360000Y13970000D01*
%TO.N,Net-(Q3-Pad1)*%
X76200000Y21590000D02*
X86360000Y21590000D01*
%TO.N,+5V*%
X2540000Y10160000D02*
X2540000Y13970000D01*
X17780000Y12700000D02*
X17780000Y10160000D01*
X17780000Y6350000D02*
X6350000Y6350000D01*
X17780000Y10160000D02*
X17780000Y6350000D01*
X33030000Y52075000D02*
X33030000Y55870000D01*
X2540000Y54610000D02*
X3810000Y55880000D01*
X6350000Y6350000D02*
X2540000Y10160000D01*
X2540000Y12700000D02*
X2540000Y13970000D01*
X33020000Y55880000D02*
X33030000Y55870000D01*
X3810000Y55880000D02*
X5080000Y55880000D01*
X2540000Y15240000D02*
X2540000Y54610000D01*
X2540000Y13970000D02*
X2540000Y15240000D01*
X5080000Y55880000D02*
X6350000Y55880000D01*
%TO.N,GND*%
X45720000Y54610000D02*
X46980000Y53350000D01*
X47000000Y43170000D02*
X46980000Y43170000D01*
X52080000Y43170000D02*
X47000000Y43170000D01*
X46355000Y31115000D02*
X44450000Y33020000D01*
X25400000Y35560000D02*
X25400000Y33020000D01*
X47000000Y43170000D02*
X44460000Y43170000D01*
X45720000Y54610000D02*
X45720000Y46990000D01*
X44450000Y45720000D02*
X44450000Y55880000D01*
X18257283Y26670000D02*
X15235000Y23647717D01*
X45720000Y46990000D02*
X44450000Y45720000D01*
X25410000Y36835000D02*
X25410000Y35570000D01*
X44460000Y33010000D02*
X44450000Y33020000D01*
X46980000Y43170000D02*
X44450000Y40640000D01*
X52080000Y38090000D02*
X46980000Y38090000D01*
X15235000Y10165000D02*
X15240000Y10160000D01*
X52080000Y33010000D02*
X48270000Y33010000D01*
X6350000Y67310000D02*
X19050000Y67310000D01*
X25400000Y26670000D02*
X18257283Y26670000D01*
X44450000Y29210000D02*
X41910000Y26670000D01*
X48270000Y33010000D02*
X44460000Y33010000D01*
X44450000Y40640000D02*
X44450000Y38100000D01*
X48250000Y33010000D02*
X48270000Y33010000D01*
X41910000Y26670000D02*
X25400000Y26670000D01*
X44460000Y43170000D02*
X44450000Y43180000D01*
X46980000Y48250000D02*
X45720000Y46990000D01*
X15235000Y23647717D02*
X15235000Y10165000D01*
X44450000Y29210000D02*
X46355000Y31115000D01*
X52080000Y48250000D02*
X46980000Y48250000D01*
X46355000Y31115000D02*
X48250000Y33010000D01*
X44460000Y38090000D02*
X44450000Y38100000D01*
X44450000Y45720000D02*
X44450000Y43180000D01*
X46980000Y38090000D02*
X44450000Y35560000D01*
X44450000Y43180000D02*
X44450000Y40640000D01*
X46980000Y53350000D02*
X46980000Y48250000D01*
X44450000Y33020000D02*
X44450000Y29210000D01*
X44450000Y35560000D02*
X44450000Y33020000D01*
X46980000Y38090000D02*
X44460000Y38090000D01*
X44450000Y55880000D02*
X45720000Y54610000D01*
X44450000Y38100000D02*
X44450000Y35560000D01*
X25410000Y35570000D02*
X25400000Y35560000D01*
%TO.N,Net-(Q4-Pad1)*%
X76200000Y52070000D02*
X86360000Y52070000D01*
%TO.N,PWM*%
X20320000Y45720000D02*
X20320000Y44450000D01*
X17785000Y44455000D02*
X17780000Y44450000D01*
X17780000Y36830000D02*
X10155000Y29205000D01*
X17780000Y41910000D02*
X20320000Y44450000D01*
X19050000Y46990000D02*
X19050000Y44460000D01*
X20325000Y44455000D02*
X19045000Y44455000D01*
X19050000Y46990000D02*
X20320000Y45720000D01*
X19045000Y44455000D02*
X17785000Y44455000D01*
X10155000Y10165000D02*
X10160000Y10160000D01*
X17780000Y41910000D02*
X17780000Y36830000D01*
X10155000Y29205000D02*
X10155000Y10165000D01*
X19050000Y44460000D02*
X19045000Y44455000D01*
X25410000Y49535000D02*
X21585000Y49535000D01*
X22855000Y44455000D02*
X20325000Y44455000D01*
X21585000Y49525000D02*
X21585000Y49535000D01*
X17780000Y44450000D02*
X17780000Y41910000D01*
X25410000Y44455000D02*
X22855000Y44455000D01*
X19050000Y46990000D02*
X19050000Y45730000D01*
%TO.N,1'*%
X64445000Y38100000D02*
X59710000Y38100000D01*
X65715000Y36830000D02*
X65715000Y31750000D01*
X65715000Y36830000D02*
X64445000Y38100000D01*
X59710000Y38100000D02*
X59700000Y38090000D01*
%TO.N,4'*%
X62230000Y49530000D02*
X60950000Y48250000D01*
X66040000Y62230000D02*
X66040000Y58420000D01*
X66040000Y58420000D02*
X62230000Y54610000D01*
X60950000Y48250000D02*
X59700000Y48250000D01*
X66040000Y67310000D02*
X66040000Y62230000D01*
X62230000Y54610000D02*
X62230000Y49530000D01*
%TO.N,2'*%
X59700000Y30490000D02*
X59700000Y33010000D01*
X66040000Y16510000D02*
X66040000Y21590000D01*
X59690000Y30480000D02*
X59700000Y30490000D01*
X66040000Y21590000D02*
X66040000Y24130000D01*
%TO.N,3'*%
X66040000Y52070000D02*
X66040000Y46990000D01*
X66040000Y46990000D02*
X62220000Y43170000D01*
X62220000Y43170000D02*
X59700000Y43170000D01*
%TO.N,2*%
X24135000Y39375000D02*
X22860000Y38100000D01*
X22860000Y30480000D02*
X36830000Y30480000D01*
X25410000Y39375000D02*
X24135000Y39375000D01*
X39370000Y33020000D02*
X39370000Y35560000D01*
X36830000Y30480000D02*
X39370000Y33020000D01*
X22860000Y38100000D02*
X22860000Y30480000D01*
%TO.N,3*%
X35560000Y58420000D02*
X35560000Y46990000D01*
X30480000Y58420000D02*
X35560000Y58420000D01*
X27940000Y46990000D02*
X29210000Y48260000D01*
X36830000Y45720000D02*
X39370000Y45720000D01*
X25410000Y46995000D02*
X27935000Y46995000D01*
X29210000Y48260000D02*
X29210000Y57150000D01*
X29210000Y57150000D02*
X30480000Y58420000D01*
X35560000Y46990000D02*
X36830000Y45720000D01*
X27935000Y46995000D02*
X27940000Y46990000D01*
%TO.N,Net-(D1-Pad2)*%
X6350000Y64770000D02*
X8890000Y62230000D01*
X7620000Y40640000D02*
X10160000Y40640000D01*
X6350000Y46990000D02*
X6350000Y41910000D01*
X8890000Y62230000D02*
X8890000Y49530000D01*
X6350000Y41910000D02*
X7620000Y40640000D01*
X8890000Y49530000D02*
X6350000Y46990000D01*
%TO.N,Net-(D2-Pad2)*%
X12700000Y49530000D02*
X10160000Y46990000D01*
X12700000Y64770000D02*
X12700000Y49530000D01*
X10160000Y46990000D02*
X10160000Y44450000D01*
%TO.N,Net-(D3-Pad2)*%
X17780000Y58420000D02*
X19050000Y59690000D01*
X15240000Y58420000D02*
X17780000Y58420000D01*
X19050000Y59690000D02*
X19050000Y64770000D01*
%TO.N,Net-(R6-Pad2)*%
X49530000Y45720000D02*
X52070000Y45720000D01*
X52070000Y45720000D02*
X52080000Y45710000D01*
%TO.N,Net-(R7-Pad2)*%
X52070000Y50800000D02*
X52080000Y50790000D01*
X49530000Y50800000D02*
X52070000Y50800000D01*
%TO.N,Net-(R4-Pad2)*%
X52070000Y40640000D02*
X52080000Y40630000D01*
X49530000Y40640000D02*
X52070000Y40640000D01*
%TO.N,Net-(R5-Pad2)*%
X52070000Y35560000D02*
X52080000Y35550000D01*
X49530000Y35560000D02*
X52070000Y35560000D01*
%TD*%
%TA.AperFunction,Conductor*%
%TO.N,GND1*%
G36*
X95953621Y73131498D02*
G01*
X96000114Y73077842D01*
X96011500Y73025500D01*
X96011500Y66304610D01*
X95991498Y66236489D01*
X95937842Y66189996D01*
X95867568Y66179892D01*
X95802988Y66209386D01*
X95796405Y66215515D01*
X92507726Y69504194D01*
X92496792Y69516672D01*
X92488783Y69527128D01*
X92485537Y69531366D01*
X92481621Y69534999D01*
X92418399Y69593646D01*
X92414994Y69596926D01*
X90544685Y71467235D01*
X90542610Y71469358D01*
X90475353Y71539861D01*
X90471674Y71543718D01*
X90465486Y71548322D01*
X90451604Y71560316D01*
X89934636Y72077284D01*
X89928565Y72083799D01*
X89889007Y72129386D01*
X89889005Y72129388D01*
X89885507Y72133419D01*
X89865664Y72149689D01*
X89854384Y72160153D01*
X89840361Y72174853D01*
X89836674Y72178718D01*
X89778406Y72222071D01*
X89772380Y72226848D01*
X89720939Y72270242D01*
X89720931Y72270248D01*
X89716855Y72273686D01*
X89712255Y72276391D01*
X89708555Y72279010D01*
X89704792Y72281596D01*
X89700667Y72284978D01*
X89696026Y72287620D01*
X89678371Y72297670D01*
X89665499Y72306076D01*
X89644900Y72321402D01*
X89580153Y72354320D01*
X89573406Y72358015D01*
X89515400Y72392115D01*
X89515397Y72392116D01*
X89510793Y72394823D01*
X89505796Y72396716D01*
X89501639Y72398708D01*
X89497570Y72400588D01*
X89492934Y72403227D01*
X89468807Y72411985D01*
X89454699Y72418105D01*
X89450372Y72420305D01*
X89431828Y72429733D01*
X89426737Y72431314D01*
X89426734Y72431315D01*
X89362461Y72451272D01*
X89355184Y72453778D01*
X89337477Y72460487D01*
X89287266Y72479510D01*
X89282026Y72480533D01*
X89277665Y72481776D01*
X89273261Y72482964D01*
X89268247Y72484784D01*
X89263000Y72485733D01*
X89262992Y72485735D01*
X89242997Y72489350D01*
X89228064Y72493004D01*
X89203548Y72500616D01*
X89131537Y72510161D01*
X89123952Y72511403D01*
X89086801Y72518658D01*
X89057901Y72524302D01*
X89057900Y72524302D01*
X89052667Y72525324D01*
X89047335Y72525449D01*
X89042027Y72526026D01*
X89042068Y72526403D01*
X89041290Y72526482D01*
X89041248Y72526110D01*
X89037120Y72526578D01*
X89033031Y72527318D01*
X89028877Y72527514D01*
X89028876Y72527514D01*
X89009456Y72528430D01*
X89009449Y72528430D01*
X89007968Y72528500D01*
X89001486Y72528500D01*
X88984930Y72529592D01*
X88971872Y72531323D01*
X88971869Y72531323D01*
X88966589Y72532023D01*
X88961260Y72531823D01*
X88961258Y72531823D01*
X88894008Y72529298D01*
X88886313Y72529244D01*
X88840458Y72530324D01*
X88813702Y72530955D01*
X88807411Y72530032D01*
X88806077Y72529836D01*
X88787780Y72528500D01*
X82095551Y72528500D01*
X82029715Y72547068D01*
X82016725Y72555028D01*
X82012502Y72557616D01*
X82007932Y72559509D01*
X82007928Y72559511D01*
X81783164Y72652611D01*
X81783162Y72652612D01*
X81778591Y72654505D01*
X81693968Y72674821D01*
X81537216Y72712454D01*
X81537210Y72712455D01*
X81532403Y72713609D01*
X81280000Y72733474D01*
X81027597Y72713609D01*
X81022790Y72712455D01*
X81022784Y72712454D01*
X80866032Y72674821D01*
X80781409Y72654505D01*
X80776838Y72652612D01*
X80776836Y72652611D01*
X80552072Y72559511D01*
X80552068Y72559509D01*
X80547498Y72557616D01*
X80331624Y72425328D01*
X80139102Y72260898D01*
X79974672Y72068376D01*
X79842384Y71852502D01*
X79745495Y71618591D01*
X79744340Y71613779D01*
X79709668Y71469358D01*
X79686391Y71372403D01*
X79666526Y71120000D01*
X79686391Y70867597D01*
X79745495Y70621409D01*
X79842384Y70387498D01*
X79974672Y70171624D01*
X80139102Y69979102D01*
X80331624Y69814672D01*
X80547498Y69682384D01*
X80552068Y69680491D01*
X80552072Y69680489D01*
X80776836Y69587389D01*
X80781409Y69585495D01*
X80866032Y69565179D01*
X81022784Y69527546D01*
X81022790Y69527545D01*
X81027597Y69526391D01*
X81280000Y69506526D01*
X81532403Y69526391D01*
X81537210Y69527545D01*
X81537216Y69527546D01*
X81693968Y69565179D01*
X81778591Y69585495D01*
X81783164Y69587389D01*
X82007928Y69680489D01*
X82007932Y69680491D01*
X82012502Y69682384D01*
X82029715Y69692932D01*
X82095551Y69711500D01*
X87365500Y69711500D01*
X87433621Y69691498D01*
X87480114Y69637842D01*
X87491500Y69585500D01*
X87491500Y68897000D01*
X87471498Y68828879D01*
X87417842Y68782386D01*
X87365500Y68771000D01*
X85311866Y68771000D01*
X85308469Y68770631D01*
X85257534Y68765098D01*
X85257532Y68765098D01*
X85249684Y68764245D01*
X85242291Y68761473D01*
X85242289Y68761473D01*
X85149047Y68726518D01*
X85104818Y68718500D01*
X76139988Y68718500D01*
X75961825Y68703383D01*
X75956661Y68702043D01*
X75956657Y68702042D01*
X75735625Y68644673D01*
X75735620Y68644671D01*
X75730460Y68643332D01*
X75725594Y68641140D01*
X75517381Y68547347D01*
X75517378Y68547346D01*
X75512520Y68545157D01*
X75314238Y68411666D01*
X75310381Y68407987D01*
X75310379Y68407985D01*
X75269217Y68368718D01*
X75141282Y68246674D01*
X74998598Y68054900D01*
X74996182Y68050149D01*
X74996180Y68050145D01*
X74923695Y67907577D01*
X74890267Y67841828D01*
X74872437Y67784406D01*
X74820968Y67618651D01*
X74820967Y67618645D01*
X74819384Y67613548D01*
X74810014Y67542855D01*
X74793659Y67419456D01*
X74787977Y67376589D01*
X74796945Y67137726D01*
X74846030Y66903789D01*
X74933829Y66681467D01*
X75057832Y66477117D01*
X75061329Y66473087D01*
X75207526Y66304610D01*
X75214493Y66296581D01*
X75218619Y66293198D01*
X75218623Y66293194D01*
X75313360Y66215515D01*
X75399333Y66145022D01*
X75403969Y66142383D01*
X75403972Y66142381D01*
X75559377Y66053919D01*
X75607066Y66026773D01*
X75831753Y65945216D01*
X75837002Y65944267D01*
X75837005Y65944266D01*
X76062885Y65903420D01*
X76062893Y65903419D01*
X76066969Y65902682D01*
X76085359Y65901815D01*
X76090544Y65901570D01*
X76090551Y65901570D01*
X76092032Y65901500D01*
X85084265Y65901500D01*
X85152386Y65881498D01*
X85198879Y65827842D01*
X85208983Y65757568D01*
X85183147Y65697408D01*
X85094633Y65585330D01*
X85094630Y65585325D01*
X85091432Y65581276D01*
X85088939Y65576760D01*
X85088937Y65576757D01*
X84977823Y65375474D01*
X84975326Y65370950D01*
X84973602Y65366081D01*
X84973600Y65366077D01*
X84896856Y65149360D01*
X84895130Y65144485D01*
X84894223Y65139392D01*
X84894222Y65139389D01*
X84864824Y64974347D01*
X84852999Y64907963D01*
X84852321Y64852467D01*
X84850179Y64677109D01*
X84850064Y64667737D01*
X84886404Y64430256D01*
X84911848Y64352410D01*
X84959434Y64206817D01*
X84959437Y64206811D01*
X84961042Y64201899D01*
X84963429Y64197313D01*
X84963431Y64197309D01*
X85034412Y64060957D01*
X85071975Y63988800D01*
X85075085Y63984658D01*
X85183582Y63840153D01*
X85208488Y63773668D01*
X85193496Y63704272D01*
X85143365Y63653999D01*
X85082822Y63638500D01*
X76254681Y63638500D01*
X76245782Y63638815D01*
X76185591Y63643077D01*
X76185588Y63643077D01*
X76180263Y63643454D01*
X76172463Y63642682D01*
X76154724Y63640928D01*
X76139355Y63640351D01*
X76124786Y63640694D01*
X76113702Y63640955D01*
X76108423Y63640180D01*
X76108420Y63640180D01*
X76086670Y63636987D01*
X76041843Y63630408D01*
X76034223Y63629526D01*
X75961825Y63623383D01*
X75956655Y63622041D01*
X75952203Y63621280D01*
X75947706Y63620447D01*
X75942393Y63619921D01*
X75920662Y63613956D01*
X75917645Y63613128D01*
X75902593Y63609970D01*
X75882483Y63607018D01*
X75882482Y63607018D01*
X75877204Y63606243D01*
X75877194Y63606311D01*
X75852906Y63603500D01*
X71810909Y63603500D01*
X71804315Y63603673D01*
X71724259Y63607869D01*
X71724253Y63607869D01*
X71719862Y63608099D01*
X71715485Y63607716D01*
X71715482Y63607716D01*
X71598454Y63597477D01*
X71596261Y63597305D01*
X71479173Y63589118D01*
X71479168Y63589117D01*
X71474788Y63588811D01*
X71465107Y63586753D01*
X71449900Y63584481D01*
X71444425Y63584002D01*
X71444412Y63584000D01*
X71440034Y63583617D01*
X71367341Y63566834D01*
X71321326Y63556211D01*
X71319179Y63555735D01*
X71261952Y63543571D01*
X71200030Y63530409D01*
X71195898Y63528905D01*
X71190728Y63527024D01*
X71175982Y63522656D01*
X71170624Y63521419D01*
X71170619Y63521418D01*
X71166337Y63520429D01*
X71052571Y63476759D01*
X71050571Y63476011D01*
X70936074Y63434337D01*
X70927336Y63429691D01*
X70913333Y63423310D01*
X70908210Y63421344D01*
X70908203Y63421341D01*
X70904098Y63419765D01*
X70797479Y63360664D01*
X70795612Y63359652D01*
X70691942Y63304530D01*
X70691933Y63304524D01*
X70688058Y63302464D01*
X70684501Y63299879D01*
X70684495Y63299876D01*
X70680047Y63296645D01*
X70667074Y63288380D01*
X70658421Y63283583D01*
X70565145Y63213295D01*
X70561169Y63210299D01*
X70559415Y63209001D01*
X70503689Y63168513D01*
X70479150Y63150684D01*
X70460808Y63137358D01*
X70454847Y63131602D01*
X70453680Y63130475D01*
X70441988Y63120490D01*
X70437607Y63117188D01*
X70434088Y63114536D01*
X70348012Y63028460D01*
X70346444Y63026918D01*
X70258748Y62942231D01*
X70252831Y62934658D01*
X70252647Y62934422D01*
X70242452Y62922900D01*
X69739317Y62419765D01*
X69734533Y62415224D01*
X69671678Y62358629D01*
X69593376Y62265313D01*
X69591965Y62263661D01*
X69512023Y62171697D01*
X69509629Y62168011D01*
X69509624Y62168004D01*
X69506632Y62163397D01*
X69497488Y62151039D01*
X69493953Y62146826D01*
X69493948Y62146819D01*
X69491121Y62143450D01*
X69462222Y62097201D01*
X69426580Y62040162D01*
X69425399Y62038307D01*
X69359036Y61936118D01*
X69357173Y61932124D01*
X69357173Y61932123D01*
X69354850Y61927143D01*
X69347518Y61913637D01*
X69342269Y61905236D01*
X69340483Y61901224D01*
X69340479Y61901217D01*
X69292729Y61793968D01*
X69291817Y61791967D01*
X69240324Y61681540D01*
X69239039Y61677338D01*
X69239039Y61677337D01*
X69237430Y61672073D01*
X69232042Y61657663D01*
X69228018Y61648625D01*
X69222405Y61629050D01*
X69194435Y61531505D01*
X69193817Y61529417D01*
X69158199Y61412917D01*
X69156650Y61403135D01*
X69153320Y61388121D01*
X69150593Y61378610D01*
X69149981Y61374257D01*
X69149980Y61374251D01*
X69133646Y61258022D01*
X69133321Y61255846D01*
X69114256Y61135480D01*
X69114179Y61131084D01*
X69114179Y61131080D01*
X69114083Y61125570D01*
X69112876Y61110240D01*
X69111500Y61100448D01*
X69111500Y60978688D01*
X69111481Y60976490D01*
X69109354Y60854626D01*
X69109889Y60850270D01*
X69109889Y60850267D01*
X69110561Y60844796D01*
X69111500Y60829440D01*
X69111500Y31805895D01*
X69111327Y31799301D01*
X69109931Y31772653D01*
X69106902Y31714862D01*
X69107285Y31710485D01*
X69107285Y31710481D01*
X69111021Y31667780D01*
X69111500Y31656799D01*
X69111500Y31364138D01*
X69091498Y31296017D01*
X69074595Y31275043D01*
X67149957Y29350405D01*
X67087645Y29316379D01*
X67060862Y29313500D01*
X60823069Y29313500D01*
X60754948Y29333502D01*
X60708455Y29387158D01*
X60698351Y29457432D01*
X60725634Y29519390D01*
X60745260Y29543326D01*
X60782415Y29588640D01*
X60783487Y29589929D01*
X60783863Y29590374D01*
X60853686Y29673144D01*
X60856394Y29677751D01*
X60858980Y29681403D01*
X60861595Y29685207D01*
X60864978Y29689333D01*
X60867614Y29693963D01*
X60867617Y29693968D01*
X60918788Y29783862D01*
X60919668Y29785383D01*
X60972119Y29874607D01*
X60972120Y29874608D01*
X60974823Y29879207D01*
X60976714Y29884198D01*
X60978696Y29888335D01*
X60980588Y29892429D01*
X60983227Y29897066D01*
X61020348Y29999334D01*
X61020960Y30000984D01*
X61038498Y30047274D01*
X61059510Y30102734D01*
X61060533Y30107974D01*
X61061776Y30112335D01*
X61062964Y30116739D01*
X61064784Y30121753D01*
X61070278Y30152132D01*
X61084137Y30228774D01*
X61084462Y30230502D01*
X61104302Y30332096D01*
X61104303Y30332104D01*
X61105324Y30337333D01*
X61105449Y30342663D01*
X61106026Y30347973D01*
X61106403Y30347932D01*
X61106482Y30348710D01*
X61106110Y30348752D01*
X61106578Y30352880D01*
X61107318Y30356969D01*
X61107514Y30361124D01*
X61108430Y30380544D01*
X61108430Y30380551D01*
X61108500Y30382032D01*
X61108500Y30470631D01*
X61108535Y30473599D01*
X61109967Y30534386D01*
X61110955Y30576298D01*
X61109836Y30583923D01*
X61108500Y30602220D01*
X61108500Y33070012D01*
X61093383Y33248175D01*
X61092042Y33253343D01*
X61034673Y33474375D01*
X61034671Y33474380D01*
X61033332Y33479540D01*
X60979926Y33598096D01*
X60937347Y33692619D01*
X60937346Y33692622D01*
X60935157Y33697480D01*
X60801666Y33895762D01*
X60636674Y34068718D01*
X60487409Y34179774D01*
X60444697Y34236483D01*
X60439424Y34307283D01*
X60473266Y34369695D01*
X60492256Y34385382D01*
X60541448Y34418500D01*
X60585762Y34448334D01*
X60641195Y34501214D01*
X60688751Y34546581D01*
X60758718Y34613326D01*
X60901402Y34805100D01*
X60917375Y34836515D01*
X61007314Y35013414D01*
X61007314Y35013415D01*
X61009733Y35018172D01*
X61071598Y35217408D01*
X61079032Y35241349D01*
X61079033Y35241355D01*
X61080616Y35246452D01*
X61103817Y35421500D01*
X61111323Y35478127D01*
X61111323Y35478131D01*
X61112023Y35483411D01*
X61109689Y35545591D01*
X61107262Y35610231D01*
X61103055Y35722274D01*
X61062912Y35913595D01*
X61055067Y35950984D01*
X61055066Y35950987D01*
X61053970Y35956211D01*
X60966171Y36178533D01*
X60842168Y36382883D01*
X60838676Y36386907D01*
X60838671Y36386914D01*
X60755361Y36482919D01*
X60725821Y36547479D01*
X60735875Y36617760D01*
X60782329Y36671449D01*
X60850526Y36691500D01*
X63809390Y36691500D01*
X63877511Y36671498D01*
X63898485Y36654595D01*
X64269595Y36283485D01*
X64303621Y36221173D01*
X64306500Y36194390D01*
X64306500Y31689988D01*
X64321617Y31511825D01*
X64322957Y31506661D01*
X64322958Y31506657D01*
X64358262Y31370640D01*
X64381668Y31280460D01*
X64383860Y31275594D01*
X64455928Y31115610D01*
X64479843Y31062520D01*
X64613334Y30864238D01*
X64778326Y30691282D01*
X64970100Y30548598D01*
X64974851Y30546182D01*
X64974855Y30546180D01*
X65173554Y30445157D01*
X65183172Y30440267D01*
X65256993Y30417345D01*
X65406349Y30370968D01*
X65406355Y30370967D01*
X65411452Y30369384D01*
X65538883Y30352494D01*
X65643127Y30338677D01*
X65643131Y30338677D01*
X65648411Y30337977D01*
X65653740Y30338177D01*
X65653741Y30338177D01*
X65751509Y30341848D01*
X65887274Y30346945D01*
X65974184Y30365181D01*
X66115984Y30394933D01*
X66115987Y30394934D01*
X66121211Y30396030D01*
X66343533Y30483829D01*
X66547883Y30607832D01*
X66728419Y30764493D01*
X66731802Y30768619D01*
X66731806Y30768623D01*
X66871279Y30938724D01*
X66879978Y30949333D01*
X66998227Y31157066D01*
X67079784Y31381753D01*
X67080734Y31387005D01*
X67121580Y31612885D01*
X67121581Y31612893D01*
X67122318Y31616969D01*
X67123500Y31642032D01*
X67123500Y36775319D01*
X67123815Y36784218D01*
X67128077Y36844409D01*
X67128077Y36844412D01*
X67128454Y36849737D01*
X67122294Y36912007D01*
X67117746Y36957979D01*
X67117585Y36959730D01*
X67111439Y37032158D01*
X67108383Y37068175D01*
X67107041Y37073345D01*
X67106275Y37077826D01*
X67105446Y37082298D01*
X67104921Y37087607D01*
X67076111Y37192558D01*
X67075672Y37194202D01*
X67051009Y37289225D01*
X67048332Y37299540D01*
X67046138Y37304409D01*
X67044616Y37308732D01*
X67043058Y37312966D01*
X67041646Y37318111D01*
X66995583Y37416669D01*
X66994851Y37418263D01*
X66950157Y37517480D01*
X66947177Y37521907D01*
X66944963Y37525885D01*
X66942696Y37529827D01*
X66940438Y37534658D01*
X66937399Y37539038D01*
X66937396Y37539044D01*
X66878446Y37624018D01*
X66877452Y37625472D01*
X66819647Y37711334D01*
X66816666Y37715762D01*
X66812980Y37719626D01*
X66809640Y37723780D01*
X66809885Y37723977D01*
X66809384Y37724591D01*
X66809142Y37724399D01*
X66806559Y37727644D01*
X66804191Y37731057D01*
X66801396Y37734129D01*
X66788311Y37748510D01*
X66788299Y37748522D01*
X66787305Y37749615D01*
X66724685Y37812235D01*
X66722610Y37814358D01*
X66693992Y37844357D01*
X66651674Y37888718D01*
X66645486Y37893322D01*
X66631604Y37905316D01*
X65479636Y39057284D01*
X65473565Y39063799D01*
X65434007Y39109386D01*
X65434005Y39109388D01*
X65430507Y39113419D01*
X65426381Y39116802D01*
X65426377Y39116806D01*
X65367507Y39165076D01*
X65346360Y39182416D01*
X65345108Y39183457D01*
X65291568Y39228621D01*
X65265931Y39250248D01*
X65265928Y39250250D01*
X65261855Y39253686D01*
X65257257Y39256389D01*
X65253537Y39259023D01*
X65249784Y39261602D01*
X65245667Y39264978D01*
X65241043Y39267610D01*
X65241036Y39267615D01*
X65151102Y39318808D01*
X65149629Y39319660D01*
X65067602Y39367881D01*
X65060400Y39372115D01*
X65060397Y39372116D01*
X65055793Y39374823D01*
X65050796Y39376716D01*
X65046639Y39378708D01*
X65042571Y39380588D01*
X65037934Y39383227D01*
X64935666Y39420348D01*
X64934016Y39420960D01*
X64878820Y39441872D01*
X64832266Y39459510D01*
X64827026Y39460533D01*
X64822665Y39461776D01*
X64818261Y39462964D01*
X64813247Y39464784D01*
X64807998Y39465733D01*
X64807995Y39465734D01*
X64706226Y39484137D01*
X64704498Y39484462D01*
X64602904Y39504302D01*
X64602896Y39504303D01*
X64597667Y39505324D01*
X64592337Y39505449D01*
X64587027Y39506026D01*
X64587068Y39506403D01*
X64586290Y39506482D01*
X64586248Y39506110D01*
X64582120Y39506578D01*
X64578031Y39507318D01*
X64573877Y39507514D01*
X64573876Y39507514D01*
X64554456Y39508430D01*
X64554449Y39508430D01*
X64552968Y39508500D01*
X64464369Y39508500D01*
X64461401Y39508535D01*
X64458493Y39508604D01*
X64358702Y39510955D01*
X64352411Y39510032D01*
X64351077Y39509836D01*
X64332780Y39508500D01*
X60871999Y39508500D01*
X60803878Y39528502D01*
X60757385Y39582158D01*
X60747281Y39652432D01*
X60770910Y39709713D01*
X60824594Y39781866D01*
X60901402Y39885100D01*
X60904039Y39890285D01*
X61007314Y40093414D01*
X61007314Y40093415D01*
X61009733Y40098172D01*
X61063105Y40270058D01*
X61079032Y40321349D01*
X61079033Y40321355D01*
X61080616Y40326452D01*
X61099341Y40467726D01*
X61111323Y40558127D01*
X61111323Y40558131D01*
X61112023Y40563411D01*
X61111448Y40578741D01*
X61107262Y40690231D01*
X61103055Y40802274D01*
X61080703Y40908802D01*
X61055067Y41030984D01*
X61055066Y41030987D01*
X61053970Y41036211D01*
X60966171Y41258533D01*
X60842168Y41462883D01*
X60833491Y41472883D01*
X60764038Y41552920D01*
X60734499Y41617479D01*
X60744553Y41687761D01*
X60791008Y41741449D01*
X60859204Y41761500D01*
X62165319Y41761500D01*
X62174218Y41761185D01*
X62234409Y41756923D01*
X62234412Y41756923D01*
X62239737Y41756546D01*
X62292439Y41761760D01*
X62347979Y41767254D01*
X62349730Y41767415D01*
X62393952Y41771168D01*
X62458175Y41776617D01*
X62463345Y41777959D01*
X62467826Y41778725D01*
X62472298Y41779554D01*
X62477607Y41780079D01*
X62582558Y41808889D01*
X62584180Y41809322D01*
X62689540Y41836668D01*
X62694409Y41838862D01*
X62698732Y41840384D01*
X62702966Y41841942D01*
X62708111Y41843354D01*
X62806669Y41889417D01*
X62808263Y41890149D01*
X62844292Y41906379D01*
X62907480Y41934843D01*
X62911907Y41937823D01*
X62915885Y41940037D01*
X62919827Y41942304D01*
X62924658Y41944562D01*
X62929038Y41947601D01*
X62929044Y41947604D01*
X63014018Y42006554D01*
X63015472Y42007548D01*
X63067754Y42042746D01*
X63105762Y42068334D01*
X63109626Y42072020D01*
X63113780Y42075360D01*
X63113977Y42075115D01*
X63114591Y42075616D01*
X63114399Y42075858D01*
X63117644Y42078441D01*
X63121057Y42080809D01*
X63126108Y42085405D01*
X63138510Y42096689D01*
X63138522Y42096701D01*
X63139615Y42097695D01*
X63202235Y42160315D01*
X63204358Y42162390D01*
X63274861Y42229647D01*
X63278718Y42233326D01*
X63283322Y42239514D01*
X63295316Y42253396D01*
X66997284Y45955364D01*
X67003799Y45961435D01*
X67049386Y46000993D01*
X67049388Y46000995D01*
X67053419Y46004493D01*
X67056802Y46008619D01*
X67056806Y46008623D01*
X67108837Y46072080D01*
X67122416Y46088640D01*
X67123457Y46089892D01*
X67174752Y46150700D01*
X67190248Y46169069D01*
X67190250Y46169072D01*
X67193686Y46173145D01*
X67196389Y46177743D01*
X67199023Y46181463D01*
X67201602Y46185216D01*
X67204978Y46189333D01*
X67207610Y46193957D01*
X67207615Y46193964D01*
X67258808Y46283898D01*
X67259689Y46285421D01*
X67264914Y46294308D01*
X67314823Y46379207D01*
X67316716Y46384204D01*
X67318708Y46388361D01*
X67320588Y46392429D01*
X67323227Y46397066D01*
X67360348Y46499334D01*
X67360960Y46500984D01*
X67382150Y46556913D01*
X67399510Y46602734D01*
X67400533Y46607974D01*
X67401776Y46612335D01*
X67402964Y46616739D01*
X67404784Y46621753D01*
X67406804Y46632920D01*
X67424137Y46728774D01*
X67424462Y46730502D01*
X67444302Y46832096D01*
X67444303Y46832104D01*
X67445324Y46837333D01*
X67445449Y46842663D01*
X67446026Y46847973D01*
X67446403Y46847932D01*
X67446482Y46848710D01*
X67446110Y46848752D01*
X67446578Y46852880D01*
X67447318Y46856969D01*
X67447944Y46870248D01*
X67448430Y46880544D01*
X67448430Y46880551D01*
X67448500Y46882032D01*
X67448500Y46970631D01*
X67448535Y46973599D01*
X67449805Y47027504D01*
X67450955Y47076298D01*
X67449836Y47083923D01*
X67448500Y47102220D01*
X67448500Y52130012D01*
X67433383Y52308175D01*
X67432042Y52313343D01*
X67374673Y52534375D01*
X67374671Y52534380D01*
X67373332Y52539540D01*
X67320009Y52657913D01*
X67277347Y52752619D01*
X67277346Y52752622D01*
X67275157Y52757480D01*
X67141666Y52955762D01*
X67127822Y52970275D01*
X67028843Y53074031D01*
X66976674Y53128718D01*
X66961222Y53140215D01*
X66822211Y53243642D01*
X66784900Y53271402D01*
X66780149Y53273818D01*
X66780145Y53273820D01*
X66576586Y53377314D01*
X66576585Y53377314D01*
X66571828Y53379733D01*
X66429362Y53423970D01*
X66348651Y53449032D01*
X66348645Y53449033D01*
X66343548Y53450616D01*
X66214434Y53467729D01*
X66111873Y53481323D01*
X66111869Y53481323D01*
X66106589Y53482023D01*
X66101260Y53481823D01*
X66101259Y53481823D01*
X66006761Y53478275D01*
X65867726Y53473055D01*
X65842343Y53467729D01*
X65639016Y53425067D01*
X65639013Y53425066D01*
X65633789Y53423970D01*
X65411467Y53336171D01*
X65207117Y53212168D01*
X65203087Y53208671D01*
X65040076Y53067217D01*
X65026581Y53055507D01*
X65023198Y53051381D01*
X65023194Y53051377D01*
X64944795Y52955762D01*
X64875022Y52870667D01*
X64756773Y52662934D01*
X64675216Y52438247D01*
X64674267Y52432998D01*
X64674266Y52432995D01*
X64633420Y52207115D01*
X64633419Y52207107D01*
X64632682Y52203031D01*
X64631500Y52177968D01*
X64631500Y47625610D01*
X64611498Y47557489D01*
X64594595Y47536515D01*
X61673485Y44615405D01*
X61611173Y44581379D01*
X61584390Y44578500D01*
X60864559Y44578500D01*
X60796438Y44598502D01*
X60749945Y44652158D01*
X60739841Y44722432D01*
X60763470Y44779713D01*
X60898216Y44960818D01*
X60901402Y44965100D01*
X60904310Y44970818D01*
X61007314Y45173414D01*
X61007314Y45173415D01*
X61009733Y45178172D01*
X61071757Y45377920D01*
X61079032Y45401349D01*
X61079033Y45401355D01*
X61080616Y45406452D01*
X61103492Y45579045D01*
X61111323Y45638127D01*
X61111323Y45638131D01*
X61112023Y45643411D01*
X61111448Y45658741D01*
X61107262Y45770231D01*
X61103055Y45882274D01*
X61080008Y45992115D01*
X61055067Y46110984D01*
X61055066Y46110987D01*
X61053970Y46116211D01*
X60966171Y46338533D01*
X60842168Y46542883D01*
X60833491Y46552883D01*
X60764038Y46632920D01*
X60734499Y46697479D01*
X60744553Y46767761D01*
X60791008Y46821449D01*
X60859204Y46841500D01*
X60895319Y46841500D01*
X60904218Y46841185D01*
X60964409Y46836923D01*
X60964412Y46836923D01*
X60969737Y46836546D01*
X61022439Y46841760D01*
X61077979Y46847254D01*
X61079730Y46847415D01*
X61123952Y46851168D01*
X61188175Y46856617D01*
X61193345Y46857959D01*
X61197826Y46858725D01*
X61202298Y46859554D01*
X61207607Y46860079D01*
X61312558Y46888889D01*
X61314180Y46889322D01*
X61419540Y46916668D01*
X61424409Y46918862D01*
X61428732Y46920384D01*
X61432966Y46921942D01*
X61438111Y46923354D01*
X61536669Y46969417D01*
X61538263Y46970149D01*
X61553889Y46977188D01*
X61637480Y47014843D01*
X61641907Y47017823D01*
X61645885Y47020037D01*
X61649827Y47022304D01*
X61654658Y47024562D01*
X61659038Y47027601D01*
X61659044Y47027604D01*
X61744018Y47086554D01*
X61745472Y47087548D01*
X61792006Y47118876D01*
X61835762Y47148334D01*
X61839626Y47152020D01*
X61843780Y47155360D01*
X61843977Y47155115D01*
X61844591Y47155616D01*
X61844399Y47155858D01*
X61847644Y47158441D01*
X61851057Y47160809D01*
X61856108Y47165405D01*
X61868510Y47176689D01*
X61868522Y47176701D01*
X61869615Y47177695D01*
X61932235Y47240315D01*
X61934358Y47242390D01*
X61955461Y47262521D01*
X62008718Y47313326D01*
X62013322Y47319514D01*
X62025316Y47333396D01*
X63187284Y48495364D01*
X63193799Y48501435D01*
X63239386Y48540993D01*
X63239388Y48540995D01*
X63243419Y48544493D01*
X63312416Y48628641D01*
X63313494Y48629936D01*
X63380246Y48709067D01*
X63380247Y48709069D01*
X63383685Y48713144D01*
X63386388Y48717742D01*
X63389014Y48721451D01*
X63391598Y48725210D01*
X63394978Y48729333D01*
X63397616Y48733967D01*
X63397620Y48733973D01*
X63448814Y48823908D01*
X63449695Y48825431D01*
X63460271Y48843420D01*
X63504823Y48919207D01*
X63506712Y48924192D01*
X63508684Y48928308D01*
X63510590Y48932433D01*
X63513227Y48937066D01*
X63516681Y48946580D01*
X63550370Y49039393D01*
X63550982Y49041042D01*
X63587619Y49137746D01*
X63589509Y49142734D01*
X63590531Y49147965D01*
X63591787Y49152374D01*
X63592966Y49156745D01*
X63594784Y49161753D01*
X63599939Y49190256D01*
X63614143Y49268807D01*
X63614468Y49270535D01*
X63634302Y49372099D01*
X63634302Y49372101D01*
X63635324Y49377333D01*
X63635449Y49382665D01*
X63636026Y49387973D01*
X63636403Y49387932D01*
X63636482Y49388710D01*
X63636110Y49388752D01*
X63636578Y49392880D01*
X63637318Y49396969D01*
X63638198Y49415621D01*
X63638430Y49420544D01*
X63638430Y49420551D01*
X63638500Y49422032D01*
X63638500Y49510649D01*
X63638535Y49513599D01*
X63639168Y49540475D01*
X63640955Y49616298D01*
X63639836Y49623923D01*
X63638500Y49642220D01*
X63638500Y53974390D01*
X63658502Y54042511D01*
X63675405Y54063485D01*
X66997284Y57385364D01*
X67003799Y57391435D01*
X67049386Y57430993D01*
X67049388Y57430995D01*
X67053419Y57434493D01*
X67056802Y57438619D01*
X67056806Y57438623D01*
X67096967Y57487604D01*
X67122416Y57518640D01*
X67123457Y57519892D01*
X67164169Y57568154D01*
X67190248Y57599069D01*
X67190250Y57599072D01*
X67193686Y57603145D01*
X67196389Y57607743D01*
X67199023Y57611463D01*
X67201602Y57615216D01*
X67204978Y57619333D01*
X67207610Y57623957D01*
X67207615Y57623964D01*
X67258808Y57713898D01*
X67259689Y57715421D01*
X67312115Y57804600D01*
X67312116Y57804603D01*
X67314823Y57809207D01*
X67316716Y57814204D01*
X67318708Y57818361D01*
X67320588Y57822429D01*
X67323227Y57827066D01*
X67360348Y57929334D01*
X67360960Y57930984D01*
X67397619Y58027744D01*
X67399510Y58032734D01*
X67400533Y58037974D01*
X67401776Y58042335D01*
X67402964Y58046739D01*
X67404784Y58051753D01*
X67411208Y58087274D01*
X67424137Y58158774D01*
X67424462Y58160502D01*
X67444302Y58262096D01*
X67444303Y58262104D01*
X67445324Y58267333D01*
X67445449Y58272663D01*
X67446026Y58277973D01*
X67446403Y58277932D01*
X67446482Y58278710D01*
X67446110Y58278752D01*
X67446578Y58282880D01*
X67447318Y58286969D01*
X67448500Y58312032D01*
X67448500Y58400631D01*
X67448535Y58403599D01*
X67449261Y58434409D01*
X67450955Y58506298D01*
X67449836Y58513922D01*
X67448500Y58532219D01*
X67448500Y67370012D01*
X67433383Y67548175D01*
X67417789Y67608256D01*
X67374673Y67774375D01*
X67374671Y67774380D01*
X67373332Y67779540D01*
X67317747Y67902934D01*
X67277347Y67992619D01*
X67277346Y67992622D01*
X67275157Y67997480D01*
X67141666Y68195762D01*
X66976674Y68368718D01*
X66784900Y68511402D01*
X66780149Y68513818D01*
X66780145Y68513820D01*
X66576586Y68617314D01*
X66576585Y68617314D01*
X66571828Y68619733D01*
X66429362Y68663970D01*
X66348651Y68689032D01*
X66348645Y68689033D01*
X66343548Y68690616D01*
X66205064Y68708971D01*
X66111873Y68721323D01*
X66111869Y68721323D01*
X66106589Y68722023D01*
X66101260Y68721823D01*
X66101259Y68721823D01*
X66010889Y68718430D01*
X65867726Y68713055D01*
X65861483Y68711745D01*
X65639016Y68665067D01*
X65639013Y68665066D01*
X65633789Y68663970D01*
X65411467Y68576171D01*
X65207117Y68452168D01*
X65203087Y68448671D01*
X65046118Y68312460D01*
X65026581Y68295507D01*
X65023198Y68291381D01*
X65023194Y68291377D01*
X64944795Y68195762D01*
X64875022Y68110667D01*
X64756773Y67902934D01*
X64675216Y67678247D01*
X64674267Y67672998D01*
X64674266Y67672995D01*
X64633420Y67447115D01*
X64633419Y67447107D01*
X64632682Y67443031D01*
X64631500Y67417968D01*
X64631500Y59055610D01*
X64611498Y58987489D01*
X64594595Y58966515D01*
X61272716Y55644636D01*
X61266201Y55638565D01*
X61216581Y55595507D01*
X61213198Y55591381D01*
X61213194Y55591377D01*
X61188615Y55561400D01*
X61147584Y55511360D01*
X61146543Y55510108D01*
X61076314Y55426855D01*
X61073611Y55422257D01*
X61070977Y55418537D01*
X61068398Y55414784D01*
X61065022Y55410667D01*
X61062390Y55406043D01*
X61062385Y55406036D01*
X61011192Y55316102D01*
X61010340Y55314629D01*
X60955177Y55220793D01*
X60953284Y55215796D01*
X60951292Y55211639D01*
X60949412Y55207571D01*
X60946773Y55202934D01*
X60944953Y55197919D01*
X60909652Y55100666D01*
X60909040Y55099016D01*
X60870490Y54997266D01*
X60869467Y54992026D01*
X60868224Y54987665D01*
X60867036Y54983261D01*
X60865216Y54978247D01*
X60864267Y54972998D01*
X60864266Y54972995D01*
X60845863Y54871226D01*
X60845538Y54869498D01*
X60825698Y54767904D01*
X60825697Y54767896D01*
X60824676Y54762667D01*
X60824551Y54757337D01*
X60823974Y54752027D01*
X60823597Y54752068D01*
X60823518Y54751290D01*
X60823890Y54751248D01*
X60823422Y54747120D01*
X60822682Y54743031D01*
X60821500Y54717968D01*
X60821500Y54629369D01*
X60821465Y54626401D01*
X60819045Y54523702D01*
X60819821Y54518416D01*
X60820164Y54516077D01*
X60821500Y54497780D01*
X60821500Y51958166D01*
X60801498Y51890045D01*
X60747842Y51843552D01*
X60677568Y51833448D01*
X60615609Y51860732D01*
X60523334Y51936392D01*
X60500667Y51954978D01*
X60496031Y51957617D01*
X60496028Y51957619D01*
X60369015Y52029919D01*
X60292934Y52073227D01*
X60068247Y52154784D01*
X60062998Y52155733D01*
X60062995Y52155734D01*
X59837115Y52196580D01*
X59837107Y52196581D01*
X59833031Y52197318D01*
X59814641Y52198185D01*
X59809456Y52198430D01*
X59809449Y52198430D01*
X59807968Y52198500D01*
X57194681Y52198500D01*
X57185782Y52198815D01*
X57125591Y52203077D01*
X57125588Y52203077D01*
X57120263Y52203454D01*
X57067561Y52198240D01*
X57012021Y52192746D01*
X57010270Y52192585D01*
X56966048Y52188832D01*
X56901825Y52183383D01*
X56896655Y52182041D01*
X56892174Y52181275D01*
X56887702Y52180446D01*
X56882393Y52179921D01*
X56777442Y52151111D01*
X56775820Y52150678D01*
X56670460Y52123332D01*
X56665591Y52121138D01*
X56661268Y52119616D01*
X56657034Y52118058D01*
X56651889Y52116646D01*
X56593610Y52089408D01*
X56553336Y52070585D01*
X56551741Y52069853D01*
X56452520Y52025157D01*
X56448093Y52022177D01*
X56444115Y52019963D01*
X56440173Y52017696D01*
X56435342Y52015438D01*
X56430962Y52012399D01*
X56430956Y52012396D01*
X56345982Y51953446D01*
X56344528Y51952452D01*
X56254238Y51891666D01*
X56250374Y51887980D01*
X56246220Y51884640D01*
X56246023Y51884885D01*
X56245409Y51884384D01*
X56245601Y51884142D01*
X56242356Y51881559D01*
X56238943Y51879191D01*
X56235873Y51876398D01*
X56235871Y51876396D01*
X56221490Y51863311D01*
X56221478Y51863299D01*
X56220385Y51862305D01*
X56157765Y51799685D01*
X56155642Y51797610D01*
X56081282Y51726674D01*
X56078099Y51722396D01*
X56076678Y51720486D01*
X56064684Y51706604D01*
X54922716Y50564636D01*
X54916201Y50558565D01*
X54866581Y50515507D01*
X54863198Y50511381D01*
X54863194Y50511377D01*
X54853921Y50500067D01*
X54797584Y50431360D01*
X54796543Y50430108D01*
X54793700Y50426737D01*
X54744053Y50367883D01*
X54726314Y50346855D01*
X54723611Y50342257D01*
X54720977Y50338537D01*
X54718398Y50334784D01*
X54715022Y50330667D01*
X54712390Y50326043D01*
X54712385Y50326036D01*
X54661192Y50236102D01*
X54660340Y50234629D01*
X54605177Y50140793D01*
X54603284Y50135796D01*
X54601292Y50131639D01*
X54599412Y50127571D01*
X54596773Y50122934D01*
X54592993Y50112520D01*
X54559652Y50020666D01*
X54559040Y50019016D01*
X54520490Y49917266D01*
X54519467Y49912026D01*
X54518224Y49907665D01*
X54517036Y49903261D01*
X54515216Y49898247D01*
X54514267Y49892998D01*
X54514266Y49892995D01*
X54495863Y49791226D01*
X54495538Y49789498D01*
X54475698Y49687904D01*
X54475697Y49687896D01*
X54474676Y49682667D01*
X54474551Y49677337D01*
X54473974Y49672027D01*
X54473597Y49672068D01*
X54473518Y49671290D01*
X54473890Y49671248D01*
X54473422Y49667120D01*
X54472682Y49663031D01*
X54472486Y49658877D01*
X54472486Y49658876D01*
X54471701Y49642220D01*
X54471500Y49637968D01*
X54471500Y49549369D01*
X54471465Y49546401D01*
X54469045Y49443702D01*
X54469821Y49438416D01*
X54470164Y49436077D01*
X54471500Y49417780D01*
X54471500Y45774681D01*
X54471185Y45765782D01*
X54468256Y45724409D01*
X54466546Y45700263D01*
X54470654Y45658741D01*
X54470888Y45656374D01*
X54471500Y45643969D01*
X54471500Y40694681D01*
X54471185Y40685782D01*
X54468256Y40644409D01*
X54466546Y40620263D01*
X54467072Y40614950D01*
X54470888Y40576374D01*
X54471500Y40563969D01*
X54471500Y35614681D01*
X54471185Y35605782D01*
X54468256Y35564409D01*
X54466546Y35540263D01*
X54467072Y35534950D01*
X54470888Y35496374D01*
X54471500Y35483969D01*
X54471500Y31115610D01*
X54451498Y31047489D01*
X54434595Y31026515D01*
X54063485Y30655405D01*
X54001173Y30621379D01*
X53974390Y30618500D01*
X50854681Y30618500D01*
X50845782Y30618815D01*
X50785591Y30623077D01*
X50785588Y30623077D01*
X50780263Y30623454D01*
X50733371Y30618815D01*
X50672021Y30612746D01*
X50670270Y30612585D01*
X50626048Y30608832D01*
X50561825Y30603383D01*
X50556655Y30602041D01*
X50552174Y30601275D01*
X50547702Y30600446D01*
X50542393Y30599921D01*
X50437442Y30571111D01*
X50435820Y30570678D01*
X50330460Y30543332D01*
X50325591Y30541138D01*
X50321268Y30539616D01*
X50317034Y30538058D01*
X50311889Y30536646D01*
X50213336Y30490585D01*
X50211741Y30489853D01*
X50112520Y30445157D01*
X50108093Y30442177D01*
X50104115Y30439963D01*
X50100173Y30437696D01*
X50095342Y30435438D01*
X50090962Y30432399D01*
X50090956Y30432396D01*
X50005982Y30373446D01*
X50004528Y30372452D01*
X49914238Y30311666D01*
X49910374Y30307980D01*
X49906220Y30304640D01*
X49906023Y30304885D01*
X49905409Y30304384D01*
X49905601Y30304142D01*
X49902356Y30301559D01*
X49898943Y30299191D01*
X49895873Y30296398D01*
X49895871Y30296396D01*
X49881490Y30283311D01*
X49881478Y30283299D01*
X49880385Y30282305D01*
X49817765Y30219685D01*
X49815642Y30217610D01*
X49741282Y30146674D01*
X49738099Y30142396D01*
X49736678Y30140486D01*
X49724684Y30126604D01*
X45173485Y25575405D01*
X45111173Y25541379D01*
X45084390Y25538500D01*
X43074610Y25538500D01*
X43006489Y25558502D01*
X42959996Y25612158D01*
X42949892Y25682432D01*
X42979386Y25747012D01*
X42985515Y25753595D01*
X45369593Y28137674D01*
X45369608Y28137688D01*
X45407284Y28175364D01*
X45413799Y28181435D01*
X45459386Y28220993D01*
X45459388Y28220995D01*
X45463419Y28224493D01*
X45491385Y28258600D01*
X45499724Y28267804D01*
X47279194Y30047274D01*
X47291672Y30058208D01*
X47302128Y30066217D01*
X47306366Y30069463D01*
X47310379Y30073789D01*
X47368646Y30136601D01*
X47371926Y30140006D01*
X48796515Y31564595D01*
X48858827Y31598621D01*
X48885610Y31601500D01*
X52140012Y31601500D01*
X52318175Y31616617D01*
X52323339Y31617957D01*
X52323343Y31617958D01*
X52544375Y31675327D01*
X52544380Y31675329D01*
X52549540Y31676668D01*
X52624602Y31710481D01*
X52762619Y31772653D01*
X52762622Y31772654D01*
X52767480Y31774843D01*
X52965762Y31908334D01*
X53138718Y32073326D01*
X53172416Y32118617D01*
X53278216Y32260818D01*
X53281402Y32265100D01*
X53306218Y32313908D01*
X53387314Y32473414D01*
X53387314Y32473415D01*
X53389733Y32478172D01*
X53442074Y32646737D01*
X53459032Y32701349D01*
X53459033Y32701355D01*
X53460616Y32706452D01*
X53481763Y32866001D01*
X53491323Y32938127D01*
X53491323Y32938131D01*
X53492023Y32943411D01*
X53491639Y32953654D01*
X53487170Y33072661D01*
X53483055Y33182274D01*
X53438935Y33392549D01*
X53435067Y33410984D01*
X53435066Y33410987D01*
X53433970Y33416211D01*
X53346171Y33638533D01*
X53222168Y33842883D01*
X53186672Y33883789D01*
X53069007Y34019386D01*
X53069005Y34019388D01*
X53065507Y34023419D01*
X53061381Y34026802D01*
X53061377Y34026806D01*
X52884795Y34171593D01*
X52880667Y34174978D01*
X52876042Y34177611D01*
X52831234Y34232675D01*
X52823309Y34303228D01*
X52854786Y34366866D01*
X52870795Y34381476D01*
X53027122Y34501214D01*
X53027123Y34501215D01*
X53031365Y34504464D01*
X53034997Y34508379D01*
X53035001Y34508383D01*
X53190298Y34675796D01*
X53193926Y34679707D01*
X53196843Y34684173D01*
X53321714Y34875359D01*
X53321715Y34875360D01*
X53324636Y34879833D01*
X53327345Y34886077D01*
X53417634Y35094226D01*
X53419758Y35099122D01*
X53454561Y35241349D01*
X53475304Y35326119D01*
X53475305Y35326125D01*
X53476572Y35331303D01*
X53480567Y35387726D01*
X53493077Y35564409D01*
X53493077Y35564412D01*
X53493454Y35569737D01*
X53481256Y35693031D01*
X53470447Y35802294D01*
X53470446Y35802298D01*
X53469921Y35807607D01*
X53406646Y36038111D01*
X53395204Y36062594D01*
X53307697Y36249825D01*
X53307696Y36249827D01*
X53305438Y36254658D01*
X53302400Y36259037D01*
X53302395Y36259046D01*
X53232656Y36359574D01*
X53228464Y36366029D01*
X53214938Y36388320D01*
X53214932Y36388329D01*
X53212168Y36392883D01*
X53208667Y36396918D01*
X53203579Y36402782D01*
X53195218Y36413541D01*
X53171562Y36447641D01*
X53171552Y36447653D01*
X53169191Y36451057D01*
X53166398Y36454127D01*
X53153311Y36468510D01*
X53153299Y36468522D01*
X53152305Y36469615D01*
X53104636Y36517284D01*
X53098565Y36523799D01*
X53059007Y36569386D01*
X53059005Y36569388D01*
X53055507Y36573419D01*
X53051381Y36576802D01*
X53051377Y36576806D01*
X52996379Y36621901D01*
X52971360Y36642416D01*
X52970108Y36643457D01*
X52913155Y36691500D01*
X52890931Y36710248D01*
X52890928Y36710250D01*
X52886855Y36713686D01*
X52882260Y36716388D01*
X52878580Y36718993D01*
X52876414Y36720481D01*
X52875628Y36721446D01*
X52871274Y36724484D01*
X52871200Y36724544D01*
X52872152Y36725718D01*
X52831598Y36775545D01*
X52823666Y36846097D01*
X52855137Y36909738D01*
X52877404Y36928848D01*
X52921975Y36958855D01*
X52965762Y36988334D01*
X53138718Y37153326D01*
X53281402Y37345100D01*
X53287313Y37356725D01*
X53387314Y37553414D01*
X53387314Y37553415D01*
X53389733Y37558172D01*
X53441417Y37724621D01*
X53459032Y37781349D01*
X53459033Y37781355D01*
X53460616Y37786452D01*
X53485278Y37972523D01*
X53491323Y38018127D01*
X53491323Y38018131D01*
X53492023Y38023411D01*
X53490374Y38067347D01*
X53487262Y38150231D01*
X53483055Y38262274D01*
X53460703Y38368802D01*
X53435067Y38490984D01*
X53435066Y38490987D01*
X53433970Y38496211D01*
X53346171Y38718533D01*
X53222168Y38922883D01*
X53186672Y38963789D01*
X53069007Y39099386D01*
X53069005Y39099388D01*
X53065507Y39103419D01*
X53022841Y39138403D01*
X52982849Y39197060D01*
X52980917Y39268030D01*
X53017661Y39328779D01*
X53058504Y39353817D01*
X53118297Y39376233D01*
X53126705Y39379385D01*
X53243261Y39466739D01*
X53330615Y39583295D01*
X53381745Y39719684D01*
X53388500Y39781866D01*
X53388500Y40080912D01*
X53398907Y40131054D01*
X53417633Y40174222D01*
X53417635Y40174227D01*
X53419758Y40179122D01*
X53455809Y40326452D01*
X53475304Y40406119D01*
X53475305Y40406125D01*
X53476572Y40411303D01*
X53480699Y40469595D01*
X53493077Y40644409D01*
X53493077Y40644412D01*
X53493454Y40649737D01*
X53473133Y40855139D01*
X53470447Y40882294D01*
X53470446Y40882298D01*
X53469921Y40887607D01*
X53406646Y41118111D01*
X53400350Y41131582D01*
X53388500Y41184927D01*
X53388500Y41478134D01*
X53381745Y41540316D01*
X53330615Y41676705D01*
X53243261Y41793261D01*
X53126705Y41880615D01*
X53118296Y41883767D01*
X53118295Y41883768D01*
X53057980Y41906379D01*
X53001215Y41949020D01*
X52976515Y42015582D01*
X52991722Y42084931D01*
X53015237Y42115531D01*
X53049695Y42148402D01*
X53138718Y42233326D01*
X53147713Y42245415D01*
X53278216Y42420818D01*
X53281402Y42425100D01*
X53292326Y42446585D01*
X53387314Y42633414D01*
X53387314Y42633415D01*
X53389733Y42638172D01*
X53455621Y42850364D01*
X53459032Y42861349D01*
X53459033Y42861355D01*
X53460616Y42866452D01*
X53482333Y43030300D01*
X53491323Y43098127D01*
X53491323Y43098131D01*
X53492023Y43103411D01*
X53490568Y43142179D01*
X53487223Y43231259D01*
X53483055Y43342274D01*
X53460703Y43448802D01*
X53435067Y43570984D01*
X53435066Y43570987D01*
X53433970Y43576211D01*
X53346171Y43798533D01*
X53222168Y44002883D01*
X53132103Y44106674D01*
X53069007Y44179386D01*
X53069005Y44179388D01*
X53065507Y44183419D01*
X53061381Y44186802D01*
X53061377Y44186806D01*
X52909343Y44311465D01*
X52880667Y44334978D01*
X52876042Y44337611D01*
X52831234Y44392675D01*
X52823309Y44463228D01*
X52854786Y44526866D01*
X52870795Y44541476D01*
X53027122Y44661214D01*
X53027123Y44661215D01*
X53031365Y44664464D01*
X53034997Y44668379D01*
X53035001Y44668383D01*
X53190298Y44835796D01*
X53193926Y44839707D01*
X53211217Y44866181D01*
X53321714Y45035359D01*
X53321715Y45035360D01*
X53324636Y45039833D01*
X53419758Y45259122D01*
X53428486Y45294789D01*
X53475304Y45486119D01*
X53475305Y45486125D01*
X53476572Y45491303D01*
X53480567Y45547726D01*
X53493077Y45724409D01*
X53493077Y45724412D01*
X53493454Y45729737D01*
X53476764Y45898443D01*
X53470447Y45962294D01*
X53470446Y45962298D01*
X53469921Y45967607D01*
X53406646Y46198111D01*
X53395010Y46223009D01*
X53307697Y46409825D01*
X53307696Y46409827D01*
X53305438Y46414658D01*
X53302400Y46419037D01*
X53302395Y46419046D01*
X53232656Y46519574D01*
X53228464Y46526029D01*
X53214938Y46548320D01*
X53214932Y46548329D01*
X53212168Y46552883D01*
X53208667Y46556918D01*
X53203579Y46562782D01*
X53195218Y46573541D01*
X53171562Y46607641D01*
X53171552Y46607653D01*
X53169191Y46611057D01*
X53162894Y46617978D01*
X53153311Y46628510D01*
X53153299Y46628522D01*
X53152305Y46629615D01*
X53104636Y46677284D01*
X53098565Y46683799D01*
X53059007Y46729386D01*
X53059005Y46729388D01*
X53055507Y46733419D01*
X53051381Y46736802D01*
X53051377Y46736806D01*
X53007975Y46772393D01*
X52971360Y46802416D01*
X52970108Y46803457D01*
X52907624Y46856166D01*
X52890931Y46870248D01*
X52890928Y46870250D01*
X52886855Y46873686D01*
X52882260Y46876388D01*
X52878580Y46878993D01*
X52876414Y46880481D01*
X52875628Y46881446D01*
X52871274Y46884484D01*
X52871200Y46884544D01*
X52872152Y46885718D01*
X52831598Y46935545D01*
X52823666Y47006097D01*
X52855137Y47069738D01*
X52877404Y47088848D01*
X52897266Y47102220D01*
X52965762Y47148334D01*
X52972871Y47155115D01*
X53077768Y47255183D01*
X53138718Y47313326D01*
X53172384Y47358574D01*
X53236123Y47444243D01*
X53281402Y47505100D01*
X53294869Y47531586D01*
X53387314Y47713414D01*
X53387314Y47713415D01*
X53389733Y47718172D01*
X53430361Y47849016D01*
X53459032Y47941349D01*
X53459033Y47941355D01*
X53460616Y47946452D01*
X53479387Y48088077D01*
X53491323Y48178127D01*
X53491323Y48178131D01*
X53492023Y48183411D01*
X53483055Y48422274D01*
X53460703Y48528802D01*
X53435067Y48650984D01*
X53435066Y48650987D01*
X53433970Y48656211D01*
X53346171Y48878533D01*
X53222168Y49082883D01*
X53215066Y49091067D01*
X53069007Y49259386D01*
X53069005Y49259388D01*
X53065507Y49263419D01*
X53022841Y49298403D01*
X52982849Y49357060D01*
X52980917Y49428030D01*
X53017661Y49488779D01*
X53058504Y49513817D01*
X53118297Y49536233D01*
X53126705Y49539385D01*
X53243261Y49626739D01*
X53330615Y49743295D01*
X53381745Y49879684D01*
X53388500Y49941866D01*
X53388500Y50240912D01*
X53398907Y50291054D01*
X53417633Y50334222D01*
X53417635Y50334227D01*
X53419758Y50339122D01*
X53452509Y50472964D01*
X53475304Y50566119D01*
X53475305Y50566125D01*
X53476572Y50571303D01*
X53481624Y50642651D01*
X53493077Y50804409D01*
X53493077Y50804412D01*
X53493454Y50809737D01*
X53473020Y51016282D01*
X53470447Y51042294D01*
X53470446Y51042298D01*
X53469921Y51047607D01*
X53406646Y51278111D01*
X53400350Y51291582D01*
X53388500Y51344927D01*
X53388500Y51638134D01*
X53381745Y51700316D01*
X53330615Y51836705D01*
X53243261Y51953261D01*
X53126705Y52040615D01*
X52990316Y52091745D01*
X52928134Y52098500D01*
X52643016Y52098500D01*
X52600026Y52106061D01*
X52560626Y52120362D01*
X52559139Y52120913D01*
X52457266Y52159510D01*
X52452029Y52160533D01*
X52447665Y52161776D01*
X52443261Y52162964D01*
X52438247Y52164784D01*
X52432998Y52165733D01*
X52432995Y52165734D01*
X52331226Y52184137D01*
X52329498Y52184462D01*
X52227904Y52204302D01*
X52227896Y52204303D01*
X52222667Y52205324D01*
X52217337Y52205449D01*
X52212027Y52206026D01*
X52212068Y52206403D01*
X52211290Y52206482D01*
X52211248Y52206110D01*
X52207120Y52206578D01*
X52203031Y52207318D01*
X52198877Y52207514D01*
X52198876Y52207514D01*
X52179456Y52208430D01*
X52179449Y52208430D01*
X52177968Y52208500D01*
X52089369Y52208500D01*
X52086401Y52208535D01*
X52083493Y52208604D01*
X51983702Y52210955D01*
X51977411Y52210032D01*
X51976077Y52209836D01*
X51957780Y52208500D01*
X49469988Y52208500D01*
X49291825Y52193383D01*
X49286661Y52192043D01*
X49286657Y52192042D01*
X49065625Y52134673D01*
X49065620Y52134671D01*
X49060460Y52133332D01*
X49055594Y52131140D01*
X48847381Y52037347D01*
X48847378Y52037346D01*
X48842520Y52035157D01*
X48644238Y51901666D01*
X48601859Y51861238D01*
X48601472Y51860869D01*
X48538376Y51828322D01*
X48467699Y51835053D01*
X48411881Y51878927D01*
X48388500Y51952039D01*
X48388500Y53295319D01*
X48388815Y53304218D01*
X48393077Y53364409D01*
X48393077Y53364412D01*
X48393454Y53369737D01*
X48386123Y53443839D01*
X48382746Y53477979D01*
X48382585Y53479730D01*
X48373834Y53582856D01*
X48373383Y53588175D01*
X48372041Y53593345D01*
X48371275Y53597826D01*
X48370446Y53602298D01*
X48369921Y53607607D01*
X48341111Y53712558D01*
X48340672Y53714202D01*
X48328486Y53761152D01*
X48313332Y53819540D01*
X48311138Y53824409D01*
X48309616Y53828732D01*
X48308058Y53832966D01*
X48306646Y53838111D01*
X48260583Y53936669D01*
X48259851Y53938263D01*
X48220067Y54026580D01*
X48215157Y54037480D01*
X48212177Y54041907D01*
X48209963Y54045885D01*
X48207696Y54049827D01*
X48205438Y54054658D01*
X48202399Y54059038D01*
X48202396Y54059044D01*
X48143446Y54144018D01*
X48142452Y54145472D01*
X48084647Y54231334D01*
X48081666Y54235762D01*
X48077980Y54239626D01*
X48074640Y54243780D01*
X48074885Y54243977D01*
X48074384Y54244591D01*
X48074142Y54244399D01*
X48071559Y54247644D01*
X48069191Y54251057D01*
X48066396Y54254129D01*
X48053311Y54268510D01*
X48053299Y54268522D01*
X48052305Y54269615D01*
X47989685Y54332235D01*
X47987610Y54334358D01*
X47920353Y54404861D01*
X47916674Y54408718D01*
X47910486Y54413322D01*
X47896604Y54425316D01*
X46729685Y55592235D01*
X46727610Y55594358D01*
X46718070Y55604358D01*
X46656674Y55668718D01*
X46650486Y55673322D01*
X46636604Y55685316D01*
X45895405Y56426515D01*
X45861379Y56488827D01*
X45858500Y56515610D01*
X45858500Y57095319D01*
X45858815Y57104218D01*
X45863077Y57164409D01*
X45863077Y57164412D01*
X45863454Y57169737D01*
X45857107Y57233891D01*
X45852746Y57277979D01*
X45852585Y57279730D01*
X45846727Y57348762D01*
X45843383Y57388175D01*
X45842041Y57393345D01*
X45841275Y57397826D01*
X45840446Y57402298D01*
X45839921Y57407607D01*
X45811111Y57512558D01*
X45810672Y57514202D01*
X45809622Y57518247D01*
X45783332Y57619540D01*
X45781138Y57624409D01*
X45779616Y57628732D01*
X45778058Y57632966D01*
X45776646Y57638111D01*
X45730583Y57736669D01*
X45729851Y57738263D01*
X45727747Y57742934D01*
X45685157Y57837480D01*
X45682177Y57841907D01*
X45679963Y57845885D01*
X45677696Y57849827D01*
X45675438Y57854658D01*
X45672399Y57859038D01*
X45672396Y57859044D01*
X45613446Y57944018D01*
X45612452Y57945472D01*
X45554647Y58031334D01*
X45551666Y58035762D01*
X45547980Y58039626D01*
X45544640Y58043780D01*
X45544885Y58043977D01*
X45544384Y58044591D01*
X45544142Y58044399D01*
X45541559Y58047644D01*
X45539191Y58051057D01*
X45533779Y58057005D01*
X45523311Y58068510D01*
X45523299Y58068522D01*
X45522305Y58069615D01*
X45459685Y58132235D01*
X45457610Y58134358D01*
X45434318Y58158774D01*
X45386674Y58208718D01*
X45380486Y58213322D01*
X45366604Y58225316D01*
X35324636Y68267284D01*
X35318565Y68273799D01*
X35279007Y68319386D01*
X35279005Y68319388D01*
X35275507Y68323419D01*
X35271381Y68326802D01*
X35271377Y68326806D01*
X35216379Y68371901D01*
X35191360Y68392416D01*
X35190108Y68393457D01*
X35125098Y68448297D01*
X35110931Y68460248D01*
X35110928Y68460250D01*
X35106855Y68463686D01*
X35102257Y68466389D01*
X35098537Y68469023D01*
X35094784Y68471602D01*
X35090667Y68474978D01*
X35086043Y68477610D01*
X35086036Y68477615D01*
X34996102Y68528808D01*
X34994629Y68529660D01*
X34939601Y68562009D01*
X34905400Y68582115D01*
X34905397Y68582116D01*
X34900793Y68584823D01*
X34895796Y68586716D01*
X34891639Y68588708D01*
X34887571Y68590588D01*
X34882934Y68593227D01*
X34780666Y68630348D01*
X34779016Y68630960D01*
X34742821Y68644673D01*
X34677266Y68669510D01*
X34672026Y68670533D01*
X34667665Y68671776D01*
X34663261Y68672964D01*
X34658247Y68674784D01*
X34652998Y68675733D01*
X34652995Y68675734D01*
X34551226Y68694137D01*
X34549498Y68694462D01*
X34447904Y68714302D01*
X34447896Y68714303D01*
X34442667Y68715324D01*
X34437337Y68715449D01*
X34432027Y68716026D01*
X34432068Y68716403D01*
X34431290Y68716482D01*
X34431248Y68716110D01*
X34427120Y68716578D01*
X34423031Y68717318D01*
X34418877Y68717514D01*
X34418876Y68717514D01*
X34399456Y68718430D01*
X34399449Y68718430D01*
X34397968Y68718500D01*
X34309369Y68718500D01*
X34306401Y68718535D01*
X34303493Y68718604D01*
X34203702Y68720955D01*
X34197411Y68720032D01*
X34196077Y68719836D01*
X34177780Y68718500D01*
X5401866Y68718500D01*
X5339684Y68711745D01*
X5203295Y68660615D01*
X5086739Y68573261D01*
X4999385Y68456705D01*
X4948255Y68320316D01*
X4941500Y68258134D01*
X4941500Y67411486D01*
X4940408Y67394930D01*
X4937977Y67376589D01*
X4938177Y67371260D01*
X4938177Y67371259D01*
X4941411Y67285125D01*
X4941500Y67280398D01*
X4941500Y66361866D01*
X4948255Y66299684D01*
X4999385Y66163295D01*
X5086739Y66046739D01*
X5203295Y65959385D01*
X5211703Y65956233D01*
X5271164Y65933942D01*
X5327928Y65891300D01*
X5352628Y65824739D01*
X5337421Y65755390D01*
X5318028Y65728909D01*
X5251639Y65659436D01*
X5248725Y65655164D01*
X5245470Y65651144D01*
X5245280Y65651298D01*
X5242982Y65648416D01*
X5242989Y65648411D01*
X5239707Y65644210D01*
X5236074Y65640294D01*
X5194576Y65576757D01*
X5180355Y65554984D01*
X5178951Y65552881D01*
X5124034Y65472375D01*
X5124031Y65472371D01*
X5121119Y65468101D01*
X5118946Y65463419D01*
X5118944Y65463416D01*
X5118824Y65463157D01*
X5110038Y65447323D01*
X5105364Y65440167D01*
X5066187Y65349849D01*
X5064938Y65347069D01*
X5023602Y65258019D01*
X5022220Y65253036D01*
X5022219Y65253033D01*
X5021067Y65248877D01*
X5015242Y65232405D01*
X5010242Y65220878D01*
X4991249Y65143256D01*
X4987747Y65128946D01*
X4986785Y65125260D01*
X4961707Y65034831D01*
X4960268Y65021364D01*
X4957373Y65004822D01*
X4953428Y64988698D01*
X4953051Y64983371D01*
X4947015Y64898119D01*
X4946617Y64893627D01*
X4937644Y64809664D01*
X4937095Y64804531D01*
X4937392Y64799377D01*
X4937392Y64799371D01*
X4938107Y64786967D01*
X4938002Y64770829D01*
X4936546Y64750263D01*
X4941424Y64700959D01*
X4945108Y64663720D01*
X4945511Y64658568D01*
X4950427Y64573303D01*
X4955186Y64552185D01*
X4957654Y64536904D01*
X4960079Y64512393D01*
X4961491Y64507251D01*
X4982068Y64432289D01*
X4983480Y64426636D01*
X5001346Y64347358D01*
X5011016Y64323544D01*
X5015768Y64309524D01*
X5023354Y64281889D01*
X5025616Y64277050D01*
X5025616Y64277049D01*
X5056860Y64210197D01*
X5059454Y64204253D01*
X5086537Y64137557D01*
X5088484Y64132763D01*
X5091186Y64128353D01*
X5091188Y64128350D01*
X5104018Y64107413D01*
X5110735Y64094927D01*
X5124562Y64065342D01*
X5127604Y64060957D01*
X5167423Y64003559D01*
X5171326Y63997578D01*
X5209501Y63935281D01*
X5231629Y63909735D01*
X5239904Y63899077D01*
X5260809Y63868943D01*
X5263602Y63865873D01*
X5263604Y63865871D01*
X5276689Y63851490D01*
X5276701Y63851478D01*
X5277695Y63850385D01*
X5314455Y63813625D01*
X5320597Y63807027D01*
X5357756Y63764130D01*
X5357760Y63764126D01*
X5361147Y63760216D01*
X5365122Y63756916D01*
X5365125Y63756913D01*
X5396227Y63731092D01*
X5404837Y63723243D01*
X6433706Y62694375D01*
X7444595Y61683486D01*
X7478620Y61621174D01*
X7481500Y61594391D01*
X7481500Y57039966D01*
X7461498Y56971845D01*
X7407842Y56925352D01*
X7337568Y56915248D01*
X7275609Y56942532D01*
X7154795Y57041594D01*
X7154789Y57041598D01*
X7150667Y57044978D01*
X7146031Y57047617D01*
X7146028Y57047619D01*
X6989407Y57136773D01*
X6942934Y57163227D01*
X6718247Y57244784D01*
X6712998Y57245733D01*
X6712995Y57245734D01*
X6487115Y57286580D01*
X6487107Y57286581D01*
X6483031Y57287318D01*
X6464641Y57288185D01*
X6459456Y57288430D01*
X6459449Y57288430D01*
X6457968Y57288500D01*
X3864681Y57288500D01*
X3855782Y57288815D01*
X3795591Y57293077D01*
X3795588Y57293077D01*
X3790263Y57293454D01*
X3737561Y57288240D01*
X3682021Y57282746D01*
X3680270Y57282585D01*
X3636561Y57278876D01*
X3571825Y57273383D01*
X3566655Y57272041D01*
X3562174Y57271275D01*
X3557702Y57270446D01*
X3552393Y57269921D01*
X3447442Y57241111D01*
X3445820Y57240678D01*
X3340460Y57213332D01*
X3335591Y57211138D01*
X3331268Y57209616D01*
X3327034Y57208058D01*
X3321889Y57206646D01*
X3238957Y57167886D01*
X3223336Y57160585D01*
X3221741Y57159853D01*
X3122520Y57115157D01*
X3118093Y57112177D01*
X3114115Y57109963D01*
X3110173Y57107696D01*
X3105342Y57105438D01*
X3100962Y57102399D01*
X3100956Y57102396D01*
X3015982Y57043446D01*
X3014528Y57042452D01*
X2924238Y56981666D01*
X2920374Y56977980D01*
X2916220Y56974640D01*
X2916023Y56974885D01*
X2915409Y56974384D01*
X2915601Y56974142D01*
X2912356Y56971559D01*
X2908943Y56969191D01*
X2905873Y56966398D01*
X2905871Y56966396D01*
X2891490Y56953311D01*
X2891478Y56953299D01*
X2890385Y56952305D01*
X2827765Y56889685D01*
X2825642Y56887610D01*
X2751282Y56816674D01*
X2748099Y56812396D01*
X2746678Y56810486D01*
X2734684Y56796604D01*
X1582716Y55644636D01*
X1576201Y55638565D01*
X1526581Y55595507D01*
X1523198Y55591381D01*
X1523194Y55591377D01*
X1498615Y55561400D01*
X1457584Y55511360D01*
X1456543Y55510108D01*
X1386314Y55426855D01*
X1383611Y55422257D01*
X1380977Y55418537D01*
X1378398Y55414784D01*
X1375022Y55410667D01*
X1372390Y55406043D01*
X1372385Y55406036D01*
X1321192Y55316102D01*
X1320340Y55314629D01*
X1265177Y55220793D01*
X1263284Y55215796D01*
X1261292Y55211639D01*
X1259412Y55207571D01*
X1256773Y55202934D01*
X1254953Y55197919D01*
X1219652Y55100666D01*
X1219040Y55099016D01*
X1180490Y54997266D01*
X1179467Y54992026D01*
X1178224Y54987665D01*
X1177036Y54983261D01*
X1175216Y54978247D01*
X1174267Y54972998D01*
X1174266Y54972995D01*
X1155863Y54871226D01*
X1155538Y54869498D01*
X1135698Y54767904D01*
X1135697Y54767896D01*
X1134676Y54762667D01*
X1134551Y54757337D01*
X1133974Y54752027D01*
X1133597Y54752068D01*
X1133518Y54751290D01*
X1133890Y54751248D01*
X1133422Y54747120D01*
X1132682Y54743031D01*
X1131500Y54717968D01*
X1131500Y54629369D01*
X1131465Y54626401D01*
X1129045Y54523702D01*
X1129821Y54518416D01*
X1130164Y54516077D01*
X1131500Y54497780D01*
X1131500Y10214681D01*
X1131185Y10205782D01*
X1126546Y10140263D01*
X1131181Y10093411D01*
X1137254Y10032021D01*
X1137415Y10030270D01*
X1146617Y9921825D01*
X1147959Y9916655D01*
X1148725Y9912174D01*
X1149554Y9907702D01*
X1150079Y9902393D01*
X1178874Y9797499D01*
X1179322Y9795820D01*
X1206668Y9690460D01*
X1208862Y9685591D01*
X1210384Y9681268D01*
X1211942Y9677034D01*
X1213354Y9671889D01*
X1215614Y9667054D01*
X1259415Y9573336D01*
X1260147Y9571741D01*
X1304843Y9472520D01*
X1307822Y9468095D01*
X1310037Y9464115D01*
X1312304Y9460173D01*
X1314562Y9455342D01*
X1317601Y9450962D01*
X1317604Y9450956D01*
X1376554Y9365982D01*
X1377548Y9364528D01*
X1380854Y9359617D01*
X1438334Y9274238D01*
X1442020Y9270374D01*
X1445360Y9266220D01*
X1445115Y9266023D01*
X1445616Y9265409D01*
X1445858Y9265601D01*
X1448441Y9262356D01*
X1450809Y9258943D01*
X1453602Y9255873D01*
X1453604Y9255871D01*
X1466689Y9241490D01*
X1466701Y9241478D01*
X1467695Y9240385D01*
X1530315Y9177765D01*
X1532390Y9175642D01*
X1603326Y9101282D01*
X1607604Y9098099D01*
X1609514Y9096678D01*
X1623396Y9084684D01*
X5315364Y5392716D01*
X5321435Y5386201D01*
X5364493Y5336581D01*
X5368619Y5333198D01*
X5368623Y5333194D01*
X5399450Y5307918D01*
X5448640Y5267584D01*
X5449892Y5266543D01*
X5488466Y5234004D01*
X5515346Y5211329D01*
X5533145Y5196314D01*
X5537743Y5193611D01*
X5541463Y5190977D01*
X5545216Y5188398D01*
X5549333Y5185022D01*
X5553957Y5182390D01*
X5553964Y5182385D01*
X5643898Y5131192D01*
X5645371Y5130340D01*
X5675461Y5112651D01*
X5734600Y5077885D01*
X5734603Y5077884D01*
X5739207Y5075177D01*
X5744204Y5073284D01*
X5748361Y5071292D01*
X5752429Y5069412D01*
X5757066Y5066773D01*
X5824477Y5042304D01*
X5859334Y5029652D01*
X5860984Y5029040D01*
X5962734Y4990490D01*
X5967974Y4989467D01*
X5972335Y4988224D01*
X5976739Y4987036D01*
X5981753Y4985216D01*
X5987002Y4984267D01*
X5987005Y4984266D01*
X6088774Y4965863D01*
X6090502Y4965538D01*
X6192096Y4945698D01*
X6192104Y4945697D01*
X6197333Y4944676D01*
X6202663Y4944551D01*
X6207973Y4943974D01*
X6207932Y4943597D01*
X6208710Y4943518D01*
X6208752Y4943890D01*
X6212880Y4943422D01*
X6216969Y4942682D01*
X6221123Y4942486D01*
X6221124Y4942486D01*
X6240544Y4941570D01*
X6240551Y4941570D01*
X6242032Y4941500D01*
X6330631Y4941500D01*
X6333600Y4941465D01*
X6436298Y4939045D01*
X6443922Y4940164D01*
X6462219Y4941500D01*
X17678514Y4941500D01*
X17695070Y4940408D01*
X17708128Y4938677D01*
X17708131Y4938677D01*
X17713411Y4937977D01*
X17718740Y4938177D01*
X17718741Y4938177D01*
X17804875Y4941411D01*
X17809602Y4941500D01*
X17840012Y4941500D01*
X17842648Y4941724D01*
X17842655Y4941724D01*
X17855220Y4942791D01*
X17863077Y4943457D01*
X17868997Y4943819D01*
X17952274Y4946945D01*
X17957495Y4948040D01*
X17957499Y4948041D01*
X17977383Y4952213D01*
X17992607Y4954448D01*
X17995868Y4954724D01*
X18012853Y4956165D01*
X18012859Y4956166D01*
X18018175Y4956617D01*
X18032827Y4960420D01*
X18098853Y4977556D01*
X18104631Y4978912D01*
X18180995Y4994935D01*
X18181001Y4994937D01*
X18186211Y4996030D01*
X18191174Y4997990D01*
X18210079Y5005456D01*
X18224695Y5010220D01*
X18249540Y5016668D01*
X18325543Y5050905D01*
X18331013Y5053215D01*
X18403563Y5081866D01*
X18403566Y5081867D01*
X18408533Y5083829D01*
X18430475Y5097144D01*
X18444084Y5104303D01*
X18462615Y5112651D01*
X18462619Y5112653D01*
X18467480Y5114843D01*
X18471901Y5117819D01*
X18471904Y5117821D01*
X18536630Y5161397D01*
X18541588Y5164568D01*
X18612883Y5207832D01*
X18632261Y5224648D01*
X18644477Y5234004D01*
X18661334Y5245352D01*
X18661342Y5245358D01*
X18665762Y5248334D01*
X18669619Y5252013D01*
X18669626Y5252019D01*
X18726078Y5305872D01*
X18730470Y5309869D01*
X18789386Y5360993D01*
X18789388Y5360995D01*
X18793419Y5364493D01*
X18809689Y5384336D01*
X18820153Y5395616D01*
X18834850Y5409636D01*
X18834851Y5409637D01*
X18838718Y5413326D01*
X18888490Y5480222D01*
X18892124Y5484873D01*
X18941594Y5545205D01*
X18941598Y5545211D01*
X18944978Y5549333D01*
X18947616Y5553967D01*
X18947622Y5553976D01*
X18957670Y5571629D01*
X18966076Y5584501D01*
X18981402Y5605100D01*
X19019185Y5679415D01*
X19021990Y5684623D01*
X19060582Y5752417D01*
X19060588Y5752430D01*
X19063227Y5757066D01*
X19071985Y5781193D01*
X19078105Y5795301D01*
X19081808Y5802585D01*
X19089733Y5818172D01*
X19114455Y5897791D01*
X19116346Y5903408D01*
X19142964Y5976738D01*
X19142965Y5976742D01*
X19144784Y5981753D01*
X19145733Y5987000D01*
X19145735Y5987008D01*
X19149350Y6007003D01*
X19153004Y6021936D01*
X19160616Y6046452D01*
X19171570Y6129098D01*
X19172489Y6134964D01*
X19186580Y6212885D01*
X19186581Y6212893D01*
X19187318Y6216969D01*
X19188500Y6242032D01*
X19188500Y6248514D01*
X19189592Y6265070D01*
X19191323Y6278128D01*
X19191323Y6278131D01*
X19192023Y6283411D01*
X19188589Y6374876D01*
X19188500Y6379602D01*
X19188500Y8995441D01*
X19208502Y9063562D01*
X19262158Y9110055D01*
X19332432Y9120159D01*
X19389714Y9096529D01*
X19412538Y9079547D01*
X19423007Y9070841D01*
X19449706Y9046074D01*
X19454171Y9043157D01*
X19454172Y9043157D01*
X19480185Y9026167D01*
X19491175Y9018109D01*
X19515201Y8998409D01*
X19515209Y8998404D01*
X19519333Y8995022D01*
X19523967Y8992384D01*
X19523976Y8992378D01*
X19541629Y8982330D01*
X19554501Y8973924D01*
X19575100Y8958598D01*
X19579856Y8956180D01*
X19579864Y8956175D01*
X19607555Y8942097D01*
X19619341Y8935280D01*
X19649833Y8915364D01*
X19681757Y8901516D01*
X19683237Y8900874D01*
X19695425Y8894784D01*
X19720596Y8880456D01*
X19727066Y8876773D01*
X19751193Y8868015D01*
X19765301Y8861895D01*
X19781453Y8853683D01*
X19788172Y8850267D01*
X19816462Y8841483D01*
X19822942Y8839471D01*
X19835720Y8834731D01*
X19848024Y8829394D01*
X19869122Y8820242D01*
X19894759Y8813969D01*
X19904481Y8811590D01*
X19917526Y8807640D01*
X19951753Y8795216D01*
X19956999Y8794267D01*
X19957004Y8794266D01*
X19977003Y8790650D01*
X19991936Y8786996D01*
X20016452Y8779384D01*
X20052548Y8774600D01*
X20065925Y8772085D01*
X20101302Y8763428D01*
X20106624Y8763051D01*
X20106625Y8763051D01*
X20124929Y8761755D01*
X20137624Y8760856D01*
X20151143Y8759160D01*
X20186969Y8752682D01*
X20191110Y8752487D01*
X20191116Y8752486D01*
X20210544Y8751570D01*
X20210551Y8751570D01*
X20212032Y8751500D01*
X20218514Y8751500D01*
X20235070Y8750408D01*
X20248128Y8748677D01*
X20248131Y8748677D01*
X20253411Y8747977D01*
X20258740Y8748177D01*
X20258741Y8748177D01*
X20289798Y8749343D01*
X20303424Y8749117D01*
X20304441Y8749045D01*
X20334409Y8746923D01*
X20334412Y8746923D01*
X20339737Y8746546D01*
X20382715Y8750798D01*
X20383626Y8750888D01*
X20396031Y8751500D01*
X22758514Y8751500D01*
X22775070Y8750408D01*
X22788128Y8748677D01*
X22788131Y8748677D01*
X22793411Y8747977D01*
X22798740Y8748177D01*
X22798742Y8748177D01*
X22865997Y8750702D01*
X22873692Y8750756D01*
X22919982Y8749665D01*
X22946298Y8749045D01*
X22952589Y8749968D01*
X22953923Y8750164D01*
X22972220Y8751500D01*
X25298514Y8751500D01*
X25315070Y8750408D01*
X25328128Y8748677D01*
X25328131Y8748677D01*
X25333411Y8747977D01*
X25338740Y8748177D01*
X25338742Y8748177D01*
X25405997Y8750702D01*
X25413692Y8750756D01*
X25459982Y8749665D01*
X25486298Y8749045D01*
X25522319Y8754332D01*
X25535889Y8755579D01*
X25536849Y8755615D01*
X25572274Y8756945D01*
X25577495Y8758040D01*
X25577499Y8758041D01*
X25597383Y8762213D01*
X25612607Y8764448D01*
X25638175Y8766617D01*
X25643338Y8767957D01*
X25643349Y8767959D01*
X25673425Y8775766D01*
X25686765Y8778469D01*
X25722795Y8783757D01*
X25757408Y8795037D01*
X25770576Y8798553D01*
X25781260Y8800795D01*
X25806211Y8806030D01*
X25811179Y8807992D01*
X25830079Y8815456D01*
X25844695Y8820220D01*
X25869540Y8826668D01*
X25887440Y8834731D01*
X25902736Y8841621D01*
X25915441Y8846536D01*
X25944983Y8856164D01*
X25944991Y8856167D01*
X25950062Y8857820D01*
X25982283Y8874773D01*
X25994654Y8880450D01*
X26028533Y8893829D01*
X26050475Y8907144D01*
X26064084Y8914303D01*
X26082613Y8922650D01*
X26082618Y8922653D01*
X26087480Y8924843D01*
X26117689Y8945181D01*
X26129376Y8952162D01*
X26161602Y8969117D01*
X26190499Y8991250D01*
X26201747Y8998938D01*
X26228326Y9015067D01*
X26232883Y9017832D01*
X26252261Y9034648D01*
X26264477Y9044004D01*
X26281327Y9055348D01*
X26281329Y9055350D01*
X26285762Y9058334D01*
X26312116Y9083475D01*
X26322469Y9092332D01*
X26347127Y9111217D01*
X26347134Y9111223D01*
X26351365Y9114464D01*
X26354990Y9118372D01*
X26354999Y9118380D01*
X26376127Y9141156D01*
X26385912Y9150624D01*
X26413419Y9174493D01*
X26429689Y9194336D01*
X26440153Y9205616D01*
X26454853Y9219639D01*
X26458718Y9223326D01*
X26480453Y9252538D01*
X26489164Y9263013D01*
X26510298Y9285796D01*
X26513926Y9289707D01*
X26533837Y9320192D01*
X26541894Y9331180D01*
X26564978Y9359333D01*
X26567618Y9363970D01*
X26567623Y9363978D01*
X26577670Y9381629D01*
X26586084Y9394512D01*
X26601136Y9414742D01*
X26657847Y9457455D01*
X26728648Y9462726D01*
X26791059Y9428883D01*
X26809656Y9405364D01*
X26837691Y9359615D01*
X26843777Y9351301D01*
X26983213Y9190333D01*
X26990580Y9183117D01*
X27154434Y9047084D01*
X27162881Y9041169D01*
X27346756Y8933721D01*
X27356042Y8929271D01*
X27555001Y8853297D01*
X27564899Y8850421D01*
X27668250Y8829394D01*
X27682299Y8830590D01*
X27686000Y8840935D01*
X27686000Y8841483D01*
X28194000Y8841483D01*
X28198064Y8827641D01*
X28211478Y8825607D01*
X28218184Y8826466D01*
X28228262Y8828608D01*
X28432255Y8889809D01*
X28441842Y8893567D01*
X28633095Y8987261D01*
X28641945Y8992536D01*
X28815328Y9116208D01*
X28823200Y9122861D01*
X28974052Y9273188D01*
X28980730Y9281035D01*
X29108022Y9458181D01*
X29109147Y9457373D01*
X29156669Y9501124D01*
X29226607Y9513339D01*
X29292046Y9485803D01*
X29319870Y9453972D01*
X29377690Y9359617D01*
X29383777Y9351301D01*
X29523213Y9190333D01*
X29530580Y9183117D01*
X29694434Y9047084D01*
X29702881Y9041169D01*
X29886756Y8933721D01*
X29896042Y8929271D01*
X30095001Y8853297D01*
X30104899Y8850421D01*
X30208250Y8829394D01*
X30222299Y8830590D01*
X30226000Y8840935D01*
X30226000Y8841483D01*
X30734000Y8841483D01*
X30738064Y8827641D01*
X30751478Y8825607D01*
X30758184Y8826466D01*
X30768262Y8828608D01*
X30972255Y8889809D01*
X30981842Y8893567D01*
X31173095Y8987261D01*
X31181945Y8992536D01*
X31355328Y9116208D01*
X31363200Y9122861D01*
X31514052Y9273188D01*
X31520730Y9281035D01*
X31648022Y9458181D01*
X31649147Y9457373D01*
X31696669Y9501124D01*
X31766607Y9513339D01*
X31832046Y9485803D01*
X31859870Y9453972D01*
X31917690Y9359617D01*
X31923777Y9351301D01*
X32063213Y9190333D01*
X32070580Y9183117D01*
X32234434Y9047084D01*
X32242881Y9041169D01*
X32426756Y8933721D01*
X32436042Y8929271D01*
X32635001Y8853297D01*
X32644899Y8850421D01*
X32748250Y8829394D01*
X32762299Y8830590D01*
X32766000Y8840935D01*
X32766000Y9887885D01*
X32761525Y9903124D01*
X32760135Y9904329D01*
X32752452Y9906000D01*
X30752115Y9906000D01*
X30736876Y9901525D01*
X30735671Y9900135D01*
X30734000Y9892452D01*
X30734000Y8841483D01*
X30226000Y8841483D01*
X30226000Y9887885D01*
X30221525Y9903124D01*
X30220135Y9904329D01*
X30212452Y9906000D01*
X28212115Y9906000D01*
X28196876Y9901525D01*
X28195671Y9900135D01*
X28194000Y9892452D01*
X28194000Y8841483D01*
X27686000Y8841483D01*
X27686000Y10432115D01*
X28194000Y10432115D01*
X28198475Y10416876D01*
X28199865Y10415671D01*
X28207548Y10414000D01*
X30207885Y10414000D01*
X30223124Y10418475D01*
X30224329Y10419865D01*
X30226000Y10427548D01*
X30226000Y10432115D01*
X30734000Y10432115D01*
X30738475Y10416876D01*
X30739865Y10415671D01*
X30747548Y10414000D01*
X32747885Y10414000D01*
X32763124Y10418475D01*
X32764329Y10419865D01*
X32766000Y10427548D01*
X32766000Y12427885D01*
X32761525Y12443124D01*
X32760135Y12444329D01*
X32752452Y12446000D01*
X30752115Y12446000D01*
X30736876Y12441525D01*
X30735671Y12440135D01*
X30734000Y12432452D01*
X30734000Y10432115D01*
X30226000Y10432115D01*
X30226000Y12427885D01*
X30221525Y12443124D01*
X30220135Y12444329D01*
X30212452Y12446000D01*
X28212115Y12446000D01*
X28196876Y12441525D01*
X28195671Y12440135D01*
X28194000Y12432452D01*
X28194000Y10432115D01*
X27686000Y10432115D01*
X27686000Y12972115D01*
X28194000Y12972115D01*
X28198475Y12956876D01*
X28199865Y12955671D01*
X28207548Y12954000D01*
X30207885Y12954000D01*
X30223124Y12958475D01*
X30224329Y12959865D01*
X30226000Y12967548D01*
X30226000Y12972115D01*
X30734000Y12972115D01*
X30738475Y12956876D01*
X30739865Y12955671D01*
X30747548Y12954000D01*
X32747885Y12954000D01*
X32763124Y12958475D01*
X32764329Y12959865D01*
X32766000Y12967548D01*
X32766000Y14016898D01*
X32762082Y14030242D01*
X32747806Y14032229D01*
X32709324Y14026340D01*
X32699288Y14023949D01*
X32496868Y13957788D01*
X32487359Y13953791D01*
X32298463Y13855458D01*
X32289738Y13849964D01*
X32119433Y13722095D01*
X32111726Y13715252D01*
X31964590Y13561283D01*
X31958104Y13553273D01*
X31853193Y13399479D01*
X31798282Y13354476D01*
X31727757Y13346305D01*
X31664010Y13377559D01*
X31643313Y13402043D01*
X31562427Y13527074D01*
X31556136Y13535243D01*
X31412806Y13692760D01*
X31405273Y13699785D01*
X31238139Y13831778D01*
X31229552Y13837483D01*
X31043117Y13940401D01*
X31033705Y13944631D01*
X30832959Y14015720D01*
X30822988Y14018354D01*
X30751837Y14031028D01*
X30738540Y14029568D01*
X30734000Y14015011D01*
X30734000Y12972115D01*
X30226000Y12972115D01*
X30226000Y14016898D01*
X30222082Y14030242D01*
X30207806Y14032229D01*
X30169324Y14026340D01*
X30159288Y14023949D01*
X29956868Y13957788D01*
X29947359Y13953791D01*
X29758463Y13855458D01*
X29749738Y13849964D01*
X29579433Y13722095D01*
X29571726Y13715252D01*
X29424590Y13561283D01*
X29418104Y13553273D01*
X29313193Y13399479D01*
X29258282Y13354476D01*
X29187757Y13346305D01*
X29124010Y13377559D01*
X29103313Y13402043D01*
X29022427Y13527074D01*
X29016136Y13535243D01*
X28872806Y13692760D01*
X28865273Y13699785D01*
X28698139Y13831778D01*
X28689552Y13837483D01*
X28503117Y13940401D01*
X28493705Y13944631D01*
X28292959Y14015720D01*
X28282988Y14018354D01*
X28211837Y14031028D01*
X28198540Y14029568D01*
X28194000Y14015011D01*
X28194000Y12972115D01*
X27686000Y12972115D01*
X27686000Y14016898D01*
X27682082Y14030242D01*
X27667806Y14032229D01*
X27629324Y14026340D01*
X27619288Y14023949D01*
X27416868Y13957788D01*
X27407359Y13953791D01*
X27218463Y13855458D01*
X27209738Y13849964D01*
X27039433Y13722095D01*
X27031727Y13715253D01*
X27025595Y13708836D01*
X26964072Y13673405D01*
X26893159Y13676861D01*
X26835372Y13718106D01*
X26809058Y13784046D01*
X26808500Y13795886D01*
X26808500Y15750319D01*
X26808815Y15759218D01*
X26813077Y15819409D01*
X26813077Y15819412D01*
X26813454Y15824737D01*
X26804112Y15919165D01*
X26803500Y15931570D01*
X26803500Y18248514D01*
X26804592Y18265070D01*
X26806323Y18278128D01*
X26806323Y18278131D01*
X26807023Y18283411D01*
X26804893Y18340157D01*
X26803589Y18374875D01*
X26803500Y18379602D01*
X26803500Y19000319D01*
X26803815Y19009218D01*
X26808077Y19069409D01*
X26808077Y19069412D01*
X26808454Y19074737D01*
X26804112Y19118626D01*
X26803500Y19131031D01*
X26803500Y21483514D01*
X26804592Y21500070D01*
X26806323Y21513128D01*
X26806323Y21513131D01*
X26807023Y21518411D01*
X26803589Y21609876D01*
X26803500Y21614602D01*
X26803500Y22219390D01*
X26823502Y22287511D01*
X26840405Y22308485D01*
X27216515Y22684595D01*
X27278827Y22718621D01*
X27305610Y22721500D01*
X45665319Y22721500D01*
X45674218Y22721185D01*
X45734409Y22716923D01*
X45734412Y22716923D01*
X45739737Y22716546D01*
X45792439Y22721760D01*
X45847979Y22727254D01*
X45849730Y22727415D01*
X45893952Y22731168D01*
X45958175Y22736617D01*
X45963345Y22737959D01*
X45967826Y22738725D01*
X45972298Y22739554D01*
X45977607Y22740079D01*
X46082558Y22768889D01*
X46084180Y22769322D01*
X46189540Y22796668D01*
X46194409Y22798862D01*
X46198732Y22800384D01*
X46202966Y22801942D01*
X46208111Y22803354D01*
X46306669Y22849417D01*
X46308263Y22850149D01*
X46407480Y22894843D01*
X46411907Y22897823D01*
X46415885Y22900037D01*
X46419827Y22902304D01*
X46424658Y22904562D01*
X46429038Y22907601D01*
X46429044Y22907604D01*
X46514018Y22966554D01*
X46515472Y22967548D01*
X46601334Y23025353D01*
X46605762Y23028334D01*
X46609626Y23032020D01*
X46613780Y23035360D01*
X46613977Y23035115D01*
X46614591Y23035616D01*
X46614399Y23035858D01*
X46617644Y23038441D01*
X46621057Y23040809D01*
X46631852Y23050631D01*
X46638510Y23056689D01*
X46638522Y23056701D01*
X46639615Y23057695D01*
X46702235Y23120315D01*
X46704358Y23122390D01*
X46774861Y23189647D01*
X46778718Y23193326D01*
X46783322Y23199514D01*
X46795316Y23213396D01*
X51346515Y27764595D01*
X51408827Y27798621D01*
X51435610Y27801500D01*
X54555319Y27801500D01*
X54564218Y27801185D01*
X54624409Y27796923D01*
X54624412Y27796923D01*
X54629737Y27796546D01*
X54682439Y27801760D01*
X54737979Y27807254D01*
X54739730Y27807415D01*
X54783952Y27811168D01*
X54848175Y27816617D01*
X54853345Y27817959D01*
X54857826Y27818725D01*
X54862298Y27819554D01*
X54867607Y27820079D01*
X54972558Y27848889D01*
X54974180Y27849322D01*
X55079540Y27876668D01*
X55084409Y27878862D01*
X55088732Y27880384D01*
X55092966Y27881942D01*
X55098111Y27883354D01*
X55196669Y27929417D01*
X55198263Y27930149D01*
X55297480Y27974843D01*
X55301907Y27977823D01*
X55305885Y27980037D01*
X55309827Y27982304D01*
X55314658Y27984562D01*
X55319038Y27987601D01*
X55319044Y27987604D01*
X55404018Y28046554D01*
X55405472Y28047548D01*
X55491334Y28105353D01*
X55495762Y28108334D01*
X55499626Y28112020D01*
X55503780Y28115360D01*
X55503977Y28115115D01*
X55504591Y28115616D01*
X55504399Y28115858D01*
X55507644Y28118441D01*
X55511057Y28120809D01*
X55514129Y28123604D01*
X55528510Y28136689D01*
X55528522Y28136701D01*
X55529615Y28137695D01*
X55592235Y28200315D01*
X55594358Y28202390D01*
X55664861Y28269647D01*
X55668718Y28273326D01*
X55673322Y28279514D01*
X55685316Y28293396D01*
X56837284Y29445364D01*
X56843799Y29451435D01*
X56889386Y29490993D01*
X56889388Y29490995D01*
X56893419Y29494493D01*
X56962415Y29578640D01*
X56963487Y29579929D01*
X56971365Y29589267D01*
X57020166Y29647117D01*
X57030241Y29659060D01*
X57030242Y29659061D01*
X57033686Y29663144D01*
X57036394Y29667751D01*
X57038980Y29671403D01*
X57041595Y29675207D01*
X57044978Y29679333D01*
X57047614Y29683963D01*
X57047617Y29683968D01*
X57098788Y29773862D01*
X57099668Y29775383D01*
X57152119Y29864607D01*
X57152120Y29864608D01*
X57154823Y29869207D01*
X57156714Y29874198D01*
X57158696Y29878335D01*
X57160588Y29882429D01*
X57163227Y29887066D01*
X57200348Y29989334D01*
X57200960Y29990984D01*
X57237619Y30087744D01*
X57239510Y30092734D01*
X57240533Y30097974D01*
X57241776Y30102335D01*
X57242964Y30106739D01*
X57244784Y30111753D01*
X57246593Y30121753D01*
X57264137Y30218774D01*
X57264462Y30220502D01*
X57284302Y30322096D01*
X57284303Y30322104D01*
X57285324Y30327333D01*
X57285449Y30332663D01*
X57286026Y30337973D01*
X57286403Y30337932D01*
X57286482Y30338710D01*
X57286110Y30338752D01*
X57286578Y30342880D01*
X57287318Y30346969D01*
X57288500Y30372032D01*
X57288500Y30460631D01*
X57288535Y30463599D01*
X57290481Y30546180D01*
X57290955Y30566298D01*
X57290032Y30572589D01*
X57289836Y30573923D01*
X57288500Y30592220D01*
X57288500Y34015500D01*
X57308502Y34083621D01*
X57362158Y34130114D01*
X57414500Y34141500D01*
X58540034Y34141500D01*
X58608155Y34121498D01*
X58654648Y34067842D01*
X58664752Y33997568D01*
X58637468Y33935609D01*
X58621159Y33915719D01*
X58538406Y33814795D01*
X58538402Y33814789D01*
X58535022Y33810667D01*
X58532383Y33806031D01*
X58532381Y33806028D01*
X58484492Y33721899D01*
X58416773Y33602934D01*
X58335216Y33378247D01*
X58334267Y33372998D01*
X58334266Y33372995D01*
X58293420Y33147115D01*
X58293419Y33147107D01*
X58292682Y33143031D01*
X58291500Y33117968D01*
X58291500Y30679799D01*
X58289164Y30655649D01*
X58285698Y30637903D01*
X58285697Y30637897D01*
X58284676Y30632667D01*
X58284550Y30627337D01*
X58284550Y30627333D01*
X58283226Y30571126D01*
X58279045Y30393702D01*
X58313757Y30157204D01*
X58387820Y29929938D01*
X58499116Y29718398D01*
X58644463Y29528634D01*
X58648373Y29525007D01*
X58774838Y29407695D01*
X58819706Y29366074D01*
X58824161Y29363164D01*
X58824164Y29363162D01*
X58917303Y29302330D01*
X59019833Y29235364D01*
X59157443Y29175672D01*
X59211976Y29130215D01*
X59233277Y29062489D01*
X59214581Y28993998D01*
X59183133Y28959456D01*
X59131084Y28920235D01*
X59129416Y28919001D01*
X59030808Y28847358D01*
X59024847Y28841602D01*
X59023680Y28840475D01*
X59011988Y28830490D01*
X59007607Y28827188D01*
X59004088Y28824536D01*
X58918012Y28738460D01*
X58916444Y28736918D01*
X58828748Y28652231D01*
X58822685Y28644470D01*
X58822647Y28644422D01*
X58812452Y28632900D01*
X52544957Y22365405D01*
X52482645Y22331379D01*
X52455862Y22328500D01*
X40751867Y22328500D01*
X40738697Y22329190D01*
X40714636Y22331719D01*
X40714633Y22331719D01*
X40710267Y22332178D01*
X40705879Y22332025D01*
X40705873Y22332025D01*
X40607146Y22328577D01*
X40602749Y22328500D01*
X38211867Y22328500D01*
X38198697Y22329190D01*
X38174636Y22331719D01*
X38174633Y22331719D01*
X38170267Y22332178D01*
X38165879Y22332025D01*
X38165873Y22332025D01*
X38123043Y22330529D01*
X38112052Y22330625D01*
X38069259Y22332868D01*
X38069253Y22332868D01*
X38064862Y22333098D01*
X38060484Y22332715D01*
X38060483Y22332715D01*
X38052597Y22332025D01*
X37980594Y22325726D01*
X37974044Y22325326D01*
X37935849Y22323992D01*
X37893939Y22322529D01*
X37893933Y22322528D01*
X37889542Y22322375D01*
X37885217Y22321612D01*
X37885213Y22321612D01*
X37867975Y22318572D01*
X37861394Y22317412D01*
X37848307Y22315805D01*
X37842749Y22315417D01*
X37824173Y22314118D01*
X37824168Y22314117D01*
X37819788Y22313811D01*
X37810107Y22311753D01*
X37794900Y22309481D01*
X37789425Y22309002D01*
X37789412Y22309000D01*
X37785034Y22308617D01*
X37780755Y22307629D01*
X37780748Y22307628D01*
X37702637Y22289595D01*
X37696175Y22288280D01*
X37674955Y22284538D01*
X37612913Y22273598D01*
X37585724Y22264764D01*
X37572993Y22261353D01*
X37545030Y22255409D01*
X37540909Y22253909D01*
X37540905Y22253908D01*
X37538620Y22253076D01*
X37535719Y22252020D01*
X37520981Y22247655D01*
X37511337Y22245428D01*
X37507226Y22243850D01*
X37507223Y22243849D01*
X37432410Y22215131D01*
X37426194Y22212930D01*
X37345765Y22186797D01*
X37341812Y22184869D01*
X37341807Y22184867D01*
X37320071Y22174265D01*
X37307930Y22169112D01*
X37285218Y22160846D01*
X37285209Y22160842D01*
X37281074Y22159337D01*
X37272338Y22154692D01*
X37258348Y22148317D01*
X37253208Y22146344D01*
X37253193Y22146337D01*
X37249098Y22144765D01*
X37245251Y22142633D01*
X37245252Y22142633D01*
X37175130Y22103764D01*
X37169281Y22100719D01*
X37093298Y22063660D01*
X37069591Y22047670D01*
X37058302Y22040887D01*
X37033058Y22027464D01*
X37029501Y22024879D01*
X37029495Y22024876D01*
X37025047Y22021645D01*
X37012074Y22013380D01*
X37003421Y22008583D01*
X36999910Y22005937D01*
X36935900Y21957702D01*
X36930529Y21953871D01*
X36860424Y21906585D01*
X36839171Y21887450D01*
X36828949Y21879171D01*
X36805808Y21862358D01*
X36802640Y21859299D01*
X36802639Y21859298D01*
X36798680Y21855475D01*
X36786988Y21845490D01*
X36782607Y21842188D01*
X36779088Y21839536D01*
X36719317Y21779765D01*
X36714533Y21775224D01*
X36651678Y21718629D01*
X36648857Y21715267D01*
X36648854Y21715264D01*
X36633306Y21696735D01*
X36624314Y21687093D01*
X36606920Y21670295D01*
X36606915Y21670289D01*
X36603748Y21667231D01*
X36601041Y21663766D01*
X36601040Y21663765D01*
X36597647Y21659422D01*
X36587452Y21647900D01*
X35599317Y20659765D01*
X35594533Y20655224D01*
X35531678Y20598629D01*
X35475902Y20532158D01*
X35453376Y20505313D01*
X35451965Y20503661D01*
X35372023Y20411697D01*
X35369629Y20408011D01*
X35369624Y20408004D01*
X35366632Y20403397D01*
X35357488Y20391039D01*
X35353953Y20386826D01*
X35353948Y20386819D01*
X35351121Y20383450D01*
X35304860Y20309416D01*
X35286580Y20280162D01*
X35285399Y20278307D01*
X35219036Y20176118D01*
X35217173Y20172124D01*
X35217173Y20172123D01*
X35214850Y20167143D01*
X35207518Y20153637D01*
X35202269Y20145236D01*
X35200483Y20141224D01*
X35200479Y20141217D01*
X35152729Y20033968D01*
X35151817Y20031967D01*
X35100324Y19921540D01*
X35099039Y19917338D01*
X35099039Y19917337D01*
X35097430Y19912073D01*
X35092042Y19897663D01*
X35088018Y19888625D01*
X35080176Y19861276D01*
X35054435Y19771505D01*
X35053817Y19769417D01*
X35018199Y19652917D01*
X35016650Y19643135D01*
X35013320Y19628121D01*
X35010593Y19618610D01*
X35009981Y19614257D01*
X35009980Y19614251D01*
X34993646Y19498022D01*
X34993321Y19495846D01*
X34974256Y19375480D01*
X34974179Y19371084D01*
X34974179Y19371080D01*
X34974083Y19365570D01*
X34972876Y19350240D01*
X34971500Y19340448D01*
X34971500Y19218688D01*
X34971481Y19216490D01*
X34969354Y19094626D01*
X34969889Y19090270D01*
X34969889Y19090267D01*
X34970561Y19084796D01*
X34971500Y19069440D01*
X34971500Y18115610D01*
X34951498Y18047489D01*
X34934595Y18026515D01*
X34635806Y17727726D01*
X34623328Y17716792D01*
X34612871Y17708783D01*
X34612866Y17708778D01*
X34608634Y17705537D01*
X34605005Y17701625D01*
X34605004Y17701624D01*
X34583870Y17678841D01*
X34574078Y17669367D01*
X34546581Y17645507D01*
X34543198Y17641381D01*
X34543193Y17641376D01*
X34500531Y17589345D01*
X34495472Y17583546D01*
X34446074Y17530294D01*
X34434071Y17511916D01*
X34432044Y17508813D01*
X34422861Y17496471D01*
X34406314Y17476855D01*
X34403609Y17472254D01*
X34400968Y17468524D01*
X34398398Y17464785D01*
X34395022Y17460667D01*
X34392389Y17456041D01*
X34392388Y17456040D01*
X34359090Y17397544D01*
X34355095Y17390998D01*
X34315364Y17330167D01*
X34313245Y17325281D01*
X34305153Y17306627D01*
X34298182Y17292917D01*
X34287884Y17275398D01*
X34285177Y17270793D01*
X34283285Y17265800D01*
X34281304Y17261665D01*
X34279412Y17257571D01*
X34276773Y17252934D01*
X34261400Y17210582D01*
X34251991Y17184660D01*
X34249145Y17177509D01*
X34234779Y17144390D01*
X34220242Y17110878D01*
X34218975Y17105699D01*
X34218974Y17105697D01*
X34214143Y17085954D01*
X34209581Y17071263D01*
X34200490Y17047266D01*
X34199467Y17042026D01*
X34198224Y17037665D01*
X34197036Y17033261D01*
X34195216Y17028247D01*
X34194267Y17022998D01*
X34194266Y17022995D01*
X34182293Y16956783D01*
X34180693Y16949256D01*
X34166006Y16889232D01*
X34163428Y16878698D01*
X34161615Y16853094D01*
X34159595Y16837857D01*
X34155699Y16817908D01*
X34155698Y16817902D01*
X34154676Y16812667D01*
X34154550Y16807334D01*
X34153974Y16802027D01*
X34153597Y16802068D01*
X34153518Y16801290D01*
X34153890Y16801248D01*
X34153422Y16797120D01*
X34152682Y16793031D01*
X34151500Y16767968D01*
X34151500Y16714681D01*
X34151185Y16705782D01*
X34146546Y16640263D01*
X34147072Y16634947D01*
X34149072Y16614724D01*
X34149649Y16599355D01*
X34149306Y16584786D01*
X34149045Y16573702D01*
X34149968Y16567411D01*
X34150164Y16566077D01*
X34151500Y16547780D01*
X34151500Y13796980D01*
X34131498Y13728859D01*
X34077842Y13682366D01*
X34007568Y13672262D01*
X33947408Y13698098D01*
X33778139Y13831778D01*
X33769552Y13837483D01*
X33583117Y13940401D01*
X33573705Y13944631D01*
X33372959Y14015720D01*
X33362988Y14018354D01*
X33291837Y14031028D01*
X33278540Y14029568D01*
X33274000Y14015011D01*
X33274000Y8841483D01*
X33278064Y8827641D01*
X33291478Y8825607D01*
X33298184Y8826466D01*
X33308262Y8828608D01*
X33512255Y8889809D01*
X33521842Y8893567D01*
X33713095Y8987261D01*
X33721945Y8992536D01*
X33895328Y9116208D01*
X33903200Y9122861D01*
X34054052Y9273188D01*
X34060730Y9281035D01*
X34157953Y9416335D01*
X34213947Y9459983D01*
X34284651Y9466429D01*
X34347615Y9433626D01*
X34364793Y9413179D01*
X34370055Y9405364D01*
X34371396Y9403372D01*
X34374568Y9398412D01*
X34417832Y9327117D01*
X34421328Y9323088D01*
X34421329Y9323087D01*
X34434647Y9307740D01*
X34444004Y9295523D01*
X34455352Y9278666D01*
X34455358Y9278658D01*
X34458334Y9274238D01*
X34462013Y9270381D01*
X34462019Y9270374D01*
X34515872Y9213922D01*
X34519863Y9209537D01*
X34574493Y9146581D01*
X34594278Y9130358D01*
X34594336Y9130311D01*
X34605616Y9119847D01*
X34616479Y9108460D01*
X34623326Y9101282D01*
X34690222Y9051510D01*
X34694873Y9047876D01*
X34755205Y8998406D01*
X34755211Y8998402D01*
X34759333Y8995022D01*
X34763967Y8992384D01*
X34763976Y8992378D01*
X34781629Y8982330D01*
X34794501Y8973924D01*
X34815100Y8958598D01*
X34889415Y8920815D01*
X34894623Y8918010D01*
X34962417Y8879418D01*
X34962426Y8879414D01*
X34967066Y8876773D01*
X34991193Y8868015D01*
X35005301Y8861895D01*
X35009628Y8859695D01*
X35028172Y8850267D01*
X35033263Y8848686D01*
X35033266Y8848685D01*
X35056461Y8841483D01*
X35107791Y8825545D01*
X35113398Y8823657D01*
X35140089Y8813969D01*
X35186738Y8797036D01*
X35186742Y8797035D01*
X35191753Y8795216D01*
X35197000Y8794267D01*
X35197008Y8794265D01*
X35217003Y8790650D01*
X35231936Y8786996D01*
X35256452Y8779384D01*
X35337584Y8768631D01*
X35339098Y8768430D01*
X35344964Y8767511D01*
X35422885Y8753420D01*
X35422893Y8753419D01*
X35426969Y8752682D01*
X35445359Y8751815D01*
X35450544Y8751570D01*
X35450551Y8751570D01*
X35452032Y8751500D01*
X35458514Y8751500D01*
X35475070Y8750408D01*
X35488128Y8748677D01*
X35488131Y8748677D01*
X35493411Y8747977D01*
X35498740Y8748177D01*
X35498741Y8748177D01*
X35584875Y8751411D01*
X35589602Y8751500D01*
X38045319Y8751500D01*
X38054218Y8751185D01*
X38114409Y8746923D01*
X38114412Y8746923D01*
X38119737Y8746546D01*
X38125065Y8747073D01*
X38145277Y8749072D01*
X38160645Y8749649D01*
X38175443Y8749301D01*
X38186298Y8749045D01*
X38192589Y8749968D01*
X38193923Y8750164D01*
X38212220Y8751500D01*
X40538514Y8751500D01*
X40555070Y8750408D01*
X40568128Y8748677D01*
X40568131Y8748677D01*
X40573411Y8747977D01*
X40578740Y8748177D01*
X40578742Y8748177D01*
X40645997Y8750702D01*
X40653692Y8750756D01*
X40699982Y8749665D01*
X40726298Y8749045D01*
X40762319Y8754332D01*
X40775889Y8755579D01*
X40776849Y8755615D01*
X40812274Y8756945D01*
X40817495Y8758040D01*
X40817499Y8758041D01*
X40837383Y8762213D01*
X40852607Y8764448D01*
X40878175Y8766617D01*
X40883338Y8767957D01*
X40883349Y8767959D01*
X40913425Y8775766D01*
X40926765Y8778469D01*
X40962795Y8783757D01*
X40997408Y8795037D01*
X41010576Y8798553D01*
X41021260Y8800795D01*
X41046211Y8806030D01*
X41051179Y8807992D01*
X41070079Y8815456D01*
X41084695Y8820220D01*
X41109540Y8826668D01*
X41127440Y8834731D01*
X41142736Y8841621D01*
X41155441Y8846536D01*
X41184983Y8856164D01*
X41184991Y8856167D01*
X41190062Y8857820D01*
X41222283Y8874773D01*
X41234654Y8880450D01*
X41268533Y8893829D01*
X41290475Y8907144D01*
X41304084Y8914303D01*
X41322613Y8922650D01*
X41322618Y8922653D01*
X41327480Y8924843D01*
X41357689Y8945181D01*
X41369376Y8952162D01*
X41401602Y8969117D01*
X41430499Y8991250D01*
X41441747Y8998938D01*
X41468326Y9015067D01*
X41472883Y9017832D01*
X41492261Y9034648D01*
X41504477Y9044004D01*
X41521327Y9055348D01*
X41521329Y9055350D01*
X41525762Y9058334D01*
X41552116Y9083475D01*
X41562477Y9092338D01*
X41568894Y9097252D01*
X41635139Y9122788D01*
X41704674Y9108456D01*
X41755421Y9058805D01*
X41771500Y8997215D01*
X41771500Y8944681D01*
X41771185Y8935782D01*
X41767268Y8880456D01*
X41766546Y8870263D01*
X41770061Y8834731D01*
X41770888Y8826374D01*
X41771500Y8813969D01*
X41771500Y3864681D01*
X41771185Y3855782D01*
X41766546Y3790263D01*
X41767072Y3784947D01*
X41769072Y3764724D01*
X41769649Y3749355D01*
X41769045Y3723702D01*
X41769821Y3718416D01*
X41770164Y3716077D01*
X41771500Y3697780D01*
X41771500Y2594681D01*
X41771185Y2585782D01*
X41766546Y2520263D01*
X41767072Y2514949D01*
X41777254Y2412021D01*
X41777415Y2410270D01*
X41786617Y2301825D01*
X41787959Y2296655D01*
X41788725Y2292174D01*
X41789554Y2287702D01*
X41790079Y2282393D01*
X41791491Y2277251D01*
X41818874Y2177499D01*
X41819322Y2175820D01*
X41846668Y2070460D01*
X41848862Y2065591D01*
X41850384Y2061268D01*
X41851942Y2057034D01*
X41853354Y2051889D01*
X41855614Y2047054D01*
X41899415Y1953336D01*
X41900147Y1951741D01*
X41944843Y1852520D01*
X41947823Y1848093D01*
X41950037Y1844115D01*
X41952304Y1840173D01*
X41954562Y1835342D01*
X41957601Y1830962D01*
X41957604Y1830956D01*
X42016554Y1745982D01*
X42017548Y1744528D01*
X42078334Y1654238D01*
X42082020Y1650374D01*
X42085360Y1646220D01*
X42085115Y1646023D01*
X42085616Y1645409D01*
X42085858Y1645601D01*
X42088441Y1642356D01*
X42090809Y1638943D01*
X42093602Y1635873D01*
X42093604Y1635871D01*
X42106689Y1621490D01*
X42106701Y1621478D01*
X42107695Y1620385D01*
X42170315Y1557765D01*
X42172390Y1555642D01*
X42243326Y1481282D01*
X42247604Y1478099D01*
X42249514Y1476678D01*
X42263396Y1464684D01*
X43004485Y723595D01*
X43038511Y661283D01*
X43033446Y590468D01*
X42990899Y533632D01*
X42924379Y508821D01*
X42915390Y508500D01*
X634500Y508500D01*
X566379Y528502D01*
X519886Y582158D01*
X508500Y634500D01*
X508500Y73025500D01*
X528502Y73093621D01*
X582158Y73140114D01*
X634500Y73151500D01*
X95885500Y73151500D01*
X95953621Y73131498D01*
G37*
%TD.AperFunction*%
%TA.AperFunction,Conductor*%
G36*
X31832046Y12025803D02*
G01*
X31859870Y11993972D01*
X31917690Y11899617D01*
X31923777Y11891301D01*
X32063213Y11730333D01*
X32070580Y11723117D01*
X32234434Y11587084D01*
X32242881Y11581169D01*
X32312479Y11540499D01*
X32361203Y11488860D01*
X32374274Y11419077D01*
X32347543Y11353306D01*
X32307087Y11319947D01*
X32298462Y11315458D01*
X32289738Y11309964D01*
X32119433Y11182095D01*
X32111726Y11175252D01*
X31964590Y11021283D01*
X31958104Y11013273D01*
X31853193Y10859479D01*
X31798282Y10814476D01*
X31727757Y10806305D01*
X31664010Y10837559D01*
X31643313Y10862043D01*
X31562427Y10987074D01*
X31556136Y10995243D01*
X31412806Y11152760D01*
X31405273Y11159785D01*
X31238139Y11291778D01*
X31229552Y11297483D01*
X31192116Y11318149D01*
X31142146Y11368581D01*
X31127374Y11438024D01*
X31152490Y11504429D01*
X31179842Y11531036D01*
X31355327Y11656208D01*
X31363200Y11662861D01*
X31514052Y11813188D01*
X31520730Y11821035D01*
X31648022Y11998181D01*
X31649147Y11997373D01*
X31696669Y12041124D01*
X31766607Y12053339D01*
X31832046Y12025803D01*
G37*
%TD.AperFunction*%
%TA.AperFunction,Conductor*%
G36*
X88332511Y32861498D02*
G01*
X88353485Y32844595D01*
X88724595Y32473485D01*
X88758621Y32411173D01*
X88761500Y32384390D01*
X88761500Y28575609D01*
X88741498Y28507488D01*
X88724595Y28486514D01*
X87083485Y26845405D01*
X87021173Y26811379D01*
X86994390Y26808500D01*
X82847329Y26808500D01*
X82779208Y26828502D01*
X82755668Y26850407D01*
X82754992Y26849731D01*
X82748642Y26856081D01*
X82743261Y26863261D01*
X82626705Y26950615D01*
X82490316Y27001745D01*
X82428134Y27008500D01*
X80131866Y27008500D01*
X80069684Y27001745D01*
X79933295Y26950615D01*
X79816739Y26863261D01*
X79729385Y26746705D01*
X79678255Y26610316D01*
X79671500Y26548134D01*
X79671500Y24251866D01*
X79678255Y24189684D01*
X79729385Y24053295D01*
X79816739Y23936739D01*
X79933295Y23849385D01*
X80069684Y23798255D01*
X80131866Y23791500D01*
X82428134Y23791500D01*
X82490316Y23798255D01*
X82626705Y23849385D01*
X82743261Y23936739D01*
X82748642Y23943919D01*
X82754992Y23950269D01*
X82756627Y23948634D01*
X82803359Y23983579D01*
X82847329Y23991500D01*
X86994390Y23991500D01*
X87062511Y23971498D01*
X87083485Y23954595D01*
X88724595Y22313486D01*
X88758620Y22251174D01*
X88761500Y22224391D01*
X88761500Y20955610D01*
X88741498Y20887489D01*
X88724595Y20866515D01*
X88353485Y20495405D01*
X88291173Y20461379D01*
X88264390Y20458500D01*
X87994236Y20458500D01*
X87926115Y20478502D01*
X87879622Y20532158D01*
X87868792Y20589366D01*
X87868500Y20589366D01*
X87868500Y22590634D01*
X87861745Y22652816D01*
X87810615Y22789205D01*
X87723261Y22905761D01*
X87606705Y22993115D01*
X87470316Y23044245D01*
X87408134Y23051000D01*
X85311866Y23051000D01*
X85308469Y23050631D01*
X85257534Y23045098D01*
X85257532Y23045098D01*
X85249684Y23044245D01*
X85242291Y23041473D01*
X85242289Y23041473D01*
X85149047Y23006518D01*
X85104818Y22998500D01*
X76139988Y22998500D01*
X75961825Y22983383D01*
X75956661Y22982043D01*
X75956657Y22982042D01*
X75735625Y22924673D01*
X75735620Y22924671D01*
X75730460Y22923332D01*
X75725594Y22921140D01*
X75517381Y22827347D01*
X75517378Y22827346D01*
X75512520Y22825157D01*
X75314238Y22691666D01*
X75310381Y22687987D01*
X75310379Y22687985D01*
X75238731Y22619636D01*
X75141282Y22526674D01*
X74998598Y22334900D01*
X74996182Y22330149D01*
X74996180Y22330145D01*
X74901929Y22144765D01*
X74890267Y22121828D01*
X74860966Y22027464D01*
X74820968Y21898651D01*
X74820967Y21898645D01*
X74819384Y21893548D01*
X74804303Y21779765D01*
X74789388Y21667231D01*
X74787977Y21656589D01*
X74796945Y21417726D01*
X74846030Y21183789D01*
X74933829Y20961467D01*
X75057832Y20757117D01*
X75061329Y20753087D01*
X75203399Y20589366D01*
X75214493Y20576581D01*
X75218619Y20573198D01*
X75218623Y20573194D01*
X75334109Y20478502D01*
X75399333Y20425022D01*
X75403969Y20422383D01*
X75403972Y20422381D01*
X75472364Y20383450D01*
X75607066Y20306773D01*
X75831753Y20225216D01*
X75837002Y20224267D01*
X75837005Y20224266D01*
X76062885Y20183420D01*
X76062893Y20183419D01*
X76066969Y20182682D01*
X76085359Y20181815D01*
X76090544Y20181570D01*
X76090551Y20181570D01*
X76092032Y20181500D01*
X85084265Y20181500D01*
X85152386Y20161498D01*
X85198879Y20107842D01*
X85208983Y20037568D01*
X85183147Y19977408D01*
X85094633Y19865330D01*
X85094630Y19865325D01*
X85091432Y19861276D01*
X85088939Y19856760D01*
X85088937Y19856757D01*
X85041300Y19770462D01*
X84975326Y19650950D01*
X84973602Y19646081D01*
X84973600Y19646077D01*
X84962330Y19614251D01*
X84895130Y19424485D01*
X84894223Y19419392D01*
X84894222Y19419389D01*
X84858472Y19218688D01*
X84852999Y19187963D01*
X84850064Y18947737D01*
X84886404Y18710256D01*
X84912869Y18629285D01*
X84959434Y18486817D01*
X84959437Y18486811D01*
X84961042Y18481899D01*
X84963429Y18477313D01*
X84963431Y18477309D01*
X85052140Y18306902D01*
X85071975Y18268800D01*
X85075085Y18264658D01*
X85134519Y18185500D01*
X85216223Y18076680D01*
X85389912Y17910699D01*
X85427351Y17885160D01*
X85472352Y17830249D01*
X85480523Y17759725D01*
X85449269Y17695978D01*
X85424790Y17675284D01*
X85422674Y17673915D01*
X85414502Y17667622D01*
X85244520Y17512950D01*
X85237494Y17505417D01*
X85095055Y17325056D01*
X85089350Y17316469D01*
X84978286Y17115278D01*
X84974056Y17105866D01*
X84897341Y16889232D01*
X84894707Y16879261D01*
X84877353Y16781837D01*
X84878813Y16768540D01*
X84893370Y16764000D01*
X87828096Y16764000D01*
X87841440Y16767918D01*
X87843427Y16782194D01*
X87833890Y16844515D01*
X87831501Y16854543D01*
X87760102Y17072988D01*
X87756105Y17082497D01*
X87649989Y17286344D01*
X87644495Y17295069D01*
X87535792Y17439847D01*
X87510886Y17506332D01*
X87525878Y17575727D01*
X87576009Y17626001D01*
X87636552Y17641500D01*
X88264390Y17641500D01*
X88332511Y17621498D01*
X88353485Y17604595D01*
X88724595Y17233485D01*
X88758621Y17171173D01*
X88761500Y17144390D01*
X88761500Y14605610D01*
X88741498Y14537489D01*
X88724595Y14516515D01*
X87340806Y13132726D01*
X87328328Y13121792D01*
X87313634Y13110537D01*
X87310004Y13106623D01*
X87310001Y13106621D01*
X87251354Y13043399D01*
X87248074Y13039994D01*
X86440806Y12232726D01*
X86428328Y12221792D01*
X86413634Y12210537D01*
X86410004Y12206623D01*
X86410001Y12206621D01*
X86351354Y12143399D01*
X86348074Y12139994D01*
X85402716Y11194636D01*
X85396201Y11188565D01*
X85346581Y11145507D01*
X85343194Y11141376D01*
X85318615Y11111400D01*
X85310276Y11102196D01*
X84863485Y10655405D01*
X84801173Y10621379D01*
X84774390Y10618500D01*
X60495610Y10618500D01*
X60427489Y10638502D01*
X60406515Y10655405D01*
X58769636Y12292284D01*
X58763565Y12298799D01*
X58724007Y12344386D01*
X58724005Y12344388D01*
X58720507Y12348419D01*
X58686400Y12376385D01*
X58677196Y12384724D01*
X57404636Y13657284D01*
X57398565Y13663799D01*
X57359007Y13709386D01*
X57359005Y13709388D01*
X57355507Y13713419D01*
X57351381Y13716802D01*
X57351377Y13716806D01*
X57311104Y13749827D01*
X57271360Y13782416D01*
X57270108Y13783457D01*
X57206063Y13837483D01*
X57190931Y13850248D01*
X57190928Y13850250D01*
X57186855Y13853686D01*
X57182257Y13856389D01*
X57178537Y13859023D01*
X57174784Y13861602D01*
X57170667Y13864978D01*
X57166043Y13867610D01*
X57166036Y13867615D01*
X57113637Y13897442D01*
X57093754Y13912603D01*
X57093261Y13913261D01*
X56976705Y14000615D01*
X56840316Y14051745D01*
X56778134Y14058500D01*
X56774718Y14058500D01*
X56771320Y14058684D01*
X56771347Y14059184D01*
X56743688Y14062849D01*
X56743262Y14062964D01*
X56738247Y14064784D01*
X56732998Y14065733D01*
X56732995Y14065734D01*
X56631226Y14084137D01*
X56629498Y14084462D01*
X56527904Y14104302D01*
X56527896Y14104303D01*
X56522667Y14105324D01*
X56517337Y14105449D01*
X56512027Y14106026D01*
X56512068Y14106403D01*
X56511290Y14106482D01*
X56511248Y14106110D01*
X56507120Y14106578D01*
X56503031Y14107318D01*
X56498877Y14107514D01*
X56498876Y14107514D01*
X56479456Y14108430D01*
X56479449Y14108430D01*
X56477968Y14108500D01*
X56389369Y14108500D01*
X56386401Y14108535D01*
X56383493Y14108604D01*
X56283702Y14110955D01*
X56277411Y14110032D01*
X56276077Y14109836D01*
X56257780Y14108500D01*
X55981486Y14108500D01*
X55964930Y14109592D01*
X55951872Y14111323D01*
X55951869Y14111323D01*
X55946589Y14112023D01*
X55941260Y14111823D01*
X55941259Y14111823D01*
X55855125Y14108589D01*
X55850398Y14108500D01*
X53441486Y14108500D01*
X53424930Y14109592D01*
X53411872Y14111323D01*
X53411869Y14111323D01*
X53406589Y14112023D01*
X53401260Y14111823D01*
X53401258Y14111823D01*
X53334008Y14109298D01*
X53326313Y14109244D01*
X53279328Y14110351D01*
X53253702Y14110955D01*
X53247411Y14110032D01*
X53246077Y14109836D01*
X53227780Y14108500D01*
X50901486Y14108500D01*
X50884930Y14109592D01*
X50871872Y14111323D01*
X50871869Y14111323D01*
X50866589Y14112023D01*
X50861260Y14111823D01*
X50861258Y14111823D01*
X50794008Y14109298D01*
X50786313Y14109244D01*
X50739328Y14110351D01*
X50713702Y14110955D01*
X50680120Y14106026D01*
X50677681Y14105668D01*
X50664110Y14104421D01*
X50627726Y14103055D01*
X50622505Y14101960D01*
X50622501Y14101959D01*
X50602617Y14097787D01*
X50587393Y14095552D01*
X50581865Y14095083D01*
X50567138Y14093834D01*
X50567135Y14093834D01*
X50561825Y14093383D01*
X50526564Y14084231D01*
X50513228Y14081531D01*
X50506996Y14080616D01*
X50482493Y14077020D01*
X50482486Y14077018D01*
X50477204Y14076243D01*
X50442585Y14064961D01*
X50429428Y14061448D01*
X50399007Y14055065D01*
X50399006Y14055065D01*
X50393789Y14053970D01*
X50388827Y14052010D01*
X50388826Y14052010D01*
X50369921Y14044544D01*
X50355305Y14039780D01*
X50330460Y14033332D01*
X50325588Y14031137D01*
X50325587Y14031137D01*
X50297264Y14018379D01*
X50284559Y14013464D01*
X50255013Y14003835D01*
X50255002Y14003830D01*
X50249938Y14002180D01*
X50217711Y13985225D01*
X50205340Y13979548D01*
X50171467Y13966171D01*
X50151066Y13953791D01*
X50149528Y13952858D01*
X50135916Y13945697D01*
X50117387Y13937350D01*
X50117382Y13937347D01*
X50112520Y13935157D01*
X50108097Y13932179D01*
X50108095Y13932178D01*
X50082324Y13914828D01*
X50070625Y13907840D01*
X50043127Y13893373D01*
X50043119Y13893368D01*
X50038398Y13890884D01*
X50034162Y13887640D01*
X50034158Y13887637D01*
X50009488Y13868741D01*
X49998238Y13861053D01*
X49967117Y13842168D01*
X49963088Y13838672D01*
X49963087Y13838671D01*
X49947740Y13825353D01*
X49935523Y13815996D01*
X49918664Y13804647D01*
X49918654Y13804639D01*
X49914238Y13801666D01*
X49909326Y13796980D01*
X49887901Y13776543D01*
X49877551Y13767687D01*
X49852873Y13748784D01*
X49848634Y13745537D01*
X49845003Y13741623D01*
X49845001Y13741621D01*
X49823870Y13718841D01*
X49814078Y13709367D01*
X49786581Y13685507D01*
X49783195Y13681377D01*
X49770311Y13665664D01*
X49759847Y13654384D01*
X49741282Y13636674D01*
X49738099Y13632395D01*
X49738093Y13632389D01*
X49719548Y13607463D01*
X49710841Y13596993D01*
X49686074Y13570294D01*
X49683157Y13565829D01*
X49683157Y13565828D01*
X49666167Y13539815D01*
X49658109Y13528825D01*
X49638405Y13504794D01*
X49638400Y13504787D01*
X49635022Y13500667D01*
X49632408Y13496076D01*
X49577354Y13451271D01*
X49506802Y13443343D01*
X49443163Y13474816D01*
X49420861Y13502078D01*
X49402168Y13532883D01*
X49385352Y13552261D01*
X49375996Y13564477D01*
X49364648Y13581334D01*
X49364642Y13581342D01*
X49361666Y13585762D01*
X49357987Y13589619D01*
X49357981Y13589626D01*
X49304128Y13646078D01*
X49300131Y13650470D01*
X49299223Y13651517D01*
X49257338Y13699785D01*
X49249007Y13709386D01*
X49249005Y13709388D01*
X49245507Y13713419D01*
X49225664Y13729689D01*
X49214384Y13740153D01*
X49200364Y13754850D01*
X49200363Y13754851D01*
X49196674Y13758718D01*
X49129778Y13808490D01*
X49125127Y13812124D01*
X49064795Y13861594D01*
X49064789Y13861598D01*
X49060667Y13864978D01*
X49056033Y13867616D01*
X49056024Y13867622D01*
X49038371Y13877670D01*
X49025499Y13886076D01*
X49004900Y13901402D01*
X48930585Y13939185D01*
X48925377Y13941990D01*
X48857583Y13980582D01*
X48857570Y13980588D01*
X48852934Y13983227D01*
X48828807Y13991985D01*
X48814699Y13998105D01*
X48803562Y14003767D01*
X48791828Y14009733D01*
X48786737Y14011314D01*
X48786734Y14011315D01*
X48741916Y14025231D01*
X48712209Y14034455D01*
X48706602Y14036343D01*
X48661819Y14052598D01*
X48633262Y14062964D01*
X48633258Y14062965D01*
X48628247Y14064784D01*
X48623000Y14065733D01*
X48622992Y14065735D01*
X48602997Y14069350D01*
X48588064Y14073004D01*
X48563548Y14080616D01*
X48480902Y14091570D01*
X48475036Y14092489D01*
X48397115Y14106580D01*
X48397107Y14106581D01*
X48393031Y14107318D01*
X48374641Y14108185D01*
X48369456Y14108430D01*
X48369449Y14108430D01*
X48367968Y14108500D01*
X48361486Y14108500D01*
X48344930Y14109592D01*
X48331872Y14111323D01*
X48331869Y14111323D01*
X48326589Y14112023D01*
X48321260Y14111823D01*
X48321259Y14111823D01*
X48235125Y14108589D01*
X48230398Y14108500D01*
X45821486Y14108500D01*
X45804930Y14109592D01*
X45791872Y14111323D01*
X45791869Y14111323D01*
X45786589Y14112023D01*
X45781260Y14111823D01*
X45781259Y14111823D01*
X45750202Y14110657D01*
X45736576Y14110883D01*
X45735941Y14110928D01*
X45730362Y14111323D01*
X45705591Y14113077D01*
X45705588Y14113077D01*
X45700263Y14113454D01*
X45692463Y14112682D01*
X45674724Y14110928D01*
X45659355Y14110351D01*
X45644786Y14110694D01*
X45633702Y14110955D01*
X45627411Y14110032D01*
X45626077Y14109836D01*
X45607780Y14108500D01*
X43281486Y14108500D01*
X43264930Y14109592D01*
X43251872Y14111323D01*
X43251869Y14111323D01*
X43246589Y14112023D01*
X43241260Y14111823D01*
X43241259Y14111823D01*
X43155125Y14108589D01*
X43150398Y14108500D01*
X43119988Y14108500D01*
X43117352Y14108276D01*
X43117345Y14108276D01*
X43104780Y14107209D01*
X43096923Y14106543D01*
X43091003Y14106181D01*
X43007726Y14103055D01*
X43002505Y14101960D01*
X43002501Y14101959D01*
X42982617Y14097787D01*
X42967393Y14095552D01*
X42964132Y14095276D01*
X42947147Y14093835D01*
X42947141Y14093834D01*
X42941825Y14093383D01*
X42936650Y14092040D01*
X42936651Y14092040D01*
X42861147Y14072444D01*
X42855369Y14071088D01*
X42779005Y14055065D01*
X42778999Y14055063D01*
X42773789Y14053970D01*
X42768827Y14052010D01*
X42768826Y14052010D01*
X42749921Y14044544D01*
X42735305Y14039780D01*
X42710460Y14033332D01*
X42658073Y14009733D01*
X42634457Y13999095D01*
X42628987Y13996785D01*
X42556437Y13968134D01*
X42556434Y13968133D01*
X42551467Y13966171D01*
X42529528Y13952858D01*
X42515916Y13945697D01*
X42497385Y13937349D01*
X42497381Y13937347D01*
X42492520Y13935157D01*
X42488099Y13932181D01*
X42488096Y13932179D01*
X42423370Y13888603D01*
X42418412Y13885432D01*
X42347117Y13842168D01*
X42343088Y13838672D01*
X42343087Y13838671D01*
X42327740Y13825353D01*
X42315523Y13815996D01*
X42298666Y13804648D01*
X42298658Y13804642D01*
X42294238Y13801666D01*
X42290381Y13797987D01*
X42290374Y13797981D01*
X42261471Y13770409D01*
X42198375Y13737862D01*
X42127698Y13744594D01*
X42071881Y13788468D01*
X42048500Y13861579D01*
X42048500Y14972569D01*
X79690512Y14972569D01*
X79744817Y14746376D01*
X79747866Y14736991D01*
X79840936Y14512300D01*
X79845417Y14503506D01*
X79972496Y14296133D01*
X79978289Y14288160D01*
X80136249Y14103213D01*
X80143213Y14096249D01*
X80328160Y13938289D01*
X80336133Y13932496D01*
X80543506Y13805417D01*
X80552300Y13800936D01*
X80776991Y13707866D01*
X80786376Y13704817D01*
X81008385Y13651517D01*
X81022470Y13652222D01*
X81026000Y13661101D01*
X81026000Y13665403D01*
X81534000Y13665403D01*
X81537973Y13651872D01*
X81547431Y13650512D01*
X81773624Y13704817D01*
X81783009Y13707866D01*
X82007700Y13800936D01*
X82016494Y13805417D01*
X82223867Y13932496D01*
X82231840Y13938289D01*
X82416787Y14096249D01*
X82423751Y14103213D01*
X82581711Y14288160D01*
X82587504Y14296133D01*
X82714583Y14503506D01*
X82719064Y14512300D01*
X82812134Y14736991D01*
X82815183Y14746376D01*
X82868483Y14968385D01*
X82867778Y14982470D01*
X82858899Y14986000D01*
X81552115Y14986000D01*
X81536876Y14981525D01*
X81535671Y14980135D01*
X81534000Y14972452D01*
X81534000Y13665403D01*
X81026000Y13665403D01*
X81026000Y14967885D01*
X81021525Y14983124D01*
X81020135Y14984329D01*
X81012452Y14986000D01*
X79705403Y14986000D01*
X79691872Y14982027D01*
X79690512Y14972569D01*
X42048500Y14972569D01*
X42048500Y16289668D01*
X42068502Y16357789D01*
X42083861Y16377193D01*
X42085055Y16378429D01*
X42088322Y16381371D01*
X42166640Y16474705D01*
X42168051Y16476358D01*
X42224861Y16541711D01*
X42247977Y16568303D01*
X42250371Y16571989D01*
X42250376Y16571996D01*
X42253368Y16576603D01*
X42262512Y16588961D01*
X42266047Y16593174D01*
X42266052Y16593181D01*
X42268879Y16596550D01*
X42333420Y16699838D01*
X42334602Y16701694D01*
X42378873Y16769865D01*
X42400964Y16803882D01*
X42405061Y16812667D01*
X42405150Y16812857D01*
X42412482Y16826363D01*
X42415399Y16831032D01*
X42417731Y16834764D01*
X42419517Y16838776D01*
X42419521Y16838783D01*
X42467276Y16946044D01*
X42468188Y16948045D01*
X42517818Y17054476D01*
X42517819Y17054479D01*
X42519676Y17058461D01*
X42522572Y17067932D01*
X42527956Y17082333D01*
X42531982Y17091375D01*
X42565566Y17208495D01*
X42566184Y17210582D01*
X42600515Y17322873D01*
X42600515Y17322875D01*
X42601802Y17327083D01*
X42603353Y17336873D01*
X42606679Y17351876D01*
X42608197Y17357170D01*
X42609407Y17361390D01*
X42615080Y17401756D01*
X42626354Y17481971D01*
X42626679Y17484145D01*
X42643286Y17589000D01*
X42645744Y17604520D01*
X42645917Y17614430D01*
X42647124Y17629765D01*
X42647887Y17635192D01*
X42648500Y17639552D01*
X42648500Y17761312D01*
X42648519Y17763511D01*
X42650569Y17880981D01*
X42650646Y17885374D01*
X42649439Y17895206D01*
X42648500Y17910559D01*
X42648500Y18185500D01*
X42668502Y18253621D01*
X42722158Y18300114D01*
X42774500Y18311500D01*
X53284105Y18311500D01*
X53290699Y18311327D01*
X53370741Y18307132D01*
X53370747Y18307132D01*
X53375138Y18306902D01*
X53379515Y18307285D01*
X53379519Y18307285D01*
X53496514Y18317521D01*
X53498707Y18317693D01*
X53615827Y18325882D01*
X53615833Y18325883D01*
X53620212Y18326189D01*
X53629893Y18328247D01*
X53645100Y18330519D01*
X53650575Y18330998D01*
X53650588Y18331000D01*
X53654966Y18331383D01*
X53659245Y18332371D01*
X53659252Y18332372D01*
X53773695Y18358793D01*
X53775840Y18359268D01*
X53890663Y18383675D01*
X53890670Y18383677D01*
X53894970Y18384591D01*
X53904281Y18387980D01*
X53919019Y18392345D01*
X53928663Y18394572D01*
X54042400Y18438231D01*
X54044431Y18438990D01*
X54154782Y18479154D01*
X54154791Y18479158D01*
X54158926Y18480663D01*
X54167664Y18485309D01*
X54181652Y18491683D01*
X54186786Y18493654D01*
X54186798Y18493659D01*
X54190902Y18495235D01*
X54297521Y18554336D01*
X54299388Y18555348D01*
X54403058Y18610470D01*
X54403067Y18610476D01*
X54406942Y18612536D01*
X54410499Y18615121D01*
X54410505Y18615124D01*
X54414953Y18618355D01*
X54427927Y18626621D01*
X54436579Y18631417D01*
X54533844Y18704711D01*
X54535598Y18706009D01*
X54541444Y18710256D01*
X54634192Y18777642D01*
X54641320Y18784525D01*
X54653012Y18794510D01*
X54657393Y18797812D01*
X54657394Y18797813D01*
X54660912Y18800464D01*
X54746988Y18886540D01*
X54748556Y18888082D01*
X54805035Y18942623D01*
X54836252Y18972769D01*
X54842353Y18980578D01*
X54852548Y18992100D01*
X61120043Y25259595D01*
X61182355Y25293621D01*
X61209138Y25296500D01*
X64908732Y25296500D01*
X64976853Y25276498D01*
X65023346Y25222842D01*
X65033450Y25152568D01*
X65006166Y25090609D01*
X64875022Y24930667D01*
X64756773Y24722934D01*
X64675216Y24498247D01*
X64674267Y24492998D01*
X64674266Y24492995D01*
X64633420Y24267115D01*
X64633419Y24267107D01*
X64632682Y24263031D01*
X64631500Y24237968D01*
X64631500Y16449988D01*
X64646617Y16271825D01*
X64647957Y16266661D01*
X64647958Y16266657D01*
X64669447Y16183867D01*
X64706668Y16040460D01*
X64708860Y16035594D01*
X64782888Y15871259D01*
X64804843Y15822520D01*
X64938334Y15624238D01*
X65103326Y15451282D01*
X65295100Y15308598D01*
X65299851Y15306182D01*
X65299855Y15306180D01*
X65455055Y15227273D01*
X65508172Y15200267D01*
X65622312Y15164825D01*
X65731349Y15130968D01*
X65731355Y15130967D01*
X65736452Y15129384D01*
X65863883Y15112494D01*
X65968127Y15098677D01*
X65968131Y15098677D01*
X65973411Y15097977D01*
X65978740Y15098177D01*
X65978741Y15098177D01*
X66076509Y15101848D01*
X66212274Y15106945D01*
X66299184Y15125181D01*
X66440984Y15154933D01*
X66440987Y15154934D01*
X66446211Y15156030D01*
X66668533Y15243829D01*
X66872883Y15367832D01*
X67020205Y15495671D01*
X67049386Y15520993D01*
X67049388Y15520995D01*
X67053419Y15524493D01*
X67056802Y15528619D01*
X67056806Y15528623D01*
X67195505Y15697780D01*
X67204978Y15709333D01*
X67210149Y15718416D01*
X67320584Y15912423D01*
X67323227Y15917066D01*
X67404784Y16141753D01*
X67405734Y16147005D01*
X67423179Y16243478D01*
X74917273Y16243478D01*
X74964764Y16066239D01*
X74968510Y16055947D01*
X75060586Y15858489D01*
X75066069Y15848993D01*
X75191028Y15670533D01*
X75198084Y15662125D01*
X75352125Y15508084D01*
X75360533Y15501028D01*
X75538993Y15376069D01*
X75548489Y15370586D01*
X75745947Y15278510D01*
X75756239Y15274764D01*
X75928503Y15228606D01*
X75942599Y15228942D01*
X75946000Y15236884D01*
X75946000Y15242033D01*
X76454000Y15242033D01*
X76457973Y15228502D01*
X76466522Y15227273D01*
X76643761Y15274764D01*
X76654053Y15278510D01*
X76851511Y15370586D01*
X76861007Y15376069D01*
X77039467Y15501028D01*
X77047875Y15508084D01*
X77051406Y15511615D01*
X79691517Y15511615D01*
X79692222Y15497530D01*
X79701101Y15494000D01*
X81007885Y15494000D01*
X81023124Y15498475D01*
X81024329Y15499865D01*
X81026000Y15507548D01*
X81026000Y15512115D01*
X81534000Y15512115D01*
X81538475Y15496876D01*
X81539865Y15495671D01*
X81547548Y15494000D01*
X82854597Y15494000D01*
X82868128Y15497973D01*
X82869488Y15507431D01*
X82815183Y15733624D01*
X82812134Y15743009D01*
X82719064Y15967700D01*
X82714583Y15976494D01*
X82587504Y16183867D01*
X82581711Y16191840D01*
X82542452Y16237806D01*
X84876573Y16237806D01*
X84886110Y16175485D01*
X84888499Y16165457D01*
X84959898Y15947012D01*
X84963895Y15937503D01*
X85070011Y15733656D01*
X85075505Y15724931D01*
X85213493Y15541148D01*
X85220336Y15533441D01*
X85386491Y15374661D01*
X85394501Y15368174D01*
X85584347Y15238670D01*
X85593321Y15233571D01*
X85801769Y15136813D01*
X85811456Y15133250D01*
X86032908Y15071835D01*
X86043030Y15069904D01*
X86087987Y15065099D01*
X86102608Y15067747D01*
X86105853Y15079588D01*
X86614000Y15079588D01*
X86618325Y15064859D01*
X86630111Y15062798D01*
X86641704Y15063751D01*
X86651866Y15065433D01*
X86874771Y15121422D01*
X86884519Y15124741D01*
X87095289Y15216385D01*
X87104364Y15221251D01*
X87297327Y15346085D01*
X87305498Y15352378D01*
X87475480Y15507050D01*
X87482506Y15514583D01*
X87624945Y15694944D01*
X87630650Y15703531D01*
X87741714Y15904722D01*
X87745944Y15914134D01*
X87822659Y16130768D01*
X87825293Y16140739D01*
X87842647Y16238163D01*
X87841187Y16251460D01*
X87826630Y16256000D01*
X86632115Y16256000D01*
X86616876Y16251525D01*
X86615671Y16250135D01*
X86614000Y16242452D01*
X86614000Y15079588D01*
X86105853Y15079588D01*
X86106000Y15080124D01*
X86106000Y16237885D01*
X86101525Y16253124D01*
X86100135Y16254329D01*
X86092452Y16256000D01*
X84891904Y16256000D01*
X84878560Y16252082D01*
X84876573Y16237806D01*
X82542452Y16237806D01*
X82423751Y16376787D01*
X82416787Y16383751D01*
X82231840Y16541711D01*
X82223867Y16547504D01*
X82016494Y16674583D01*
X82007700Y16679064D01*
X81783009Y16772134D01*
X81773624Y16775183D01*
X81551615Y16828483D01*
X81537530Y16827778D01*
X81534000Y16818899D01*
X81534000Y15512115D01*
X81026000Y15512115D01*
X81026000Y16814597D01*
X81022027Y16828128D01*
X81012569Y16829488D01*
X80786376Y16775183D01*
X80776991Y16772134D01*
X80552300Y16679064D01*
X80543506Y16674583D01*
X80336133Y16547504D01*
X80328160Y16541711D01*
X80143213Y16383751D01*
X80136249Y16376787D01*
X79978289Y16191840D01*
X79972496Y16183867D01*
X79845417Y15976494D01*
X79840936Y15967700D01*
X79747866Y15743009D01*
X79744817Y15733624D01*
X79691517Y15511615D01*
X77051406Y15511615D01*
X77201916Y15662125D01*
X77208972Y15670533D01*
X77333931Y15848993D01*
X77339414Y15858489D01*
X77431490Y16055947D01*
X77435236Y16066239D01*
X77481394Y16238503D01*
X77481058Y16252599D01*
X77473116Y16256000D01*
X76472115Y16256000D01*
X76456876Y16251525D01*
X76455671Y16250135D01*
X76454000Y16242452D01*
X76454000Y15242033D01*
X75946000Y15242033D01*
X75946000Y16237885D01*
X75941525Y16253124D01*
X75940135Y16254329D01*
X75932452Y16256000D01*
X74932033Y16256000D01*
X74918502Y16252027D01*
X74917273Y16243478D01*
X67423179Y16243478D01*
X67446580Y16372885D01*
X67446581Y16372893D01*
X67447318Y16376969D01*
X67448500Y16402032D01*
X67448500Y16781497D01*
X74918606Y16781497D01*
X74918942Y16767401D01*
X74926884Y16764000D01*
X75927885Y16764000D01*
X75943124Y16768475D01*
X75944329Y16769865D01*
X75946000Y16777548D01*
X75946000Y16782115D01*
X76454000Y16782115D01*
X76458475Y16766876D01*
X76459865Y16765671D01*
X76467548Y16764000D01*
X77467967Y16764000D01*
X77481498Y16767973D01*
X77482727Y16776522D01*
X77435236Y16953761D01*
X77431490Y16964053D01*
X77339414Y17161511D01*
X77333931Y17171007D01*
X77208972Y17349467D01*
X77201916Y17357875D01*
X77047875Y17511916D01*
X77039467Y17518972D01*
X76861007Y17643931D01*
X76851511Y17649414D01*
X76654053Y17741490D01*
X76643761Y17745236D01*
X76471497Y17791394D01*
X76457401Y17791058D01*
X76454000Y17783116D01*
X76454000Y16782115D01*
X75946000Y16782115D01*
X75946000Y17777967D01*
X75942027Y17791498D01*
X75933478Y17792727D01*
X75756239Y17745236D01*
X75745947Y17741490D01*
X75548489Y17649414D01*
X75538993Y17643931D01*
X75360533Y17518972D01*
X75352125Y17511916D01*
X75198084Y17357875D01*
X75191028Y17349467D01*
X75066069Y17171007D01*
X75060586Y17161511D01*
X74968510Y16964053D01*
X74964764Y16953761D01*
X74918606Y16781497D01*
X67448500Y16781497D01*
X67448500Y24190012D01*
X67433383Y24368175D01*
X67373332Y24599540D01*
X67317613Y24723232D01*
X67277347Y24812619D01*
X67277346Y24812622D01*
X67275157Y24817480D01*
X67141666Y25015762D01*
X67137986Y25019620D01*
X67137980Y25019627D01*
X67077021Y25083528D01*
X67044473Y25146624D01*
X67051204Y25217301D01*
X67095078Y25273119D01*
X67168190Y25296500D01*
X67889105Y25296500D01*
X67895699Y25296327D01*
X67975741Y25292132D01*
X67975747Y25292132D01*
X67980138Y25291902D01*
X67984515Y25292285D01*
X67984519Y25292285D01*
X68027220Y25296021D01*
X68038201Y25296500D01*
X70429105Y25296500D01*
X70435699Y25296327D01*
X70515741Y25292132D01*
X70515747Y25292132D01*
X70520138Y25291902D01*
X70524515Y25292285D01*
X70524519Y25292285D01*
X70567220Y25296021D01*
X70578201Y25296500D01*
X71953105Y25296500D01*
X71959699Y25296327D01*
X72039741Y25292132D01*
X72039747Y25292132D01*
X72044138Y25291902D01*
X72048515Y25292285D01*
X72048519Y25292285D01*
X72165514Y25302521D01*
X72167707Y25302693D01*
X72284827Y25310882D01*
X72284833Y25310883D01*
X72289212Y25311189D01*
X72298893Y25313247D01*
X72314100Y25315519D01*
X72319575Y25315998D01*
X72319588Y25316000D01*
X72323966Y25316383D01*
X72328245Y25317371D01*
X72328252Y25317372D01*
X72442695Y25343793D01*
X72444840Y25344268D01*
X72559663Y25368675D01*
X72559670Y25368677D01*
X72563970Y25369591D01*
X72573281Y25372980D01*
X72588019Y25377345D01*
X72597663Y25379572D01*
X72711400Y25423231D01*
X72713431Y25423990D01*
X72823782Y25464154D01*
X72823791Y25464158D01*
X72827926Y25465663D01*
X72836664Y25470309D01*
X72850652Y25476683D01*
X72855786Y25478654D01*
X72855798Y25478659D01*
X72859902Y25480235D01*
X72966521Y25539336D01*
X72968388Y25540348D01*
X73072058Y25595470D01*
X73072067Y25595476D01*
X73075942Y25597536D01*
X73079499Y25600121D01*
X73079505Y25600124D01*
X73083953Y25603355D01*
X73096927Y25611621D01*
X73097896Y25612158D01*
X73105579Y25616417D01*
X73202844Y25689711D01*
X73204598Y25691009D01*
X73299637Y25760059D01*
X73299638Y25760060D01*
X73303192Y25762642D01*
X73310320Y25769525D01*
X73322012Y25779510D01*
X73326393Y25782812D01*
X73326394Y25782813D01*
X73329912Y25785464D01*
X73415988Y25871540D01*
X73417556Y25873082D01*
X73502087Y25954713D01*
X73505252Y25957769D01*
X73511353Y25965578D01*
X73521548Y25977100D01*
X74050988Y26506540D01*
X74052556Y26508082D01*
X74140252Y26592769D01*
X74146353Y26600578D01*
X74156548Y26612100D01*
X75979043Y28434595D01*
X76041355Y28468621D01*
X76068138Y28471500D01*
X81350146Y28471500D01*
X81352332Y28471653D01*
X81352336Y28471653D01*
X81555827Y28485882D01*
X81555832Y28485883D01*
X81560212Y28486189D01*
X81834970Y28544591D01*
X81839099Y28546094D01*
X81839103Y28546095D01*
X82094781Y28639154D01*
X82094785Y28639156D01*
X82098926Y28640663D01*
X82346942Y28772536D01*
X82480902Y28869864D01*
X82510735Y28885910D01*
X82626705Y28929385D01*
X82633884Y28934765D01*
X82633887Y28934767D01*
X82736081Y29011358D01*
X82743261Y29016739D01*
X82748642Y29023919D01*
X82754992Y29030269D01*
X82756627Y29028634D01*
X82803359Y29063579D01*
X82847329Y29071500D01*
X85035319Y29071500D01*
X85044218Y29071185D01*
X85104409Y29066923D01*
X85104412Y29066923D01*
X85109737Y29066546D01*
X85171761Y29072682D01*
X85217979Y29077254D01*
X85219730Y29077415D01*
X85263952Y29081168D01*
X85328175Y29086617D01*
X85333345Y29087959D01*
X85337826Y29088725D01*
X85342298Y29089554D01*
X85347607Y29090079D01*
X85452558Y29118889D01*
X85454180Y29119322D01*
X85559540Y29146668D01*
X85564409Y29148862D01*
X85568732Y29150384D01*
X85572966Y29151942D01*
X85578111Y29153354D01*
X85676671Y29199418D01*
X85678263Y29200149D01*
X85777480Y29244843D01*
X85781907Y29247823D01*
X85785885Y29250037D01*
X85789827Y29252304D01*
X85794658Y29254562D01*
X85799038Y29257601D01*
X85799044Y29257604D01*
X85884018Y29316554D01*
X85885472Y29317548D01*
X85934277Y29350405D01*
X85975762Y29378334D01*
X85979626Y29382020D01*
X85983780Y29385360D01*
X85983977Y29385115D01*
X85984591Y29385616D01*
X85984399Y29385858D01*
X85987644Y29388441D01*
X85991057Y29390809D01*
X85994129Y29393604D01*
X86008510Y29406689D01*
X86008522Y29406701D01*
X86009615Y29407695D01*
X86072235Y29470315D01*
X86074358Y29472390D01*
X86101856Y29498622D01*
X86148718Y29543326D01*
X86153322Y29549514D01*
X86165316Y29563396D01*
X87011972Y30410052D01*
X87050825Y30436507D01*
X87100263Y30458003D01*
X87245362Y30551872D01*
X87297637Y30585690D01*
X87297640Y30585692D01*
X87301977Y30588498D01*
X87479670Y30750186D01*
X87573239Y30868665D01*
X87625367Y30934670D01*
X87625370Y30934675D01*
X87628568Y30938724D01*
X87634425Y30949333D01*
X87742177Y31144526D01*
X87742179Y31144530D01*
X87744674Y31149050D01*
X87820842Y31364138D01*
X87823144Y31370640D01*
X87823145Y31370644D01*
X87824870Y31375515D01*
X87849151Y31511825D01*
X87866095Y31606948D01*
X87866096Y31606954D01*
X87867001Y31612037D01*
X87869329Y31802602D01*
X87869873Y31847093D01*
X87869873Y31847095D01*
X87869936Y31852263D01*
X87833596Y32089744D01*
X87793805Y32211486D01*
X87760566Y32313183D01*
X87760563Y32313189D01*
X87758958Y32318101D01*
X87710508Y32411173D01*
X87650416Y32526607D01*
X87648025Y32531200D01*
X87564500Y32642445D01*
X87536418Y32679847D01*
X87511512Y32746332D01*
X87526504Y32815728D01*
X87576635Y32866001D01*
X87637178Y32881500D01*
X88264390Y32881500D01*
X88332511Y32861498D01*
G37*
%TD.AperFunction*%
%TA.AperFunction,Conductor*%
G36*
X88815070Y63360408D02*
G01*
X88828128Y63358677D01*
X88828131Y63358677D01*
X88833411Y63357977D01*
X88838740Y63358177D01*
X88838741Y63358177D01*
X88924875Y63361411D01*
X88929602Y63361500D01*
X91420631Y63361500D01*
X91423600Y63361465D01*
X91526298Y63359045D01*
X91532589Y63359968D01*
X91533923Y63360164D01*
X91552220Y63361500D01*
X92690631Y63361500D01*
X92693600Y63361465D01*
X92796298Y63359045D01*
X92802589Y63359968D01*
X92803923Y63360164D01*
X92822220Y63361500D01*
X93715500Y63361500D01*
X93783621Y63341498D01*
X93830114Y63287842D01*
X93841500Y63235500D01*
X93841500Y57414500D01*
X93821498Y57346379D01*
X93767842Y57299886D01*
X93715500Y57288500D01*
X82847329Y57288500D01*
X82779208Y57308502D01*
X82755668Y57330407D01*
X82754992Y57329731D01*
X82748642Y57336081D01*
X82743261Y57343261D01*
X82626705Y57430615D01*
X82490316Y57481745D01*
X82428134Y57488500D01*
X80131866Y57488500D01*
X80069684Y57481745D01*
X79933295Y57430615D01*
X79816739Y57343261D01*
X79729385Y57226705D01*
X79678255Y57090316D01*
X79671500Y57028134D01*
X79671500Y54731866D01*
X79678255Y54669684D01*
X79729385Y54533295D01*
X79816739Y54416739D01*
X79933295Y54329385D01*
X80069684Y54278255D01*
X80131866Y54271500D01*
X82428134Y54271500D01*
X82490316Y54278255D01*
X82626705Y54329385D01*
X82743261Y54416739D01*
X82748642Y54423919D01*
X82754992Y54430269D01*
X82756627Y54428634D01*
X82803359Y54463579D01*
X82847329Y54471500D01*
X93715500Y54471500D01*
X93783621Y54451498D01*
X93830114Y54397842D01*
X93841500Y54345500D01*
X93841500Y51064500D01*
X93821498Y50996379D01*
X93767842Y50949886D01*
X93715500Y50938500D01*
X87994236Y50938500D01*
X87926115Y50958502D01*
X87879622Y51012158D01*
X87868792Y51069366D01*
X87868500Y51069366D01*
X87868500Y53070634D01*
X87868085Y53074459D01*
X87862598Y53124960D01*
X87861745Y53132816D01*
X87810615Y53269205D01*
X87723261Y53385761D01*
X87606705Y53473115D01*
X87470316Y53524245D01*
X87408134Y53531000D01*
X85311866Y53531000D01*
X85308469Y53530631D01*
X85257534Y53525098D01*
X85257532Y53525098D01*
X85249684Y53524245D01*
X85242291Y53521473D01*
X85242289Y53521473D01*
X85149047Y53486518D01*
X85104818Y53478500D01*
X76139988Y53478500D01*
X75961825Y53463383D01*
X75956661Y53462043D01*
X75956657Y53462042D01*
X75735625Y53404673D01*
X75735620Y53404671D01*
X75730460Y53403332D01*
X75725594Y53401140D01*
X75517381Y53307347D01*
X75517378Y53307346D01*
X75512520Y53305157D01*
X75314238Y53171666D01*
X75310381Y53167987D01*
X75310379Y53167985D01*
X75265174Y53124861D01*
X75141282Y53006674D01*
X74998598Y52814900D01*
X74996182Y52810149D01*
X74996180Y52810145D01*
X74945574Y52710610D01*
X74890267Y52601828D01*
X74865301Y52521423D01*
X74820968Y52378651D01*
X74820967Y52378645D01*
X74819384Y52373548D01*
X74810014Y52302855D01*
X74789844Y52150672D01*
X74787977Y52136589D01*
X74788177Y52131260D01*
X74788177Y52131259D01*
X74788224Y52130012D01*
X74796945Y51897726D01*
X74846030Y51663789D01*
X74933829Y51441467D01*
X75057832Y51237117D01*
X75061329Y51233087D01*
X75203399Y51069366D01*
X75214493Y51056581D01*
X75218619Y51053198D01*
X75218623Y51053194D01*
X75334109Y50958502D01*
X75399333Y50905022D01*
X75403969Y50902383D01*
X75403972Y50902381D01*
X75540991Y50824385D01*
X75607066Y50786773D01*
X75831753Y50705216D01*
X75837002Y50704267D01*
X75837005Y50704266D01*
X76062885Y50663420D01*
X76062893Y50663419D01*
X76066969Y50662682D01*
X76085359Y50661815D01*
X76090544Y50661570D01*
X76090551Y50661570D01*
X76092032Y50661500D01*
X85084265Y50661500D01*
X85152386Y50641498D01*
X85198879Y50587842D01*
X85208983Y50517568D01*
X85183147Y50457408D01*
X85094633Y50345330D01*
X85094630Y50345325D01*
X85091432Y50341276D01*
X85088939Y50336760D01*
X85088937Y50336757D01*
X84977823Y50135474D01*
X84975326Y50130950D01*
X84973602Y50126081D01*
X84973600Y50126077D01*
X84897217Y49910379D01*
X84895130Y49904485D01*
X84894223Y49899392D01*
X84894222Y49899389D01*
X84859052Y49701943D01*
X84852999Y49667963D01*
X84852651Y49639456D01*
X84850858Y49492686D01*
X84850064Y49427737D01*
X84886404Y49190256D01*
X84903567Y49137746D01*
X84959434Y48966817D01*
X84959437Y48966811D01*
X84961042Y48961899D01*
X84963429Y48957313D01*
X84963431Y48957309D01*
X85054782Y48781828D01*
X85071975Y48748800D01*
X85086591Y48729333D01*
X85190525Y48590907D01*
X85216223Y48556680D01*
X85241318Y48532699D01*
X85379516Y48400634D01*
X85389912Y48390699D01*
X85427351Y48365160D01*
X85472352Y48310249D01*
X85480523Y48239725D01*
X85449269Y48175978D01*
X85424790Y48155284D01*
X85422674Y48153915D01*
X85414502Y48147622D01*
X85244520Y47992950D01*
X85237494Y47985417D01*
X85095055Y47805056D01*
X85089350Y47796469D01*
X84978286Y47595278D01*
X84974056Y47585866D01*
X84897341Y47369232D01*
X84894707Y47359261D01*
X84877353Y47261837D01*
X84878813Y47248540D01*
X84893370Y47244000D01*
X87828096Y47244000D01*
X87841440Y47247918D01*
X87843427Y47262194D01*
X87833890Y47324515D01*
X87831501Y47334543D01*
X87760102Y47552988D01*
X87756105Y47562497D01*
X87649989Y47766344D01*
X87644495Y47775069D01*
X87535792Y47919847D01*
X87510886Y47986332D01*
X87525878Y48055727D01*
X87576009Y48106001D01*
X87636552Y48121500D01*
X93715500Y48121500D01*
X93783621Y48101498D01*
X93830114Y48047842D01*
X93841500Y47995500D01*
X93841500Y41804610D01*
X93821498Y41736489D01*
X93767842Y41689996D01*
X93697568Y41679892D01*
X93632988Y41709386D01*
X93626405Y41715515D01*
X92474636Y42867284D01*
X92468565Y42873799D01*
X92429007Y42919386D01*
X92429005Y42919388D01*
X92425507Y42923419D01*
X92405664Y42939689D01*
X92394384Y42950153D01*
X92380361Y42964853D01*
X92376674Y42968718D01*
X92318406Y43012071D01*
X92312380Y43016848D01*
X92260939Y43060242D01*
X92260931Y43060248D01*
X92256855Y43063686D01*
X92252255Y43066391D01*
X92248555Y43069010D01*
X92244792Y43071596D01*
X92240667Y43074978D01*
X92236026Y43077620D01*
X92218371Y43087670D01*
X92205499Y43096076D01*
X92184900Y43111402D01*
X92120153Y43144320D01*
X92113406Y43148015D01*
X92055400Y43182115D01*
X92055397Y43182116D01*
X92050793Y43184823D01*
X92045796Y43186716D01*
X92041639Y43188708D01*
X92037570Y43190588D01*
X92032934Y43193227D01*
X92008807Y43201985D01*
X91994699Y43208105D01*
X91990372Y43210305D01*
X91971828Y43219733D01*
X91966737Y43221314D01*
X91966734Y43221315D01*
X91902461Y43241272D01*
X91895184Y43243778D01*
X91872748Y43252278D01*
X91827266Y43269510D01*
X91822026Y43270533D01*
X91817665Y43271776D01*
X91813261Y43272964D01*
X91808247Y43274784D01*
X91803000Y43275733D01*
X91802992Y43275735D01*
X91782997Y43279350D01*
X91768064Y43283004D01*
X91743548Y43290616D01*
X91671537Y43300161D01*
X91663952Y43301403D01*
X91626801Y43308658D01*
X91597901Y43314302D01*
X91597900Y43314302D01*
X91592667Y43315324D01*
X91587335Y43315449D01*
X91582027Y43316026D01*
X91582068Y43316403D01*
X91581290Y43316482D01*
X91581248Y43316110D01*
X91577120Y43316578D01*
X91573031Y43317318D01*
X91568877Y43317514D01*
X91568876Y43317514D01*
X91549456Y43318430D01*
X91549449Y43318430D01*
X91547968Y43318500D01*
X91541486Y43318500D01*
X91524930Y43319592D01*
X91511872Y43321323D01*
X91511869Y43321323D01*
X91506589Y43322023D01*
X91501260Y43321823D01*
X91501258Y43321823D01*
X91434008Y43319298D01*
X91426313Y43319244D01*
X91380458Y43320324D01*
X91353702Y43320955D01*
X91347411Y43320032D01*
X91346077Y43319836D01*
X91327780Y43318500D01*
X81381486Y43318500D01*
X81364930Y43319592D01*
X81351872Y43321323D01*
X81351869Y43321323D01*
X81346589Y43322023D01*
X81341260Y43321823D01*
X81341259Y43321823D01*
X81255125Y43318589D01*
X81250398Y43318500D01*
X81219988Y43318500D01*
X81217352Y43318276D01*
X81217345Y43318276D01*
X81204780Y43317209D01*
X81196923Y43316543D01*
X81191003Y43316181D01*
X81107726Y43313055D01*
X81102505Y43311960D01*
X81102501Y43311959D01*
X81082617Y43307787D01*
X81067393Y43305552D01*
X81064132Y43305276D01*
X81047147Y43303835D01*
X81047141Y43303834D01*
X81041825Y43303383D01*
X81036650Y43302040D01*
X81036651Y43302040D01*
X80961147Y43282444D01*
X80955369Y43281088D01*
X80879005Y43265065D01*
X80878999Y43265063D01*
X80873789Y43263970D01*
X80868827Y43262010D01*
X80868826Y43262010D01*
X80849921Y43254544D01*
X80835305Y43249780D01*
X80810460Y43243332D01*
X80760255Y43220716D01*
X80734457Y43209095D01*
X80728987Y43206785D01*
X80656437Y43178134D01*
X80656434Y43178133D01*
X80651467Y43176171D01*
X80629528Y43162858D01*
X80615916Y43155697D01*
X80597385Y43147349D01*
X80597381Y43147347D01*
X80592520Y43145157D01*
X80588099Y43142181D01*
X80588096Y43142179D01*
X80523370Y43098603D01*
X80518412Y43095432D01*
X80447117Y43052168D01*
X80443088Y43048672D01*
X80443087Y43048671D01*
X80427740Y43035353D01*
X80415523Y43025996D01*
X80398666Y43014648D01*
X80398658Y43014642D01*
X80394238Y43011666D01*
X80390381Y43007987D01*
X80390374Y43007981D01*
X80333922Y42954128D01*
X80329537Y42950137D01*
X80266581Y42895507D01*
X80263195Y42891377D01*
X80250311Y42875664D01*
X80239847Y42864384D01*
X80236666Y42861349D01*
X80221282Y42846674D01*
X80171510Y42779778D01*
X80167876Y42775127D01*
X80118406Y42714795D01*
X80118402Y42714789D01*
X80115022Y42710667D01*
X80112384Y42706033D01*
X80112378Y42706024D01*
X80102330Y42688371D01*
X80093924Y42675499D01*
X80078598Y42654900D01*
X80040815Y42580585D01*
X80038010Y42575377D01*
X79999418Y42507583D01*
X79999412Y42507570D01*
X79996773Y42502934D01*
X79994952Y42497917D01*
X79988017Y42478811D01*
X79981895Y42464699D01*
X79970267Y42441828D01*
X79968686Y42436737D01*
X79968685Y42436734D01*
X79945548Y42362219D01*
X79943657Y42356602D01*
X79915216Y42278247D01*
X79914267Y42273000D01*
X79914265Y42272992D01*
X79910650Y42252997D01*
X79906996Y42238064D01*
X79899384Y42213548D01*
X79890045Y42143087D01*
X79888430Y42130902D01*
X79887511Y42125036D01*
X79873420Y42047115D01*
X79873419Y42047107D01*
X79872682Y42043031D01*
X79871500Y42017968D01*
X79871500Y42011486D01*
X79870408Y41994930D01*
X79867977Y41976589D01*
X79868177Y41971260D01*
X79868177Y41971259D01*
X79871411Y41885125D01*
X79871500Y41880398D01*
X79871500Y41455551D01*
X79852932Y41389715D01*
X79849009Y41383313D01*
X79842384Y41372502D01*
X79840491Y41367932D01*
X79840489Y41367928D01*
X79793192Y41253743D01*
X79745495Y41138591D01*
X79740687Y41118565D01*
X79688875Y40902749D01*
X79686391Y40892403D01*
X79666526Y40640000D01*
X79686391Y40387597D01*
X79687545Y40382790D01*
X79687546Y40382784D01*
X79714451Y40270719D01*
X79745495Y40141409D01*
X79747388Y40136838D01*
X79747389Y40136836D01*
X79819422Y39962934D01*
X79842384Y39907498D01*
X79844972Y39903275D01*
X79852932Y39890285D01*
X79871500Y39824449D01*
X79871500Y39471486D01*
X79870408Y39454930D01*
X79867977Y39436589D01*
X79868177Y39431260D01*
X79868177Y39431259D01*
X79871411Y39345125D01*
X79871500Y39340398D01*
X79871500Y39309988D01*
X79871724Y39307352D01*
X79871724Y39307345D01*
X79873457Y39286931D01*
X79873819Y39281003D01*
X79876945Y39197726D01*
X79878040Y39192505D01*
X79878041Y39192501D01*
X79882213Y39172617D01*
X79884448Y39157393D01*
X79886617Y39131825D01*
X79887960Y39126651D01*
X79907556Y39051147D01*
X79908912Y39045369D01*
X79924935Y38969005D01*
X79924937Y38968999D01*
X79926030Y38963789D01*
X79927990Y38958827D01*
X79927990Y38958826D01*
X79935456Y38939921D01*
X79940220Y38925305D01*
X79946668Y38900460D01*
X79948859Y38895597D01*
X79980905Y38824457D01*
X79983215Y38818987D01*
X80013829Y38741467D01*
X80024977Y38723096D01*
X80027142Y38719528D01*
X80034303Y38705916D01*
X80039055Y38695368D01*
X80044843Y38682520D01*
X80047819Y38678099D01*
X80047821Y38678096D01*
X80091397Y38613370D01*
X80094568Y38608412D01*
X80137832Y38537117D01*
X80141328Y38533088D01*
X80141329Y38533087D01*
X80154647Y38517740D01*
X80164004Y38505523D01*
X80175352Y38488666D01*
X80175358Y38488658D01*
X80178334Y38484238D01*
X80182013Y38480381D01*
X80182019Y38480374D01*
X80209591Y38451471D01*
X80242138Y38388375D01*
X80235406Y38317698D01*
X80191532Y38261881D01*
X80118421Y38238500D01*
X75814988Y38238500D01*
X75636825Y38223383D01*
X75631661Y38222043D01*
X75631657Y38222042D01*
X75410625Y38164673D01*
X75410620Y38164671D01*
X75405460Y38163332D01*
X75400594Y38161140D01*
X75192381Y38067347D01*
X75192378Y38067346D01*
X75187520Y38065157D01*
X74989238Y37931666D01*
X74985381Y37927987D01*
X74985379Y37927985D01*
X74945415Y37889861D01*
X74816282Y37766674D01*
X74813099Y37762397D01*
X74813099Y37762396D01*
X74784368Y37723780D01*
X74673598Y37574900D01*
X74671182Y37570149D01*
X74671180Y37570145D01*
X74583398Y37397489D01*
X74565267Y37361828D01*
X74529825Y37247688D01*
X74495968Y37138651D01*
X74495967Y37138645D01*
X74494384Y37133548D01*
X74484319Y37057607D01*
X74464720Y36909738D01*
X74462977Y36896589D01*
X74463177Y36891260D01*
X74463177Y36891259D01*
X74464544Y36854843D01*
X74471945Y36657726D01*
X74479462Y36621901D01*
X74516420Y36445762D01*
X74521030Y36423789D01*
X74608829Y36201467D01*
X74732832Y35997117D01*
X74736329Y35993087D01*
X74878399Y35829366D01*
X74889493Y35816581D01*
X74893619Y35813198D01*
X74893623Y35813194D01*
X74998145Y35727492D01*
X75074333Y35665022D01*
X75078969Y35662383D01*
X75078972Y35662381D01*
X75178402Y35605782D01*
X75282066Y35546773D01*
X75506753Y35465216D01*
X75512002Y35464267D01*
X75512005Y35464266D01*
X75737885Y35423420D01*
X75737893Y35423419D01*
X75741969Y35422682D01*
X75760359Y35421815D01*
X75765544Y35421570D01*
X75765551Y35421570D01*
X75767032Y35421500D01*
X85084265Y35421500D01*
X85152386Y35401498D01*
X85198879Y35347842D01*
X85208983Y35277568D01*
X85183147Y35217408D01*
X85094633Y35105330D01*
X85094630Y35105325D01*
X85091432Y35101276D01*
X85088939Y35096760D01*
X85088937Y35096757D01*
X84977823Y34895474D01*
X84975326Y34890950D01*
X84973602Y34886081D01*
X84973600Y34886077D01*
X84902102Y34684173D01*
X84895130Y34664485D01*
X84894223Y34659392D01*
X84894222Y34659389D01*
X84856097Y34445354D01*
X84852999Y34427963D01*
X84852936Y34422799D01*
X84850299Y34206931D01*
X84850064Y34187737D01*
X84886404Y33950256D01*
X84905662Y33891335D01*
X84959434Y33726817D01*
X84959437Y33726811D01*
X84961042Y33721899D01*
X84963429Y33717313D01*
X84963431Y33717309D01*
X85022979Y33602919D01*
X85071975Y33508800D01*
X85075085Y33504658D01*
X85183582Y33360153D01*
X85208488Y33293668D01*
X85193496Y33224272D01*
X85143365Y33173999D01*
X85082822Y33158500D01*
X76510610Y33158500D01*
X76442489Y33178502D01*
X76421515Y33195405D01*
X73165405Y36451515D01*
X73131379Y36513827D01*
X73128500Y36540610D01*
X73128500Y45452569D01*
X79690512Y45452569D01*
X79744817Y45226376D01*
X79747866Y45216991D01*
X79840936Y44992300D01*
X79845417Y44983506D01*
X79972496Y44776133D01*
X79978289Y44768160D01*
X80136249Y44583213D01*
X80143213Y44576249D01*
X80328160Y44418289D01*
X80336133Y44412496D01*
X80543506Y44285417D01*
X80552300Y44280936D01*
X80776991Y44187866D01*
X80786376Y44184817D01*
X81008385Y44131517D01*
X81022470Y44132222D01*
X81026000Y44141101D01*
X81026000Y44145403D01*
X81534000Y44145403D01*
X81537973Y44131872D01*
X81547431Y44130512D01*
X81773624Y44184817D01*
X81783009Y44187866D01*
X82007700Y44280936D01*
X82016494Y44285417D01*
X82223867Y44412496D01*
X82231840Y44418289D01*
X82416787Y44576249D01*
X82423751Y44583213D01*
X82581711Y44768160D01*
X82587504Y44776133D01*
X82714583Y44983506D01*
X82719064Y44992300D01*
X82812134Y45216991D01*
X82815183Y45226376D01*
X82868483Y45448385D01*
X82867778Y45462470D01*
X82858899Y45466000D01*
X81552115Y45466000D01*
X81536876Y45461525D01*
X81535671Y45460135D01*
X81534000Y45452452D01*
X81534000Y44145403D01*
X81026000Y44145403D01*
X81026000Y45447885D01*
X81021525Y45463124D01*
X81020135Y45464329D01*
X81012452Y45466000D01*
X79705403Y45466000D01*
X79691872Y45462027D01*
X79690512Y45452569D01*
X73128500Y45452569D01*
X73128500Y45903938D01*
X75478493Y45903938D01*
X75487789Y45891923D01*
X75538994Y45856069D01*
X75548489Y45850586D01*
X75745947Y45758510D01*
X75756239Y45754764D01*
X75966688Y45698375D01*
X75977481Y45696472D01*
X76194525Y45677483D01*
X76205475Y45677483D01*
X76422519Y45696472D01*
X76433312Y45698375D01*
X76643761Y45754764D01*
X76654053Y45758510D01*
X76851511Y45850586D01*
X76861006Y45856069D01*
X76913048Y45892509D01*
X76921424Y45902988D01*
X76914356Y45916434D01*
X76839175Y45991615D01*
X79691517Y45991615D01*
X79692222Y45977530D01*
X79701101Y45974000D01*
X81007885Y45974000D01*
X81023124Y45978475D01*
X81024329Y45979865D01*
X81026000Y45987548D01*
X81026000Y45992115D01*
X81534000Y45992115D01*
X81538475Y45976876D01*
X81539865Y45975671D01*
X81547548Y45974000D01*
X82854597Y45974000D01*
X82868128Y45977973D01*
X82869488Y45987431D01*
X82815183Y46213624D01*
X82812134Y46223009D01*
X82719064Y46447700D01*
X82714583Y46456494D01*
X82587504Y46663867D01*
X82581711Y46671840D01*
X82542452Y46717806D01*
X84876573Y46717806D01*
X84886110Y46655485D01*
X84888499Y46645457D01*
X84959898Y46427012D01*
X84963895Y46417503D01*
X85070011Y46213656D01*
X85075505Y46204931D01*
X85213493Y46021148D01*
X85220336Y46013441D01*
X85386491Y45854661D01*
X85394501Y45848174D01*
X85584347Y45718670D01*
X85593321Y45713571D01*
X85801769Y45616813D01*
X85811456Y45613250D01*
X86032908Y45551835D01*
X86043030Y45549904D01*
X86087987Y45545099D01*
X86102608Y45547747D01*
X86105853Y45559588D01*
X86614000Y45559588D01*
X86618325Y45544859D01*
X86630111Y45542798D01*
X86641704Y45543751D01*
X86651866Y45545433D01*
X86874771Y45601422D01*
X86884519Y45604741D01*
X87095289Y45696385D01*
X87104364Y45701251D01*
X87297327Y45826085D01*
X87305498Y45832378D01*
X87475480Y45987050D01*
X87482506Y45994583D01*
X87624945Y46174944D01*
X87630650Y46183531D01*
X87741714Y46384722D01*
X87745944Y46394134D01*
X87822659Y46610768D01*
X87825293Y46620739D01*
X87842647Y46718163D01*
X87841187Y46731460D01*
X87826630Y46736000D01*
X86632115Y46736000D01*
X86616876Y46731525D01*
X86615671Y46730135D01*
X86614000Y46722452D01*
X86614000Y45559588D01*
X86105853Y45559588D01*
X86106000Y45560124D01*
X86106000Y46717885D01*
X86101525Y46733124D01*
X86100135Y46734329D01*
X86092452Y46736000D01*
X84891904Y46736000D01*
X84878560Y46732082D01*
X84876573Y46717806D01*
X82542452Y46717806D01*
X82423751Y46856787D01*
X82416787Y46863751D01*
X82231840Y47021711D01*
X82223867Y47027504D01*
X82016494Y47154583D01*
X82007700Y47159064D01*
X81783009Y47252134D01*
X81773624Y47255183D01*
X81551615Y47308483D01*
X81537530Y47307778D01*
X81534000Y47298899D01*
X81534000Y45992115D01*
X81026000Y45992115D01*
X81026000Y47294597D01*
X81022027Y47308128D01*
X81012569Y47309488D01*
X80786376Y47255183D01*
X80776991Y47252134D01*
X80552300Y47159064D01*
X80543506Y47154583D01*
X80336133Y47027504D01*
X80328160Y47021711D01*
X80143213Y46863751D01*
X80136249Y46856787D01*
X79978289Y46671840D01*
X79972496Y46663867D01*
X79845417Y46456494D01*
X79840936Y46447700D01*
X79747866Y46223009D01*
X79744817Y46213624D01*
X79691517Y45991615D01*
X76839175Y45991615D01*
X76212812Y46617978D01*
X76198868Y46625592D01*
X76197035Y46625461D01*
X76190420Y46621210D01*
X75484923Y45915713D01*
X75478493Y45903938D01*
X73128500Y45903938D01*
X73128500Y46984525D01*
X74887483Y46984525D01*
X74906472Y46767481D01*
X74908375Y46756688D01*
X74964764Y46546239D01*
X74968510Y46535947D01*
X75060586Y46338489D01*
X75066069Y46328994D01*
X75102509Y46276952D01*
X75112988Y46268576D01*
X75126434Y46275644D01*
X75827978Y46977188D01*
X75834356Y46988868D01*
X76564408Y46988868D01*
X76564539Y46987035D01*
X76568790Y46980420D01*
X77274287Y46274923D01*
X77286062Y46268493D01*
X77298077Y46277789D01*
X77333931Y46328994D01*
X77339414Y46338489D01*
X77431490Y46535947D01*
X77435236Y46546239D01*
X77491625Y46756688D01*
X77493528Y46767481D01*
X77512517Y46984525D01*
X77512517Y46995475D01*
X77493528Y47212519D01*
X77491625Y47223312D01*
X77435236Y47433761D01*
X77431490Y47444053D01*
X77339414Y47641511D01*
X77333931Y47651006D01*
X77297491Y47703048D01*
X77287012Y47711424D01*
X77273566Y47704356D01*
X76572022Y47002812D01*
X76564408Y46988868D01*
X75834356Y46988868D01*
X75835592Y46991132D01*
X75835461Y46992965D01*
X75831210Y46999580D01*
X75125713Y47705077D01*
X75113938Y47711507D01*
X75101923Y47702211D01*
X75066069Y47651006D01*
X75060586Y47641511D01*
X74968510Y47444053D01*
X74964764Y47433761D01*
X74908375Y47223312D01*
X74906472Y47212519D01*
X74887483Y46995475D01*
X74887483Y46984525D01*
X73128500Y46984525D01*
X73128500Y48077012D01*
X75478576Y48077012D01*
X75485644Y48063566D01*
X76187188Y47362022D01*
X76201132Y47354408D01*
X76202965Y47354539D01*
X76209580Y47358790D01*
X76915077Y48064287D01*
X76921507Y48076062D01*
X76912211Y48088077D01*
X76861006Y48123931D01*
X76851511Y48129414D01*
X76654053Y48221490D01*
X76643761Y48225236D01*
X76433312Y48281625D01*
X76422519Y48283528D01*
X76205475Y48302517D01*
X76194525Y48302517D01*
X75977481Y48283528D01*
X75966688Y48281625D01*
X75756239Y48225236D01*
X75745947Y48221490D01*
X75548489Y48129414D01*
X75538994Y48123931D01*
X75486952Y48087491D01*
X75478576Y48077012D01*
X73128500Y48077012D01*
X73128500Y57114390D01*
X73148502Y57182511D01*
X73165405Y57203485D01*
X74049194Y58087274D01*
X74061672Y58098208D01*
X74072128Y58106217D01*
X74076366Y58109463D01*
X74079999Y58113379D01*
X74138646Y58176601D01*
X74141926Y58180006D01*
X75511515Y59549595D01*
X75573827Y59583621D01*
X75600610Y59586500D01*
X76905146Y59586500D01*
X76907331Y59586653D01*
X76907337Y59586653D01*
X77067172Y59597829D01*
X77101621Y59594485D01*
X77101753Y59595216D01*
X77208774Y59575863D01*
X77210502Y59575538D01*
X77312096Y59555698D01*
X77312104Y59555697D01*
X77317333Y59554676D01*
X77322663Y59554551D01*
X77327973Y59553974D01*
X77327932Y59553597D01*
X77328710Y59553518D01*
X77328752Y59553890D01*
X77332880Y59553422D01*
X77336969Y59552682D01*
X77341123Y59552486D01*
X77341124Y59552486D01*
X77360544Y59551570D01*
X77360551Y59551570D01*
X77362032Y59551500D01*
X77450631Y59551500D01*
X77453600Y59551465D01*
X77556298Y59549045D01*
X77563922Y59550164D01*
X77582219Y59551500D01*
X79712671Y59551500D01*
X79780792Y59531498D01*
X79804332Y59509593D01*
X79805008Y59510269D01*
X79811358Y59503919D01*
X79816739Y59496739D01*
X79933295Y59409385D01*
X80069684Y59358255D01*
X80131866Y59351500D01*
X82428134Y59351500D01*
X82490316Y59358255D01*
X82626705Y59409385D01*
X82743261Y59496739D01*
X82748642Y59503919D01*
X82754992Y59510269D01*
X82756627Y59508634D01*
X82803359Y59543579D01*
X82847329Y59551500D01*
X85035319Y59551500D01*
X85044218Y59551185D01*
X85104409Y59546923D01*
X85104412Y59546923D01*
X85109737Y59546546D01*
X85171761Y59552682D01*
X85217979Y59557254D01*
X85219730Y59557415D01*
X85263952Y59561168D01*
X85328175Y59566617D01*
X85333345Y59567959D01*
X85337826Y59568725D01*
X85342298Y59569554D01*
X85347607Y59570079D01*
X85452558Y59598889D01*
X85454180Y59599322D01*
X85559540Y59626668D01*
X85564409Y59628862D01*
X85568732Y59630384D01*
X85572966Y59631942D01*
X85578111Y59633354D01*
X85676669Y59679417D01*
X85678263Y59680149D01*
X85777480Y59724843D01*
X85781907Y59727823D01*
X85785885Y59730037D01*
X85789827Y59732304D01*
X85794658Y59734562D01*
X85799038Y59737601D01*
X85799044Y59737604D01*
X85884018Y59796554D01*
X85885472Y59797548D01*
X85971334Y59855353D01*
X85975762Y59858334D01*
X85979626Y59862020D01*
X85983780Y59865360D01*
X85983977Y59865115D01*
X85984591Y59865616D01*
X85984399Y59865858D01*
X85987644Y59868441D01*
X85991057Y59870809D01*
X85994129Y59873604D01*
X86008510Y59886689D01*
X86008522Y59886701D01*
X86009615Y59887695D01*
X86072235Y59950315D01*
X86074358Y59952390D01*
X86144861Y60019647D01*
X86148718Y60023326D01*
X86153322Y60029514D01*
X86165316Y60043396D01*
X87011972Y60890052D01*
X87050825Y60916507D01*
X87100263Y60938003D01*
X87301977Y61068498D01*
X87479670Y61230186D01*
X87540347Y61307017D01*
X87625367Y61414670D01*
X87625370Y61414675D01*
X87628568Y61418724D01*
X87690827Y61531505D01*
X87742177Y61624526D01*
X87742179Y61624530D01*
X87744674Y61629050D01*
X87750106Y61644387D01*
X87823144Y61850640D01*
X87823145Y61850644D01*
X87824870Y61855515D01*
X87828627Y61876604D01*
X87866095Y62086948D01*
X87866096Y62086954D01*
X87867001Y62092037D01*
X87869780Y62319510D01*
X87869873Y62327093D01*
X87869873Y62327095D01*
X87869936Y62332263D01*
X87833596Y62569744D01*
X87792861Y62694375D01*
X87760566Y62793183D01*
X87760563Y62793189D01*
X87758958Y62798101D01*
X87748873Y62817475D01*
X87650416Y63006607D01*
X87648025Y63011200D01*
X87564138Y63122927D01*
X87536418Y63159847D01*
X87511512Y63226332D01*
X87526504Y63295728D01*
X87576635Y63346001D01*
X87637178Y63361500D01*
X88798514Y63361500D01*
X88815070Y63360408D01*
G37*
%TD.AperFunction*%
%TD*%
M02*
